<?xml version="1.0" encoding="UTF-8" standalone="no"?>
<!-- Created with Inkscape (http://www.inkscape.org/) -->

<svg
   width="500.00003"
   height="1105.796"
   viewBox="0 0 132.29168 292.5752"
   version="1.1"
   id="svg1"
   inkscape:version="1.4.2 (f4327f4, 2025-05-13)"
   sodipodi:docname="flor 2.svg"
   inkscape:export-batch-path="Planta"
   inkscape:export-batch-name=""
   xml:space="preserve"
   xmlns:inkscape="http://www.inkscape.org/namespaces/inkscape"
   xmlns:sodipodi="http://sodipodi.sourceforge.net/DTD/sodipodi-0.dtd"
   xmlns="http://www.w3.org/2000/svg"
   xmlns:svg="http://www.w3.org/2000/svg"><sodipodi:namedview
     id="namedview1"
     pagecolor="#acb3ef"
     bordercolor="#000000"
     borderopacity="0.25"
     inkscape:showpageshadow="2"
     inkscape:pageopacity="0.0"
     inkscape:pagecheckerboard="0"
     inkscape:deskcolor="#d1d1d1"
     inkscape:document-units="mm"
     inkscape:zoom="2.0000001"
     inkscape:cx="167.24999"
     inkscape:cy="528.74998"
     inkscape:window-width="1920"
     inkscape:window-height="1051"
     inkscape:window-x="1591"
     inkscape:window-y="-9"
     inkscape:window-maximized="1"
     inkscape:current-layer="g472"
     showguides="false"
     showgrid="false"><sodipodi:guide
       position="56.438934,150.4487"
       orientation="0,-1"
       id="guide224"
       inkscape:locked="false" /><inkscape:grid
       id="grid367"
       units="mm"
       originx="-3.0883791e-08"
       originy="0"
       spacingx="1"
       spacingy="1"
       empcolor="#0099e5"
       empopacity="0.30196078"
       color="#0099e5"
       opacity="0.14901961"
       empspacing="5"
       enabled="true"
       visible="false" /></sodipodi:namedview><defs
     id="defs1" /><g
     inkscape:groupmode="layer"
     id="g247"
     inkscape:label="18"
     style="display:inline"
     transform="translate(-1.0583333,-4.7625003)"><g
       id="g231"
       inkscape:label="caule"
       transform="matrix(1.0391206,-0.41320785,0.43392465,0.99786599,-125.52887,41.28458)"><path
         id="path229"
         style="display:inline;fill:#547a07;fill-opacity:1;stroke-width:0.079375"
         inkscape:label="caule"
         d="m 72.135091,262.93274 c -0.01486,-0.006 -0.03061,-0.0103 -0.04716,-0.0133 -0.06109,-0.011 -0.133687,-4e-5 -0.220503,0.0433 -0.463021,0.23151 -0.562069,4.33279 -0.56207,4.33279 0,0 0.09059,-0.28279 -0.08956,3.58592 -0.1156,2.48257 0.142552,3.38629 -0.155433,7.86422 l 0.854345,0.35378 c 0.148626,-3.56595 0.143287,-6.30013 0.239167,-8.5411 0.180215,-4.2121 0.143497,-5.14775 0.143497,-5.14775 l 0.09927,-1.9848 c 0,0 -0.0386,-0.40333 -0.261563,-0.49309 z" /><path
         id="path230"
         style="display:inline;opacity:0.0759837;fill:#ffffff;fill-opacity:1;stroke-width:0.079375"
         inkscape:label="L1"
         d="m 72.098641,262.92162 c -0.01722,-0.004 -0.035,-0.006 -0.05421,-0.006 l -1.12e-4,5e-4 c -0.05129,-2.9e-4 -0.110132,0.0134 -0.176964,0.0468 -0.26207,0.13104 -0.407466,1.5015 -0.484418,2.66655 0.188947,-0.8478 0.182107,-2.41458 0.687039,-2.51246 l 0.265976,0.0585 c -0.04359,-0.11264 -0.116729,-0.22649 -0.237307,-0.2538 z" /><path
         id="path231"
         style="display:inline;opacity:0.0610583;fill:#ffffff;fill-opacity:1;stroke-width:0.0893887"
         inkscape:label="l2"
         d="m 66.819127,279.83233 0.945685,2.74432 c 0,0 4.239022,8.37928 4.727037,9.64148 0.414742,1.07269 0.626332,1.75439 0.710885,2.1749 l 0.38241,-0.13199 c -2.803332,-6.67551 -5.130978,-11.04535 -6.766017,-14.42871 z m 6.383607,14.5607 -0.602707,0.20847 c 0,0 0.851774,1.03019 0.602707,-0.20847 z"
         transform="matrix(0.78687102,0.41150305,-0.41150305,0.78687102,134.69669,23.714858)" /></g><g
       id="g234"
       inkscape:label="Dir"
       transform="matrix(1.7637526,0.6580553,-0.6580553,1.7637526,133.81718,-243.80019)"><path
         id="path232"
         style="opacity:1;fill:#577d07;fill-opacity:1;stroke-width:0.0893888"
         inkscape:label="Dir"
         d="m 73.375366,264.23452 c -6.783644,-0.3041 -8.014068,4.00208 -10.512792,8.69245 l 0.644661,1.6542 c 0.01274,-0.002 0.02585,-0.003 0.03979,-0.005 0.0063,-0.4122 0.04835,-0.85113 0.139009,-1.31259 0.579479,-2.94941 1.962766,-2.67604 2.573486,-2.82308 0.610706,-0.14707 20.494072,-2.73448 10.391097,-5.79603 -1.221487,-0.23315 -2.30616,-0.36635 -3.275252,-0.40979 z"
         sodipodi:nodetypes="ccccssccc" /><path
         id="path233"
         style="opacity:0.0705563;fill:#ffffff;fill-opacity:1;stroke-width:0.0893888"
         d="m 69.449507,264.77267 c -2.930147,1.01623 -4.165766,3.35365 -5.535889,6.12044 1.582183,-2.55452 4.996808,-6.93406 12.681143,-6.25975 -3.086294,-0.58251 -5.387254,-0.47071 -7.145254,0.13931 z"
         sodipodi:nodetypes="sccs" /><path
         id="path234"
         style="opacity:0.0705563;fill:#000000;fill-opacity:1;stroke-width:0.0893888"
         d="m 64.808927,270.71163 c -0.48986,0.15571 -0.630768,0.53803 -0.772722,0.94795 -0.314568,0.9083 -0.48158,2.55692 -0.48158,2.55692 0,0 0.183081,-1.72518 0.557946,-2.37227 0.329289,-0.56841 0.569012,-0.96926 1.209077,-1.23101 -0.151748,0.0323 -0.349431,0.0468 -0.512725,0.0984 z"
         sodipodi:nodetypes="sscscs" /></g><g
       id="g237"
       transform="matrix(2.2776568,0,0,2.240091,-77.874661,-331.83336)"
       inkscape:label="Esq"><path
         style="opacity:1;fill:#577d07;fill-opacity:1;stroke-width:0.109059"
         d="m 62.27436,272.36841 c -0.192436,-0.41415 -8.401305,-6.64126 -13.646118,0.92043 -1.796604,2.59024 -0.0096,3.80852 1.836714,2.77372 1.844382,-1.0337 4.90439,-3.21555 5.464126,-3.50067 0.559748,-0.28506 4.273386,-2.55125 7.294016,2.56621"
         id="path235"
         sodipodi:nodetypes="csszc"
         inkscape:label="Esq" /><path
         id="path236"
         style="opacity:0.0705563;fill:#000000;fill-opacity:1;stroke-width:0.0893888"
         d="m 57.228346,271.87957 c -0.915783,0.31436 -1.702832,0.84241 -2.293134,1.31237 0.475782,-0.31622 0.835327,-0.54899 0.993979,-0.6298 0.559746,-0.28511 4.273535,-2.55144 7.294163,2.56602 l -0.58169,-1.69234 c -0.03708,-0.0374 -0.04464,-0.0504 -0.08258,-0.0883 -1.921428,-1.92173 -3.804475,-1.99185 -5.330772,-1.46792 z" /><path
         id="path237"
         style="opacity:0.0705563;fill:#ffffff;fill-opacity:1;stroke-width:0.0893888"
         d="m 52.560677,270.02961 c -1.378247,0.52139 -2.733064,1.52981 -3.932588,3.2592 -0.438789,0.63262 -0.66389,1.18364 -0.726497,1.63976 1.467517,-2.52062 5.029981,-6.22824 12.700719,-3.76923 -1.862671,-1.06779 -5.009494,-2.27682 -8.041634,-1.12973 z" /></g><path
       d="m 60.621734,252.659 c 0.01204,7.4e-4 0.02436,0.003 0.03772,0.007 0.427704,0.12388 0.944129,1.56011 0.944129,1.56011 l 0.219624,-0.061 c 1.054538,-0.96167 0.888835,0.7953 0.888835,0.7953 l -0.0062,0.30437 0.09508,0.43357 c 1.340292,-0.87055 0.9741,1.09399 0.9741,1.09399 l -0.553971,1.53944 0.432532,1.66088 -1.12913,0.26407 -0.377238,-1.53686 c 0,0 -0.585417,-0.5159 -1.934249,-1.8371 -1.348826,-1.32123 0.0677,-1.13946 0.0677,-1.13946 l -0.252698,-0.33228 c -1.965858,-3.2753 0.469222,-1.3348 0.469222,-1.3348 0,0 -0.248793,-1.44042 0.12454,-1.41749 z"
       style="display:inline;opacity:1;fill:#5c8507;fill-opacity:1;stroke-width:0.0954481"
       id="path250" /><g
       id="g239"
       inkscape:label="caulao"><path
         style="opacity:1;fill:#547a07;fill-opacity:1;stroke-width:0.079375"
         d="m 62.38563,267.76659 3.255681,22.83945 3.745667,-0.45732 -4.416931,-16.80259 z"
         id="path238"
         sodipodi:nodetypes="ccccc" /><path
         id="path239"
         style="opacity:0.0949797;fill:#000000;fill-opacity:1;stroke-width:0.079375"
         d="m 62.188939,265.85892 3.452373,24.70035 0.954098,-0.21395 -3.182835,-21.03308 z"
         sodipodi:nodetypes="ccccc" /><path
         id="path240"
         style="display:inline;opacity:1;fill:#547a07;fill-opacity:1;stroke-width:0.079375"
         inkscape:label="brotinho"
         d="m 67.931741,276.77363 c 0.05651,0.41797 0.187829,1.0328 0.346287,1.84725 0.423063,1.1691 0.540746,2.01574 0.540746,2.01574 l -0.956673,-1.88673 c 0,0 -0.29831,-1.03642 -0.461972,-1.78082 -0.130561,-0.59385 -0.155773,-1.81743 -0.155773,-1.81743 l 0.01538,-0.21864 0.246228,-0.15201 0.0836,0.10255 0.149925,0.16757 z"
         sodipodi:nodetypes="cccsscccccc"
         transform="matrix(3.557361,0.39157563,-0.39157563,3.557361,-69.654402,-748.49096)" /></g><g
       id="g248"
       inkscape:label="Pontinha"
       style="display:inline"
       transform="matrix(3.3454753,0.36825237,-0.36825237,3.3454753,-61.930223,-691.16101)"><path
         id="path241"
         style="opacity:1;fill:#5c8507;fill-opacity:1;stroke-width:0.0664134"
         inkscape:label="oi"
         d="m 67.394007,274.05321 c -0.330006,0.0346 -0.42768,0.41082 -0.436716,0.44366 -0.142628,0.5181 0.192246,0.84595 0.381066,1.4149 0.32413,-0.0999 0.250116,0.11609 0.621223,-0.003 -0.120855,-0.9067 0.04889,-1.18125 -0.251571,-1.64918 -0.06763,-0.10533 -0.252889,-0.21236 -0.314002,-0.20596 z"
         sodipodi:nodetypes="scccass" /><path
         id="path242"
         style="display:inline;opacity:0.0257802;fill:#000000;fill-opacity:1;stroke-width:0.079375"
         d="m 64.078776,254.30437 c -1.219663,0.0559 -1.661914,2.42415 -1.661914,2.42415 -0.285297,-1.1536 -1.114731,-1.80928 -1.511536,-2.06499 -0.386553,1.56523 0.536406,2.81401 0.946713,4.73149 1.192165,-0.22846 0.84444,0.51087 2.211234,0.23254 -0.06539,-2.85798 0.468804,-3.91448 0.0155,-5.32319 z"
         transform="matrix(0.27774201,-0.03057238,0.03057238,0.27774201,42.229104,205.75788)" /><path
         id="path243"
         style="opacity:0.036635;fill:#ffffff;fill-opacity:1;stroke-width:0.0664134"
         inkscape:label="oi"
         d="m 67.394072,274.05324 c -0.150128,0.0157 -0.252291,0.1022 -0.319782,0.19485 0.143862,-0.0495 0.390049,-0.0895 0.663645,0.06 -0.0094,-0.016 -0.01936,-0.0322 -0.0299,-0.0486 -0.06763,-0.10533 -0.25295,-0.21224 -0.314063,-0.20584 z" /></g><g
       id="g243"
       inkscape:label="brotinho"
       transform="matrix(3.5573611,0.39157563,-0.39157563,3.5573611,-69.654401,-748.49097)"
       style="display:inline" /><path
       style="display:inline;opacity:1;fill:#547a07;fill-opacity:1;stroke-width:0.101523"
       d="m 62.468499,260.0861 0.426309,-1.9069 -0.545613,-1.76721 c 0,0 -0.36129,-2.25515 0.959556,-1.25577 l 0.0937,-0.49784 -0.0058,-0.3491 c 0,0 -0.163588,-2.017 0.875651,-0.91301 l 0.216785,0.0702 c 0,0 0.508598,-1.64935 0.930096,-1.79157 0.421539,-0.14262 0.160256,1.61919 0.160256,1.61919 0,0 2.39933,-2.22755 0.461993,1.53246 l -0.248724,0.38117 c 0,0 1.395649,-0.20867 0.06639,1.30809 -1.329262,1.51673 -1.906217,2.10911 -1.906217,2.10911 l -0.371434,1.76458 z"
       id="path248"
       sodipodi:nodetypes="cccccccczcccsccc" /><rect
       style="display:inline;fill:#ab07ff;fill-opacity:0;stroke-width:0.0836838"
       id="rect10"
       width="132.29167"
       height="285.31024"
       x="3.088379e-08"
       y="0"
       inkscape:label="frame"
       transform="translate(1.0583333,4.7625003)" /></g></svg>
