<?xml version="1.0" encoding="UTF-8" standalone="no"?>
<!-- Created with Inkscape (http://www.inkscape.org/) -->

<svg
   width="500.00003"
   height="1080.3535"
   viewBox="0 0 132.29168 285.84353"
   version="1.1"
   id="svg1"
   inkscape:version="1.4.2 (f4327f4, 2025-05-13)"
   sodipodi:docname="flor 2.svg"
   inkscape:export-batch-path="Planta"
   inkscape:export-batch-name=""
   xml:space="preserve"
   xmlns:inkscape="http://www.inkscape.org/namespaces/inkscape"
   xmlns:sodipodi="http://sodipodi.sourceforge.net/DTD/sodipodi-0.dtd"
   xmlns="http://www.w3.org/2000/svg"
   xmlns:svg="http://www.w3.org/2000/svg"><sodipodi:namedview
     id="namedview1"
     pagecolor="#acb3ef"
     bordercolor="#000000"
     borderopacity="0.25"
     inkscape:showpageshadow="2"
     inkscape:pageopacity="0.0"
     inkscape:pagecheckerboard="0"
     inkscape:deskcolor="#d1d1d1"
     inkscape:document-units="mm"
     inkscape:zoom="2.0000001"
     inkscape:cx="167.24999"
     inkscape:cy="528.74998"
     inkscape:window-width="1920"
     inkscape:window-height="1051"
     inkscape:window-x="1591"
     inkscape:window-y="-9"
     inkscape:window-maximized="1"
     inkscape:current-layer="g472"
     showguides="false"
     showgrid="false"><sodipodi:guide
       position="56.438934,150.4487"
       orientation="0,-1"
       id="guide224"
       inkscape:locked="false" /><inkscape:grid
       id="grid367"
       units="mm"
       originx="-3.0883791e-08"
       originy="0"
       spacingx="1"
       spacingy="1"
       empcolor="#0099e5"
       empopacity="0.30196078"
       color="#0099e5"
       opacity="0.14901961"
       empspacing="5"
       enabled="true"
       visible="false" /></sodipodi:namedview><defs
     id="defs1"><inkscape:path-effect
       effect="envelope"
       id="path-effect96"
       is_visible="true"
       lpeversion="1"
       yy="false"
       xx="true"
       bendpath1="m 67.126345,252.20782 1.693342,2.51355"
       bendpath2="m 68.918906,254.78751 c 0,0 -2.14974,-1.52878 -4.927865,4.15976"
       bendpath3="m 62.463064,256.49988 1.594123,2.44739"
       bendpath4="m 67.258637,252.30704 c 0,0 -2.083594,-1.46263 -4.861719,4.09362"
       bendpath3-nodetypes="cc"
       bendpath4-nodetypes="cc"
       bendpath1-nodetypes="cc"
       bendpath2-nodetypes="cc" /><inkscape:path-effect
       effect="envelope"
       id="path-effect94"
       is_visible="true"
       lpeversion="1"
       yy="false"
       xx="true"
       bendpath1="m 66.989385,251.87425 1.830302,2.84712"
       bendpath2="m 68.918906,254.78751 c 0,0 -2.663342,-2.66292 -4.927865,4.15976"
       bendpath3="m 62.463064,256.49988 1.594123,2.44739"
       bendpath4="m 66.984716,252.04018 c 0,0 -1.809673,-1.19577 -4.587798,4.36048"
       bendpath3-nodetypes="cc"
       bendpath4-nodetypes="cc"
       bendpath1-nodetypes="cc"
       bendpath2-nodetypes="cc" /></defs><g
     inkscape:groupmode="layer"
     id="g93"
     inkscape:label="20"
     style="display:inline"
     transform="translate(-1.0583333,-4.7625003)"><g
       id="g33"
       inkscape:label="caule"
       transform="matrix(1.0391206,-0.41320785,0.43392465,0.99786599,-125.52887,41.28458)"><path
         id="path31"
         style="display:inline;fill:#547a07;fill-opacity:1;stroke-width:0.079375"
         inkscape:label="caule"
         d="m 72.135091,262.93274 c -0.01486,-0.006 -0.03061,-0.0103 -0.04716,-0.0133 -0.06109,-0.011 -0.133687,-4e-5 -0.220503,0.0433 -0.463021,0.23151 -0.562069,4.33279 -0.56207,4.33279 0,0 0.09059,-0.28279 -0.08956,3.58592 -0.1156,2.48257 0.142552,3.38629 -0.155433,7.86422 l 0.854345,0.35378 c 0.148626,-3.56595 0.143287,-6.30013 0.239167,-8.5411 0.180215,-4.2121 0.143497,-5.14775 0.143497,-5.14775 l 0.09927,-1.9848 c 0,0 -0.0386,-0.40333 -0.261563,-0.49309 z" /><path
         id="path32"
         style="display:inline;opacity:0.0759837;fill:#ffffff;fill-opacity:1;stroke-width:0.079375"
         inkscape:label="L1"
         d="m 72.098641,262.92162 c -0.01722,-0.004 -0.035,-0.006 -0.05421,-0.006 l -1.12e-4,5e-4 c -0.05129,-2.9e-4 -0.110132,0.0134 -0.176964,0.0468 -0.26207,0.13104 -0.407466,1.5015 -0.484418,2.66655 0.188947,-0.8478 0.182107,-2.41458 0.687039,-2.51246 l 0.265976,0.0585 c -0.04359,-0.11264 -0.116729,-0.22649 -0.237307,-0.2538 z" /><path
         id="path33"
         style="display:inline;opacity:0.0610583;fill:#ffffff;fill-opacity:1;stroke-width:0.0893887"
         inkscape:label="l2"
         d="m 66.819169,279.83238 0.945398,2.7442 c 0,0 1.297005,2.56331 2.538637,5.06798 l 0.315829,-0.0429 c -1.499424,-3.18215 -2.783548,-5.66627 -3.799864,-7.76931 z"
         transform="matrix(0.78687102,0.41150305,-0.41150305,0.78687102,134.69669,23.714858)" /></g><g
       id="g36"
       inkscape:label="Dir"
       transform="matrix(1.7127311,0.6389338,-0.78128876,1.4006624,170.98959,-143.69008)"><path
         id="path34"
         style="opacity:1;fill:#577d07;fill-opacity:1;stroke-width:0.0893888"
         inkscape:label="Dir"
         d="m 73.375366,264.23452 c -6.783644,-0.3041 -8.014068,4.00208 -10.512792,8.69245 l 0.644661,1.6542 c 0.01274,-0.002 0.02585,-0.003 0.03979,-0.005 0.0063,-0.4122 0.04835,-0.85113 0.139009,-1.31259 0.579479,-2.94941 1.962766,-2.67604 2.573486,-2.82308 0.610706,-0.14707 20.494072,-2.73448 10.391097,-5.79603 -1.221487,-0.23315 -2.30616,-0.36635 -3.275252,-0.40979 z"
         sodipodi:nodetypes="ccccssccc" /><path
         id="path35"
         style="opacity:0.0705563;fill:#ffffff;fill-opacity:1;stroke-width:0.0893888"
         d="m 69.449507,264.77267 c -2.930147,1.01623 -4.165766,3.35365 -5.535889,6.12044 1.582183,-2.55452 4.996808,-6.93406 12.681143,-6.25975 -3.086294,-0.58251 -5.387254,-0.47071 -7.145254,0.13931 z"
         sodipodi:nodetypes="sccs" /><path
         id="path36"
         style="opacity:0.0705563;fill:#000000;fill-opacity:1;stroke-width:0.0893888"
         d="m 64.808927,270.71163 c -0.48986,0.15571 -0.630768,0.53803 -0.772722,0.94795 -0.314568,0.9083 -0.48158,2.55692 -0.48158,2.55692 0,0 0.183081,-1.72518 0.557946,-2.37227 0.329289,-0.56841 0.569012,-0.96926 1.209077,-1.23101 -0.151748,0.0323 -0.349431,0.0468 -0.512725,0.0984 z"
         sodipodi:nodetypes="sscscs" /></g><g
       id="g74"
       transform="matrix(2.2675443,0.14949257,-0.21085517,1.5550555,-18.691543,-153.37538)"
       inkscape:label="Esq"><path
         style="opacity:1;fill:#577d07;fill-opacity:1;stroke-width:0.109059"
         d="m 62.27436,272.36841 c -0.192436,-0.41415 -8.401305,-6.64126 -13.646118,0.92043 -1.796604,2.59024 -0.0096,3.80852 1.836714,2.77372 1.844382,-1.0337 4.90439,-3.21555 5.464126,-3.50067 0.559748,-0.28506 4.273386,-2.55125 7.294016,2.56621"
         id="path42"
         sodipodi:nodetypes="csszc"
         inkscape:label="Esq" /><path
         id="path73"
         style="opacity:0.0705563;fill:#000000;fill-opacity:1;stroke-width:0.0893888"
         d="m 57.228346,271.87957 c -0.915783,0.31436 -1.702832,0.84241 -2.293134,1.31237 0.475782,-0.31622 0.835327,-0.54899 0.993979,-0.6298 0.559746,-0.28511 4.273535,-2.55144 7.294163,2.56602 l -0.58169,-1.69234 c -0.03708,-0.0374 -0.04464,-0.0504 -0.08258,-0.0883 -1.921428,-1.92173 -3.804475,-1.99185 -5.330772,-1.46792 z" /><path
         id="path74"
         style="opacity:0.0705563;fill:#ffffff;fill-opacity:1;stroke-width:0.0893888"
         d="m 52.560677,270.02961 c -1.378247,0.52139 -2.733064,1.52981 -3.932588,3.2592 -0.438789,0.63262 -0.66389,1.18364 -0.726497,1.63976 1.467517,-2.52062 5.029981,-6.22824 12.700719,-3.76923 -1.862671,-1.06779 -5.009494,-2.27682 -8.041634,-1.12973 z" /></g><path
       id="path75"
       style="display:inline;opacity:1;fill:#5c8507;fill-opacity:1;stroke-width:0.00453531"
       d="m 68.183861,253.85523 c -0.02021,-0.0197 0.09436,-0.041 0.167017,-0.0817 0.08515,-0.0477 0.07395,-0.0954 0.0477,-0.16128 0,0 0,0 0,0 0,0 0,0 0,0 -7.9e-4,-0.002 -0.0035,-0.009 -0.0043,-0.0105 -0.008,-0.0193 -0.01602,-0.0374 -0.02418,-0.0547 0,0 0,0 0,0 -0.0057,-0.012 -0.01127,-0.0234 -0.01683,-0.0343 0,0 0,0 0,0 0,0 0,0 0,0 0,0 0,0 0,0 -0.05198,-0.0798 -0.11236,-0.14333 -0.157091,-0.18623 0,0 0,0 0,0 0,0 0,0 0,0 -0.01379,-0.0262 -0.0233,-0.0409 -0.0233,-0.0409 -0.01359,-0.0229 -0.02885,-0.0448 -0.04574,-0.0656 -0.141083,-0.16319 -0.374376,-0.26095 -0.68351,-0.30484 0.145293,-0.006 0.261494,0.003 0.348302,0.0269 0,0 0.04887,-0.0245 -0.105685,-0.13962 -0.15034,-0.11195 -0.537215,-0.17573 -0.537215,-0.17573 -0.06885,0.0117 -0.149082,0.0277 -0.240311,0.0479 -0.102222,0.0281 -0.209367,0.0636 -0.321188,0.10765 -0.266536,0.14675 -0.513024,0.31579 -0.73263,0.50996 -0.254958,0.13707 -0.474817,0.29321 -0.660486,0.46231 0.338857,-0.49203 0.922337,-0.93117 1.052158,-1.1896 0,0 0,0 0,0 0.02761,-0.04 0.03773,-0.0755 0.02964,-0.10856 -0.03061,-0.12499 -0.237221,-0.12963 -0.412043,-0.0712 0,0 0,0 0,0 -0.427657,0.16981 -1.041399,0.98135 -1.041399,0.98135 -0.0935,0.18677 -0.175226,0.38423 -0.23767,0.59707 -0.09726,0.2922 -0.186076,0.60276 -0.266889,0.9211 -0.09452,0.14545 -0.185949,0.29351 -0.274847,0.44346 0.170213,-0.65342 0.370432,-1.37905 0.333301,-1.68238 -0.01281,-0.10158 -0.04721,-0.16968 -0.11272,-0.20269 -0.0063,-0.003 -0.01271,-0.006 -0.01915,-0.008 -0.186731,-0.0585 -0.41047,0.36501 -0.581945,1.03774 -0.173716,0.68152 -0.284746,1.55367 -0.346659,2.19831 -0.116338,0.22874 -0.230667,0.45715 -0.34471,0.68292 0.07416,0.13766 0.150829,0.26874 0.230012,0.39325 0.164113,-0.34937 0.02978,-0.0635 0.193895,-0.41283 0.229086,-0.12909 0.538173,-0.33278 1.100221,-0.79724 0.434477,-0.35904 1.066954,-0.88177 1.187985,-1.13819 10e-7,0 10e-7,0 10e-7,0 0.03227,-0.069 0.04442,-0.13522 0.03065,-0.1991 -0.0331,-0.15359 -0.160958,-0.20009 -0.330212,-0.15811 0,0 0,0 0,0 -0.430137,0.083 -0.966591,0.57858 -1.33595,0.97113 0.115915,-0.21789 0.236206,-0.43293 0.36242,-0.6433 0.246903,-0.18921 0.509843,-0.37992 0.792151,-0.55556 0.184832,-0.13574 0.408129,-0.26031 0.65835,-0.36155 0,0 0.863705,-0.37034 1.430791,-0.46793 0.14369,-0.0171 0.260573,-0.0265 0.335367,-0.049 0,0 0,0 0,0 0.08605,-0.024 0.121843,-0.08 0.006,-0.18421 -7.75e-4,-6.9e-4 -0.0016,-0.001 -0.0023,-0.002 -0.08668,-0.0667 -0.231108,-0.12571 -0.421926,-0.15682 -0.672465,-0.0709 -1.421404,0.18655 -1.903965,0.52241 0.220107,-0.22357 0.495374,-0.42672 0.826353,-0.59529 0.288995,-0.0885 0.611617,-0.15456 0.95908,-0.18594 0.153143,-0.001 0.30291,0.009 0.448827,0.0303 0.205184,0.0472 0.383881,0.11167 0.537854,0.19368 0,0 0.380862,0.22028 0.41915,0.23271 0,0 0,0 0,0 0,0 0,0 0,0 0,0 0,0 0,0 0,0 0,0 0,0 0,0 0,0 0,0 0,0 0,0 0,0 9.16e-4,2.2e-4 0.0016,2.1e-4 0.0022,-6e-5 0.0056,-0.003 -0.01079,-0.0364 -0.03637,-0.0807 0,0 0,0 0,0 0,0 0,0 0,0 0,0 0,0 0,0 0,0 0,0 0,0 0,0 0,0 0,0 0,0 0,0 0,0 -0.05794,-0.0965 -0.177511,-0.23484 -0.177511,-0.23484 -0.07302,-0.0674 -0.156996,-0.12718 -0.251779,-0.17946 0.141461,0.0601 0.254026,0.14005 0.33463,0.24131 0.01933,0.026 0.03639,0.0534 0.05113,0.0822 0.0034,0.007 0.0066,0.0142 0.0094,0.0212 0,0 0,0 0,0 0.05455,0.0502 0.08748,0.0925 0.107344,0.12748 0,0 0,0 0,0 0,0 0,0 0,0 0.0017,0.006 0.0032,0.0123 0.0046,0.0185 0,0 0,0 0,0 0.0021,0.01 0.0037,0.0195 0.0048,0.029 1.89e-4,0.002 4.07e-4,0.004 6.11e-4,0.006 0.0041,0.0447 -0.0218,0.0659 -0.145923,0.0655 -0.106932,-3.5e-4 -0.201618,-0.0175 -0.215328,-0.0312 z"
       inkscape:path-effect="#path-effect94"
       inkscape:original-d="m 64.760287,249.33052 c -0.256811,-0.007 -0.420875,0.814 -0.420875,0.814 l -0.067,1.04084 -0.263852,-0.52773 c 0,0 -0.398538,-0.32604 -0.580113,-0.22565 -0.194039,0.10729 -0.125401,0.65326 -0.125401,0.65326 l 0.877715,1.52443 -0.05327,0.82788 c -0.391258,-0.73772 -0.938,-1.5709 -1.613611,-1.84735 -1.274865,-0.52166 0.101985,1.9041 0.101985,1.9041 l 1.398332,1.70367 -0.04278,0.66462 c -0.640339,-0.93066 -1.544664,-1.93692 -2.418721,-1.69762 -1.130643,0.30955 1.070325,2.51049 2.293941,3.63636 l -0.0631,0.98058 h 1.026235 l 0.02533,-0.57026 c 0.636094,-0.55166 4.343549,-3.83446 2.94365,-4.21772 -1.103074,-0.302 -2.254363,1.37976 -2.862391,2.38981 l 0.0408,-0.91805 1.758412,-2.14244 c 0,0 1.376851,-2.42573 0.101986,-1.90406 -0.775489,0.31732 -1.38116,1.36815 -1.776837,2.16618 l 0.04603,-1.03566 0.94164,-1.63552 c 0,0 0.06864,-0.54597 -0.125399,-0.65325 -0.181577,-0.1004 -0.580115,0.22564 -0.580115,0.22564 l -0.158529,0.31709 0.03024,-0.68054 c -0.16135,-0.58928 -0.308891,-0.78952 -0.43431,-0.79261 z"
       transform="matrix(-2.7320097,0,0,1.4021683,235.73769,-98.043612)"
       sodipodi:nodetypes="scccscccscccsccccscccscccscccss" /><g
       id="g79"
       inkscape:label="caulao"><path
         style="opacity:1;fill:#547a07;fill-opacity:1;stroke-width:0.079375"
         d="m 62.38563,267.76659 3.255681,22.83945 3.745667,-0.45732 -4.416931,-16.80259 z"
         id="path76"
         sodipodi:nodetypes="ccccc" /><path
         id="path77"
         style="opacity:0.0949797;fill:#000000;fill-opacity:1;stroke-width:0.079375"
         d="m 62.37084,267.79369 3.270472,22.76558 0.954098,-0.21395 -3.182835,-21.03308 z"
         sodipodi:nodetypes="ccccc" /><path
         id="path79"
         style="display:inline;opacity:1;fill:#547a07;fill-opacity:1;stroke-width:0.079375"
         inkscape:label="brotinho"
         d="m 67.893499,276.6676 c 0.189652,0.95184 0.291265,1.31479 0.485572,1.94216 0.376123,1.16497 0.439703,2.02686 0.439703,2.02686 l -1.075531,-2.41752 -0.255595,-1.12566 -0.243292,-1.9418 0.01538,-0.21864 0.246228,-0.15201 0.0836,0.10255 0.149925,0.16757 0.297841,0.94037 z"
         sodipodi:nodetypes="cccscccccccc"
         transform="matrix(3.557361,0.39157563,-0.39157563,3.557361,-69.654402,-748.49096)" /></g><g
       id="g91"
       inkscape:label="Pontinha"
       style="display:inline"
       transform="matrix(3.3454753,0.48793875,-0.36825237,4.4327944,-61.401056,-996.14016)"><path
         id="path85"
         style="opacity:1;fill:#5c8507;fill-opacity:1;stroke-width:0.0664134"
         inkscape:label="oi"
         d="m 67.394007,274.05321 c -0.330006,0.0346 -0.42768,0.41082 -0.436716,0.44366 -0.142628,0.5181 0.192246,0.84595 0.381066,1.4149 0.32413,-0.0999 0.250116,0.11609 0.621223,-0.003 -0.120855,-0.9067 0.04889,-1.18125 -0.251571,-1.64918 -0.06763,-0.10533 -0.252889,-0.21236 -0.314002,-0.20596 z"
         sodipodi:nodetypes="scccass" /><path
         id="path90"
         style="display:inline;opacity:0.0257802;fill:#000000;fill-opacity:1;stroke-width:0.079375"
         d="m 64.078776,254.30437 c -1.219663,0.0559 -1.661914,2.42415 -1.661914,2.42415 -0.285297,-1.1536 -1.114731,-1.80928 -1.511536,-2.06499 -0.386553,1.56523 0.536406,2.81401 0.946713,4.73149 1.192165,-0.22846 0.84444,0.51087 2.211234,0.23254 -0.06539,-2.85798 0.468804,-3.91448 0.0155,-5.32319 z"
         transform="matrix(0.27774201,-0.03057238,0.03057238,0.27774201,42.229104,205.75788)" /><path
         id="path91"
         style="opacity:0.036635;fill:#ffffff;fill-opacity:1;stroke-width:0.0664134"
         inkscape:label="oi"
         d="m 67.394072,274.05324 c -0.150128,0.0157 -0.252291,0.1022 -0.319782,0.19485 0.143862,-0.0495 0.390049,-0.0895 0.663645,0.06 -0.0094,-0.016 -0.01936,-0.0322 -0.0299,-0.0486 -0.06763,-0.10533 -0.25295,-0.21224 -0.314063,-0.20584 z" /></g><g
       id="g92"
       inkscape:label="brotinho"
       transform="matrix(3.5573611,0.39157563,-0.39157563,3.5573611,-69.654401,-748.49097)"
       style="display:inline" /><path
       id="path92"
       style="opacity:1;fill:#547a07;fill-opacity:1;stroke-width:0.00453531"
       d="m 67.923768,253.66508 c -0.0171,-0.0186 0.08876,-0.0443 0.139694,-0.0817 0.05822,-0.0427 0.02279,-0.0821 -0.04424,-0.1311 0,0 0,0 0,0 0,0 0,0 0,0 0,0 -3.15e-4,-2.3e-4 -3.15e-4,-2.3e-4 0,0 0,0 0,0 0,0 0,0 0,0 -0.02698,-0.0196 -0.05481,-0.0377 -0.08341,-0.0547 0,0 0,0 0,0 -1e-6,0 -0.0015,-8.9e-4 -0.0015,-8.9e-4 0,0 0,0 0,0 -0.142105,-0.0843 -0.27381,-0.12393 -0.301714,-0.1324 0,0 0,0 0,0 0,0 0,0 0,0 0,0 0,0 0,0 0,0 0,0 0,0 0,0 0,0 0,0 0,0 0,0 0,0 0,0 0,0 0,0 0,0 0,0 0,0 0,0 0,0 0,0 0,0 0,0 0,0 0,0 0,0 0,0 -0.0014,-6.2e-4 -0.0021,-9.3e-4 -0.0021,-9.3e-4 -3.94e-4,-1.5e-4 -7.88e-4,-2.9e-4 -0.0012,-4.3e-4 -0.254405,-0.0635 -0.521197,-0.0586 -0.780405,-0.007 0.107804,-0.0618 0.21737,-0.1117 0.326107,-0.14681 0,0 0.139552,-0.13611 0.02404,-0.20523 -0.140833,-0.0843 -0.512371,-0.0116 -0.512371,-0.0116 -0.09397,0.0562 -0.186931,0.12239 -0.27701,0.19665 -0.0027,0.002 -0.0054,0.004 -0.008,0.006 -0.192598,0.1648 -0.370746,0.35251 -0.535875,0.5596 -0.173669,0.10181 -0.338651,0.21577 -0.495862,0.33999 0.299689,-0.46341 0.738027,-1.00906 0.760145,-1.27704 6.02e-4,-0.007 9.99e-4,-0.0143 0.0012,-0.0211 5.58e-4,-0.005 9.87e-4,-0.01 0.0013,-0.0141 0,0 0,0 0,0 -8.45e-4,-0.0814 -0.03517,-0.12274 -0.09194,-0.13365 0,0 0,0 0,0 0,0 0,0 0,0 -0.0038,-6.2e-4 -0.0076,-0.001 -0.01158,-0.002 0,0 0,0 0,0 -0.30488,-0.0359 -1.046321,0.92915 -1.046321,0.92915 -0.201002,0.43854 -0.37196,0.92039 -0.519109,1.43137 -0.103013,0.12782 -0.202277,0.25964 -0.298263,0.39449 0.243652,-0.83272 0.530246,-1.68882 0.216934,-1.87439 -0.499192,-0.29566 -0.868715,1.84023 -0.985058,3.10746 -0.11936,0.21273 -0.234609,0.42586 -0.347239,0.63623 0.07915,0.12771 0.158533,0.255 0.238144,0.38186 0.0646,-0.12422 0.1301,-0.24939 0.19679,-0.37486 0.219321,-0.0902 0.696614,-0.30436 1.332939,-0.63751 0.575998,-0.30157 1.173715,-0.62402 1.112007,-0.95507 -0.118596,-0.63625 -1.245085,-0.0162 -1.756983,0.39678 0.12463,-0.19496 0.25484,-0.38558 0.391876,-0.56926 0.449016,-0.22711 0.937594,-0.4201 1.478023,-0.54112 0,0 0.902516,-0.25958 1.252447,-0.42005 0,0 10e-7,0 10e-7,0 0.0028,-0.001 0.0055,-0.002 0.0083,-0.004 0.132096,-0.0612 0.17213,-0.13005 -0.02299,-0.22896 -0.04849,-0.0246 -0.103779,-0.0454 -0.164357,-0.0621 -0.0044,-9.7e-4 -0.0088,-0.002 -0.01317,-0.003 0,0 0,0 0,0 -0.493948,-0.12823 -1.1093,0.0111 -1.599531,0.23979 0.192061,-0.16281 0.396074,-0.30999 0.613832,-0.43782 0.246375,-0.0584 0.505217,-0.0996 0.777825,-0.12018 0.0037,-3.5e-4 0.0075,-6.8e-4 0.01118,-0.001 0.182986,-0.0116 0.371551,-0.008 0.561134,0.016 0,0 0.43674,-0.01 0.454229,-0.0403 0.03473,-0.0611 -0.30335,-0.2267 -0.30335,-0.2267 -0.09066,-0.0232 -0.181855,-0.0406 -0.273038,-0.053 0.165041,-0.0104 0.330138,0.001 0.49023,0.0401 0.001,3.7e-4 0.0021,7.4e-4 0.0031,0.001 0.0042,0.001 0.0084,0.002 0.01256,0.003 0.09874,0.0102 0.17568,0.0283 0.233643,0.0462 0,0 0,0 0,0 0,0 0.0011,3.5e-4 0.0011,3.5e-4 0,0 0,0 0,0 0.02354,0.007 0.04359,0.0145 0.06136,0.0217 0,0 2.22e-4,9e-5 2.22e-4,9e-5 0.06393,0.0259 0.05526,0.0426 -0.0397,0.0447 -0.08745,0.002 -0.171671,-0.01 -0.183742,-0.0232 z"
       inkscape:path-effect="#path-effect96"
       inkscape:original-d="m 64.760287,249.33052 c -0.256811,-0.007 -0.420875,0.814 -0.420875,0.814 l -0.067,1.04084 -0.263852,-0.52773 c 0,0 -0.398538,-0.32604 -0.580113,-0.22565 -0.194039,0.10729 -0.125401,0.65326 -0.125401,0.65326 l 0.877715,1.52443 -0.05327,0.82788 c -0.391258,-0.73772 -0.938,-1.5709 -1.613611,-1.84735 -1.274865,-0.52166 0.101985,1.9041 0.101985,1.9041 l 1.398332,1.70367 -0.04278,0.66462 c -0.640339,-0.93066 -1.544664,-1.93692 -2.418721,-1.69762 -1.130643,0.30955 1.070325,2.51049 2.293941,3.63636 l -0.0631,0.98058 h 1.026235 l 0.02533,-0.57026 c 0.636094,-0.55166 4.343549,-3.83446 2.94365,-4.21772 -1.103074,-0.302 -2.254363,1.37976 -2.862391,2.38981 l 0.0408,-0.91805 1.758412,-2.14244 c 0,0 1.376851,-2.42573 0.101986,-1.90406 -0.775489,0.31732 -1.38116,1.36815 -1.776837,2.16618 l 0.04603,-1.03566 0.94164,-1.63552 c 0,0 0.06864,-0.54597 -0.125399,-0.65325 -0.181577,-0.1004 -0.580115,0.22564 -0.580115,0.22564 l -0.158529,0.31709 0.03024,-0.68054 c -0.16135,-0.58928 -0.308891,-0.78952 -0.43431,-0.79261 z"
       transform="matrix(2.9868671,0,0,1.495579,-125.53592,-122.27986)" /><rect
       style="display:inline;fill:#ab07ff;fill-opacity:0;stroke-width:0.0836838"
       id="rect12"
       width="132.29167"
       height="285.31024"
       x="3.088379e-08"
       y="0"
       inkscape:label="frame"
       transform="translate(1.0583333,4.7625003)" /></g></svg>
