<?xml version="1.0" encoding="UTF-8" standalone="no"?>
<!-- Created with Inkscape (http://www.inkscape.org/) -->

<svg
   width="500.00003"
   height="1080.3535"
   viewBox="0 0 132.29168 285.84353"
   version="1.1"
   id="svg1"
   inkscape:version="1.4.2 (f4327f4, 2025-05-13)"
   sodipodi:docname="flor 2.svg"
   inkscape:export-batch-path="Planta"
   inkscape:export-batch-name=""
   xml:space="preserve"
   xmlns:inkscape="http://www.inkscape.org/namespaces/inkscape"
   xmlns:sodipodi="http://sodipodi.sourceforge.net/DTD/sodipodi-0.dtd"
   xmlns="http://www.w3.org/2000/svg"
   xmlns:svg="http://www.w3.org/2000/svg"><sodipodi:namedview
     id="namedview1"
     pagecolor="#acb3ef"
     bordercolor="#000000"
     borderopacity="0.25"
     inkscape:showpageshadow="2"
     inkscape:pageopacity="0.0"
     inkscape:pagecheckerboard="0"
     inkscape:deskcolor="#d1d1d1"
     inkscape:document-units="mm"
     inkscape:zoom="2.0000001"
     inkscape:cx="167.24999"
     inkscape:cy="528.74998"
     inkscape:window-width="1920"
     inkscape:window-height="1051"
     inkscape:window-x="1591"
     inkscape:window-y="-9"
     inkscape:window-maximized="1"
     inkscape:current-layer="g472"
     showguides="false"
     showgrid="false"><sodipodi:guide
       position="56.438934,150.4487"
       orientation="0,-1"
       id="guide224"
       inkscape:locked="false" /><inkscape:grid
       id="grid367"
       units="mm"
       originx="-3.0883791e-08"
       originy="0"
       spacingx="1"
       spacingy="1"
       empcolor="#0099e5"
       empopacity="0.30196078"
       color="#0099e5"
       opacity="0.14901961"
       empspacing="5"
       enabled="true"
       visible="false" /></sodipodi:namedview><defs
     id="defs1" /><g
     inkscape:groupmode="layer"
     id="g244"
     inkscape:label="21"
     style="display:inline"
     transform="translate(-1.0583333,-4.7625003)"><g
       id="g97"
       inkscape:label="caule"
       transform="matrix(1.0391206,-0.41320785,0.43392465,0.99786599,-125.52887,41.28458)"><path
         id="path93"
         style="display:inline;fill:#547a07;fill-opacity:1;stroke-width:0.079375"
         inkscape:label="caule"
         d="m 72.135091,262.93274 c -0.01486,-0.006 -0.03061,-0.0103 -0.04716,-0.0133 -0.06109,-0.011 -0.133687,-4e-5 -0.220503,0.0433 -0.463021,0.23151 -0.562069,4.33279 -0.56207,4.33279 0,0 0.09059,-0.28279 -0.08956,3.58592 -0.1156,2.48257 0.142552,3.38629 -0.155433,7.86422 l 0.854345,0.35378 c 0.148626,-3.56595 0.143287,-6.30013 0.239167,-8.5411 0.180215,-4.2121 0.143497,-5.14775 0.143497,-5.14775 l 0.09927,-1.9848 c 0,0 -0.0386,-0.40333 -0.261563,-0.49309 z" /><path
         id="path94"
         style="display:inline;opacity:0.0759837;fill:#ffffff;fill-opacity:1;stroke-width:0.079375"
         inkscape:label="L1"
         d="m 72.098641,262.92162 c -0.01722,-0.004 -0.035,-0.006 -0.05421,-0.006 l -1.12e-4,5e-4 c -0.05129,-2.9e-4 -0.110132,0.0134 -0.176964,0.0468 -0.26207,0.13104 -0.407466,1.5015 -0.484418,2.66655 0.188947,-0.8478 0.182107,-2.41458 0.687039,-2.51246 l 0.265976,0.0585 c -0.04359,-0.11264 -0.116729,-0.22649 -0.237307,-0.2538 z" /><path
         id="path97"
         style="display:inline;opacity:0.0610583;fill:#ffffff;fill-opacity:1;stroke-width:0.0893887"
         inkscape:label="l2"
         d="m 66.819169,279.83238 0.945398,2.7442 c 0,0 1.297005,2.56331 2.538637,5.06798 l 0.315829,-0.0429 c -1.499424,-3.18215 -2.783548,-5.66627 -3.799864,-7.76931 z"
         transform="matrix(0.78687102,0.41150305,-0.41150305,0.78687102,134.69669,23.714858)" /></g><g
       id="g102"
       inkscape:label="Dir"
       transform="matrix(1.7127311,0.6389338,-0.78128876,1.4006624,170.98959,-143.69008)"><path
         id="path98"
         style="opacity:1;fill:#577d07;fill-opacity:1;stroke-width:0.0893888"
         inkscape:label="Dir"
         d="m 73.375366,264.23452 c -6.783644,-0.3041 -8.014068,4.00208 -10.512792,8.69245 l 0.644661,1.6542 c 0.01274,-0.002 0.02585,-0.003 0.03979,-0.005 0.0063,-0.4122 0.04835,-0.85113 0.139009,-1.31259 0.579479,-2.94941 1.962766,-2.67604 2.573486,-2.82308 0.610706,-0.14707 20.494072,-2.73448 10.391097,-5.79603 -1.221487,-0.23315 -2.30616,-0.36635 -3.275252,-0.40979 z"
         sodipodi:nodetypes="ccccssccc" /><path
         id="path100"
         style="opacity:0.0705563;fill:#ffffff;fill-opacity:1;stroke-width:0.0893888"
         d="m 69.449507,264.77267 c -2.930147,1.01623 -4.165766,3.35365 -5.535889,6.12044 1.582183,-2.55452 4.996808,-6.93406 12.681143,-6.25975 -3.086294,-0.58251 -5.387254,-0.47071 -7.145254,0.13931 z"
         sodipodi:nodetypes="sccs" /><path
         id="path101"
         style="opacity:0.0705563;fill:#000000;fill-opacity:1;stroke-width:0.0893888"
         d="m 64.808927,270.71163 c -0.48986,0.15571 -0.630768,0.53803 -0.772722,0.94795 -0.314568,0.9083 -0.48158,2.55692 -0.48158,2.55692 0,0 0.183081,-1.72518 0.557946,-2.37227 0.329289,-0.56841 0.569012,-0.96926 1.209077,-1.23101 -0.151748,0.0323 -0.349431,0.0468 -0.512725,0.0984 z"
         sodipodi:nodetypes="sscscs" /></g><g
       id="g118"
       transform="matrix(2.2675443,0.14949257,-0.21085517,1.5550555,-18.691543,-153.37538)"
       inkscape:label="Esq"><path
         style="opacity:1;fill:#577d07;fill-opacity:1;stroke-width:0.109059"
         d="m 62.27436,272.36841 c -0.192436,-0.41415 -8.401305,-6.64126 -13.646118,0.92043 -1.796604,2.59024 -0.0096,3.80852 1.836714,2.77372 1.844382,-1.0337 4.90439,-3.21555 5.464126,-3.50067 0.559748,-0.28506 4.273386,-2.55125 7.294016,2.56621"
         id="path109"
         sodipodi:nodetypes="csszc"
         inkscape:label="Esq" /><path
         id="path117"
         style="opacity:0.0705563;fill:#000000;fill-opacity:1;stroke-width:0.0893888"
         d="m 57.228346,271.87957 c -0.915783,0.31436 -1.702832,0.84241 -2.293134,1.31237 0.475782,-0.31622 0.835327,-0.54899 0.993979,-0.6298 0.559746,-0.28511 4.273535,-2.55144 7.294163,2.56602 l -0.58169,-1.69234 c -0.03708,-0.0374 -0.04464,-0.0504 -0.08258,-0.0883 -1.921428,-1.92173 -3.804475,-1.99185 -5.330772,-1.46792 z" /><path
         id="path118"
         style="opacity:0.0705563;fill:#ffffff;fill-opacity:1;stroke-width:0.0893888"
         d="m 52.560677,270.02961 c -1.378247,0.52139 -2.733064,1.52981 -3.932588,3.2592 -0.438789,0.63262 -0.66389,1.18364 -0.726497,1.63976 1.467517,-2.52062 5.029981,-6.22824 12.700719,-3.76923 -1.862671,-1.06779 -5.009494,-2.27682 -8.041634,-1.12973 z" /></g><path
       id="path119"
       style="display:inline;opacity:1;fill:#5c8507;fill-opacity:1;stroke-width:0.00453531"
       d="m 66.124261,252.35212 c 0.07733,0.009 0.136647,0.0419 0.151952,0.10443 0.0081,0.033 -0.002,0.0685 -0.02962,0.10844 -0.129822,0.25842 -0.713396,0.69773 -1.052253,1.18976 0.185669,-0.16911 0.405554,-0.3254 0.660511,-0.46247 0.219606,-0.19417 0.466169,-0.36317 0.732704,-0.50993 0.111821,-0.0441 0.218865,-0.0796 0.321087,-0.10768 0.09123,-0.0201 0.171453,-0.036 0.240303,-0.0477 0,0 0.386942,0.0637 0.537282,0.17564 0.154553,0.11508 0.105661,0.13966 0.105661,0.13966 -0.08681,-0.0238 -0.202978,-0.0327 -0.348272,-0.027 0.309134,0.0439 0.542381,0.14162 0.683464,0.30481 0.01689,0.0208 0.03219,0.0428 0.04578,0.0657 0,0 0.0096,0.0145 0.02334,0.0407 0.0024,0.002 0.0047,0.005 0.0072,0.007 l 0.0033,0.0562 c -0.05191,-0.0355 -0.1101,-0.0668 -0.174136,-0.0939 0.06327,0.0349 0.121825,0.0731 0.175418,0.11468 l 7.7e-4,0.0135 0.108097,0.0897 c 9e-5,1.1e-4 3.8e-5,1.4e-4 1.28e-4,2.5e-4 0.01736,0.021 0.03976,0.0489 0.06283,0.0789 l 1.28e-4,2.5e-4 0.03744,0.0999 c -6e-6,7e-5 7e-6,1.7e-4 0,2.4e-4 -0.0014,0.0151 -0.0069,0.0294 -0.01859,0.0432 l -0.0097,-0.001 c -0.125108,-0.069 -0.312111,-0.17714 -0.312111,-0.17714 -0.153973,-0.082 -0.332612,-0.14642 -0.537796,-0.19363 -0.145917,-0.0213 -0.29566,-0.0317 -0.448803,-0.0305 -0.347464,0.0314 -0.670163,0.0976 -0.959158,0.18613 -0.330979,0.16857 -0.606204,0.37156 -0.826312,0.59513 0.482562,-0.33586 1.231489,-0.5933 1.903954,-0.52242 0.190817,0.0311 0.335192,0.0902 0.421875,0.1569 7.85e-4,7e-4 0.0017,0.001 0.0024,0.002 0.115887,0.10418 0.08003,0.16036 -0.006,0.18438 -0.07479,0.0224 -0.19163,0.0319 -0.33532,0.049 -0.567086,0.0976 -1.430787,0.46796 -1.430787,0.46796 -0.25022,0.10124 -0.473498,0.22579 -0.658331,0.36153 -0.282308,0.17564 -0.545299,0.3662 -0.792202,0.5554 -0.126214,0.21037 -0.246462,0.42546 -0.362377,0.64335 0.369359,-0.39255 0.905759,-0.8881 1.335896,-0.97114 0.169254,-0.042 0.297096,0.005 0.330191,0.15815 0.01377,0.0639 0.0016,0.13015 -0.03065,0.19913 -0.121032,0.25642 -0.753442,0.779 -1.187919,1.13804 -0.562047,0.46446 -0.871125,0.66817 -1.10021,0.79725 -0.164114,0.34937 -0.0299,0.0636 -0.194012,0.413 -0.07918,-0.12451 -0.155757,-0.2556 -0.229915,-0.39326 0.114042,-0.22577 0.228343,-0.45433 0.344681,-0.68307 0.06191,-0.64464 0.172888,-1.51661 0.346605,-2.19814 0.171474,-0.67273 0.395303,-1.09637 0.582034,-1.03785 0.0064,0.002 0.01278,0.005 0.01911,0.008 0.06551,0.033 0.09991,0.10104 0.112714,0.20262 0.03713,0.30333 -0.163056,1.02904 -0.333269,1.68246 0.0889,-0.14995 0.180278,-0.29802 0.274796,-0.44347 0.08081,-0.31834 0.169719,-0.62899 0.266974,-0.92118 0.06244,-0.21285 0.14411,-0.41011 0.23761,-0.59688 0,0 0.613696,-0.81159 1.041353,-0.98139 0.08741,-0.0292 0.182846,-0.0427 0.260178,-0.0332 z"
       transform="matrix(-4.0299913,0,0,2.0683404,317.87034,-263.42064)" /><g
       id="g208"
       inkscape:label="caulao"><path
         style="opacity:1;fill:#547a07;fill-opacity:1;stroke-width:0.079375"
         d="m 62.38563,267.76659 3.255681,22.83945 3.745667,-0.45732 -4.416931,-16.80259 z"
         id="path129"
         sodipodi:nodetypes="ccccc" /><path
         id="path154"
         style="opacity:0.0949797;fill:#000000;fill-opacity:1;stroke-width:0.079375"
         d="m 62.37084,267.79369 3.270472,22.76558 0.954098,-0.21395 -3.182835,-21.03308 z"
         sodipodi:nodetypes="ccccc" /><path
         id="path207"
         style="display:inline;opacity:1;fill:#547a07;fill-opacity:1;stroke-width:0.079375"
         inkscape:label="brotinho"
         d="m 67.893499,276.6676 c 0.189652,0.95184 0.291265,1.31479 0.485572,1.94216 0.376123,1.16497 0.439703,2.02686 0.439703,2.02686 l -1.075531,-2.41752 -0.255595,-1.12566 -0.243292,-1.9418 -0.187562,-1.46508 0.424461,-0.14534 0.03712,0.39693 0.07995,0.84582 0.136768,1.08958 z"
         sodipodi:nodetypes="cccscccccccc"
         transform="matrix(3.557361,0.39157563,-0.39157563,3.557361,-69.654402,-748.49096)" /></g><g
       id="g227"
       inkscape:label="Pontinha"
       style="display:inline"
       transform="matrix(3.3454753,0.48793875,-0.36825237,4.4327944,-61.930223,-1003.5487)"><path
         id="path219"
         style="opacity:1;fill:#5c8507;fill-opacity:1;stroke-width:0.0664134"
         inkscape:label="oi"
         d="m 67.394007,274.05321 c -0.330006,0.0346 -0.42768,0.41082 -0.436716,0.44366 -0.142628,0.5181 0.192246,0.84595 0.381066,1.4149 0.32413,-0.0999 0.06714,-0.022 0.43825,-0.14113 0.113334,-0.74783 0.208273,-1.06477 -0.0686,-1.51105 -0.05934,-0.0956 -0.252889,-0.21236 -0.314002,-0.20596 z"
         sodipodi:nodetypes="scccass" /><path
         id="path222"
         style="display:inline;opacity:0.0257802;fill:#000000;fill-opacity:1;stroke-width:0.079375"
         d="m 64.078776,254.30437 c -1.219663,0.0559 -1.661914,2.42415 -1.661914,2.42415 -0.285297,-1.1536 -1.114731,-1.80928 -1.511536,-2.06499 -0.386553,1.56523 0.536406,2.81401 0.946713,4.73149 1.192165,-0.22846 0.297361,0.13552 1.664155,-0.14281 -0.06539,-2.85798 1.015883,-3.53913 0.562579,-4.94784 z"
         transform="matrix(0.27774201,-0.03057238,0.03057238,0.27774201,42.229104,205.75788)"
         sodipodi:nodetypes="sccccss" /><path
         id="path227"
         style="opacity:0.036635;fill:#ffffff;fill-opacity:1;stroke-width:0.0664134"
         inkscape:label="oi"
         d="m 67.394072,274.05324 c -0.150128,0.0157 -0.252291,0.1022 -0.319782,0.19485 0.143862,-0.0495 0.390049,-0.0895 0.663645,0.06 -0.0094,-0.016 -0.01936,-0.0322 -0.0299,-0.0486 -0.06763,-0.10533 -0.25295,-0.21224 -0.314063,-0.20584 z" /></g><g
       id="g228"
       inkscape:label="brotinho"
       transform="matrix(3.5573611,0.39157563,-0.39157563,3.5573611,-69.654401,-748.49097)"
       style="display:inline" /><path
       id="path244"
       style="opacity:1;fill:#547a07;fill-opacity:1;stroke-width:0.00453531"
       d="m 65.998955,252.54585 c -0.320671,0.024 -1.016499,0.92977 -1.016499,0.92977 -0.201001,0.43855 -0.372002,0.92042 -0.519151,1.4314 -0.103013,0.12782 -0.202259,0.25953 -0.298245,0.39437 0.243652,-0.83272 0.530245,-1.68883 0.216933,-1.8744 -0.499193,-0.29566 -0.868772,1.84036 -0.985115,3.10759 -0.11936,0.21273 -0.234524,0.42577 -0.347154,0.63613 0.07915,0.12771 0.158517,0.2551 0.238127,0.38196 0.0646,-0.12422 0.130068,-0.24936 0.196758,-0.37484 0.219322,-0.0902 0.696657,-0.30439 1.332982,-0.63755 0.575998,-0.30157 1.173681,-0.62396 1.111973,-0.95501 -0.118596,-0.63625 -1.245067,-0.0164 -1.756964,0.39662 0.12463,-0.19497 0.25485,-0.38551 0.391886,-0.56918 0.449017,-0.22712 0.937548,-0.42008 1.477977,-0.5411 0,0 0.902554,-0.25955 1.252486,-0.42002 0.0028,-0.001 0.0055,-0.002 0.0083,-0.004 0.132097,-0.0612 0.172092,-0.13002 -0.02303,-0.22893 -0.04849,-0.0246 -0.103777,-0.0454 -0.164355,-0.0621 -0.0044,-9.7e-4 -0.0087,-0.002 -0.01315,-0.003 -0.493948,-0.12823 -1.109306,0.0111 -1.599537,0.23972 0.192061,-0.1628 0.396054,-0.3099 0.613811,-0.43772 0.246375,-0.0584 0.505254,-0.0997 0.777862,-0.12027 0.0037,-3.4e-4 0.0075,-6.9e-4 0.01121,-10e-4 0.182986,-0.0116 0.371549,-0.008 0.561132,0.0161 0,0 0.436757,-0.01 0.454245,-0.0403 0.03473,-0.0611 -0.303441,-0.2267 -0.303441,-0.2267 -0.09066,-0.0232 -0.181792,-0.0408 -0.272975,-0.0531 0.165041,-0.0104 0.330122,0.001 0.490214,0.0401 0.001,3.7e-4 0.002,8.5e-4 0.0031,0.001 0.0042,0.001 0.0085,0.002 0.01263,0.003 0.06775,0.007 0.12519,0.0177 0.173323,0.0295 h 1.02e-4 l 0.0035,-2e-4 c 3.5e-5,-2e-5 6.8e-5,1e-5 1.02e-4,0 0.01311,-0.007 0.02541,-0.0137 0.03556,-0.0212 0.05823,-0.0427 0.02281,-0.0821 -0.04422,-0.13105 l -3.06e-4,-2e-4 c -0.02698,-0.0196 -0.05485,-0.0377 -0.08345,-0.0547 l -0.0014,-8.2e-4 c -0.142104,-0.0843 -0.273804,-0.124 -0.301709,-0.13247 -0.0014,-6.2e-4 -0.0021,-8.2e-4 -0.0021,-8.2e-4 -3.94e-4,-1.4e-4 -7.26e-4,-2.6e-4 -0.0011,-4e-4 -0.254404,-0.0635 -0.521201,-0.0587 -0.780408,-0.007 0.107804,-0.0618 0.217325,-0.11161 0.326062,-0.14672 0,0 0.139562,-0.1362 0.02405,-0.20532 -0.140833,-0.0843 -0.512325,-0.0116 -0.512325,-0.0116 -0.09397,0.0562 -0.186972,0.12231 -0.277051,0.19657 -0.0027,0.002 -0.0054,0.004 -0.008,0.006 -0.192598,0.1648 -0.370734,0.35253 -0.535862,0.55962 -0.173669,0.10181 -0.338607,0.21562 -0.495818,0.33984 0.299689,-0.46341 0.738014,-1.00896 0.760132,-1.27694 6.02e-4,-0.007 10e-4,-0.0144 0.0012,-0.0212 5.58e-4,-0.005 9.2e-4,-0.009 0.0012,-0.014 -8.44e-4,-0.0814 -0.03513,-0.12278 -0.09191,-0.1337 -0.0038,-6.2e-4 -0.0077,-0.001 -0.01162,-0.001 -0.0095,-0.001 -0.01941,-0.001 -0.02975,-6.1e-4 z"
       transform="matrix(5.0715695,0,0,2.5394275,-257.50491,-384.47347)" /><rect
       style="display:inline;fill:#ab07ff;fill-opacity:0;stroke-width:0.0836838"
       id="rect244"
       width="132.29167"
       height="285.31024"
       x="3.088379e-08"
       y="0"
       inkscape:label="frame"
       transform="translate(1.0583333,4.7625003)" /></g></svg>
