<?xml version="1.0" encoding="UTF-8" standalone="no"?>
<!-- Created with Inkscape (http://www.inkscape.org/) -->

<svg
   width="500.00003"
   height="1080.3535"
   viewBox="0 0 132.29168 285.84353"
   version="1.1"
   id="svg1"
   inkscape:version="1.4.2 (f4327f4, 2025-05-13)"
   sodipodi:docname="flor 2.svg"
   inkscape:export-batch-path="Planta"
   inkscape:export-batch-name=""
   xml:space="preserve"
   xmlns:inkscape="http://www.inkscape.org/namespaces/inkscape"
   xmlns:sodipodi="http://sodipodi.sourceforge.net/DTD/sodipodi-0.dtd"
   xmlns="http://www.w3.org/2000/svg"
   xmlns:svg="http://www.w3.org/2000/svg"><sodipodi:namedview
     id="namedview1"
     pagecolor="#acb3ef"
     bordercolor="#000000"
     borderopacity="0.25"
     inkscape:showpageshadow="2"
     inkscape:pageopacity="0.0"
     inkscape:pagecheckerboard="0"
     inkscape:deskcolor="#d1d1d1"
     inkscape:document-units="mm"
     inkscape:zoom="2.0000001"
     inkscape:cx="167.24999"
     inkscape:cy="528.74998"
     inkscape:window-width="1920"
     inkscape:window-height="1051"
     inkscape:window-x="1591"
     inkscape:window-y="-9"
     inkscape:window-maximized="1"
     inkscape:current-layer="g472"
     showguides="false"
     showgrid="false"><sodipodi:guide
       position="56.438934,150.4487"
       orientation="0,-1"
       id="guide224"
       inkscape:locked="false" /><inkscape:grid
       id="grid367"
       units="mm"
       originx="-3.0883791e-08"
       originy="0"
       spacingx="1"
       spacingy="1"
       empcolor="#0099e5"
       empopacity="0.30196078"
       color="#0099e5"
       opacity="0.14901961"
       empspacing="5"
       enabled="true"
       visible="false" /></sodipodi:namedview><defs
     id="defs1" /><g
     inkscape:groupmode="layer"
     id="g346"
     inkscape:label="24"
     style="display:inline"
     transform="translate(-1.0583333,-4.7625003)"><g
       id="g325"
       inkscape:label="caule"
       transform="matrix(1.0391206,-0.41320785,0.43392465,0.99786599,-125.52887,41.28458)"><path
         id="path323"
         style="display:inline;fill:#547a07;fill-opacity:1;stroke-width:0.079375"
         inkscape:label="caule"
         d="m 72.135091,262.93274 c -0.01486,-0.006 -0.03061,-0.0103 -0.04716,-0.0133 -0.06109,-0.011 -0.133687,-4e-5 -0.220503,0.0433 -0.463021,0.23151 -0.562069,4.33279 -0.56207,4.33279 0,0 0.09059,-0.28279 -0.08956,3.58592 -0.1156,2.48257 0.142552,3.38629 -0.155433,7.86422 l 0.854345,0.35378 c 0.148626,-3.56595 0.143287,-6.30013 0.239167,-8.5411 0.180215,-4.2121 0.143497,-5.14775 0.143497,-5.14775 l 0.09927,-1.9848 c 0,0 -0.0386,-0.40333 -0.261563,-0.49309 z" /><path
         id="path324"
         style="display:inline;opacity:0.0759837;fill:#ffffff;fill-opacity:1;stroke-width:0.079375"
         inkscape:label="L1"
         d="m 72.098641,262.92162 c -0.01722,-0.004 -0.035,-0.006 -0.05421,-0.006 l -1.12e-4,5e-4 c -0.05129,-2.9e-4 -0.110132,0.0134 -0.176964,0.0468 -0.26207,0.13104 -0.407466,1.5015 -0.484418,2.66655 0.188947,-0.8478 0.182107,-2.41458 0.687039,-2.51246 l 0.265976,0.0585 c -0.04359,-0.11264 -0.116729,-0.22649 -0.237307,-0.2538 z" /><path
         id="path325"
         style="display:inline;opacity:0.0610583;fill:#ffffff;fill-opacity:1;stroke-width:0.0893887"
         inkscape:label="l2"
         d="m 66.819169,279.83238 0.945398,2.7442 c 0,0 1.297005,2.56331 2.538637,5.06798 l 0.315829,-0.0429 c -1.499424,-3.18215 -2.783548,-5.66627 -3.799864,-7.76931 z"
         transform="matrix(0.78687102,0.41150305,-0.41150305,0.78687102,134.69669,23.714858)" /></g><g
       id="g328"
       inkscape:label="Dir"
       transform="matrix(1.4786673,0.54666199,-0.67451693,1.1983853,156.5368,-83.741229)"><path
         id="path326"
         style="opacity:1;fill:#577d07;fill-opacity:1;stroke-width:0.0893888"
         inkscape:label="Dir"
         d="m 73.375366,264.23452 c -6.783644,-0.3041 -8.014068,4.00208 -10.512792,8.69245 l 0.644661,1.6542 c 0.01274,-0.002 0.02585,-0.003 0.03979,-0.005 0.0063,-0.4122 0.04835,-0.85113 0.139009,-1.31259 0.579479,-2.94941 1.962766,-2.67604 2.573486,-2.82308 0.610706,-0.14707 20.494072,-2.73448 10.391097,-5.79603 -1.221487,-0.23315 -2.30616,-0.36635 -3.275252,-0.40979 z"
         sodipodi:nodetypes="ccccssccc" /><path
         id="path327"
         style="opacity:0.0705563;fill:#ffffff;fill-opacity:1;stroke-width:0.0893888"
         d="m 69.449507,264.77267 c -2.930147,1.01623 -4.165766,3.35365 -5.535889,6.12044 1.582183,-2.55452 4.996808,-6.93406 12.681143,-6.25975 -3.086294,-0.58251 -5.387254,-0.47071 -7.145254,0.13931 z"
         sodipodi:nodetypes="sccs" /><path
         id="path328"
         style="opacity:0.0705563;fill:#000000;fill-opacity:1;stroke-width:0.0893888"
         d="m 64.808927,270.71163 c -0.48986,0.15571 -0.630768,0.53803 -0.772722,0.94795 -0.314568,0.9083 -0.48158,2.55692 -0.48158,2.55692 0,0 0.183081,-1.72518 0.557946,-2.37227 0.329289,-0.56841 0.569012,-0.96926 1.209077,-1.23101 -0.151748,0.0323 -0.349431,0.0468 -0.512725,0.0984 z"
         sodipodi:nodetypes="sscscs" /></g><g
       id="g331"
       inkscape:label="esq2"
       transform="matrix(-0.7047143,0,0,0.71771139,109.23542,77.195236)"
       style="display:inline"><path
         id="path329"
         style="display:inline;opacity:1;fill:#618e06;fill-opacity:1;stroke-width:0.0136979"
         d="m 78.547358,265.02731 c -1.063242,-0.0207 -2.839739,0.64307 -4.529339,1.28992 -0.479442,0.1798 -0.94788,0.35286 -1.453562,0.52594 -0.628968,0.19395 -1.224085,0.38671 -1.795245,0.58719 -4.349572,-0.25078 -6.80619,1.93764 -6.80619,1.93764 l 0.344806,1.4798 c -0.01004,0.009 -0.01997,0.0176 -0.02998,0.0263 l 0.08183,0.27797 c 0.0049,-0.005 0.01005,-0.0108 0.01499,-0.0163 l 0.07433,0.31859 0.01312,0.045 -0.0025,0.002 0.183023,0.78457 2.283097,-2.50423 h 6.24e-4 c 0.339501,0.0651 0.679237,0.23639 0.985699,0.57469 0.07741,0.19922 0.120315,0.40204 0.142421,0.61028 0.143831,1.13426 -0.360646,2.55473 2.034485,2.15004 2.846436,-0.48093 3.237327,-2.41067 2.003878,-3.54676 0.529104,0.0857 1.044554,0.19018 1.544761,0.30795 0.432025,0.75272 0.536226,1.61622 0.402899,2.51798 -0.01515,0.1502 -0.03478,0.30132 -0.05934,0.45349 0,0 0.03728,0.17702 0.103692,0.44287 0.16678,0.44378 0.510281,1.46641 0.861392,1.92516 0.387243,0.506 1.143873,0.84535 2.303711,0.0594 1.396322,-0.94627 1.17185,-2.39197 0.351677,-3.68857 -0.05183,-0.10411 -0.107213,-0.20635 -0.165532,-0.30544 0.0197,0.007 0.410057,0.13712 0.429759,0.14366 0.482634,0.18807 0.963027,0.3776 1.44107,0.5678 0.598151,1.03083 0.990099,2.05998 1.17122,3.0939 0,0 0.07956,0.0715 0.210507,0.16929 0.300522,0.22323 0.89229,0.60384 1.433573,0.54093 0.774465,-0.09 1.146232,-1.03067 1.146232,-1.03067 -0.08266,-0.19869 -0.170692,-0.39665 -0.264227,-0.59279 -0.0035,-0.007 -0.0071,-0.0144 -0.01062,-0.0219 l 0.02374,0.015 c 0.459053,0.29384 0.915897,0.59409 1.369857,0.90074 0.280259,0.0911 0.537956,0.16886 0.774568,0.23486 0.32127,0.0854 0.603796,0.15117 0.852647,0.19803 0.0903,0.017 0.176403,0.0317 0.257356,0.0437 0.57038,0.0837 0.686389,-0.0414 0.896998,-0.15743 0.01117,-0.006 0.02209,-0.0121 0.03311,-0.0181 0.23846,-0.12967 0.343444,-0.18144 0.214255,-0.4791 -0.02147,-0.0493 -0.04733,-0.0994 -0.07621,-0.1493 -0.09931,-0.17145 -0.234868,-0.34056 -0.368544,-0.48661 -0.247954,-0.27043 -0.490976,-0.46911 -0.490976,-0.46911 -0.477421,-0.2918 -0.957551,-0.57796 -1.439818,-0.85825 -0.290946,-0.16975 -0.584393,-0.3393 -0.881383,-0.50849 0.450177,0.0584 0.901065,0.11378 1.353619,0.16554 0.155133,0.0179 0.310694,0.0357 0.466612,0.0531 0,0 1.630936,-0.25266 1.724036,-0.70273 0.0471,-0.2277 -0.31028,-0.46313 -0.680244,-0.64088 -0.380067,-0.18304 -0.777065,-0.30858 -0.777065,-0.30858 -1.766134,-0.0642 -3.492328,-0.19393 -5.233947,-0.36667 -0.36312,-0.23328 -0.733032,-0.46541 -1.110003,-0.69587 -0.130495,-0.0718 -0.261327,-0.14235 -0.392905,-0.21237 0.207679,8.7e-4 0.419414,-2.4e-4 0.634021,-0.004 2.200527,0.18558 4.567876,0.12484 5.939174,-0.64402 2.380422,-1.33465 -1.88132,-1.5824 -3.960908,-1.70842 -0.845846,0.0509 -1.450437,0.11306 -1.450437,0.11306 -0.0869,0.018 -0.173545,0.036 -0.259854,0.0537 -1.324961,0.26862 -2.538856,0.47702 -3.866586,0.66714 -0.391481,-0.12894 -0.831396,-0.24617 -1.299273,-0.34231 2.258499,-0.38184 4.605059,-1.13237 4.234504,-2.30059 -0.113586,-0.35809 -0.44931,-0.50904 -0.932603,-0.51847 z"
         inkscape:label="esq"
         sodipodi:nodetypes="cccccccccccccccccscccccscccccccsccccccscccccccccccsccccccscccccscc" /><path
         id="path330"
         style="display:inline;opacity:0.0569878;fill:#000000;fill-opacity:1;stroke-width:0.079375"
         d="m 53.881978,267.40797 c -0.340583,0.007 -0.577278,0.11507 -0.657324,0.37207 -0.261135,0.83845 1.392717,1.37701 2.984314,1.65106 -0.255999,0.0536 -0.500048,0.11633 -0.725537,0.18501 l 0.0041,0.002 c 0,0 1.157552,1.44487 -0.777214,2.27996 l -0.08423,0.0698 c -1.11e-4,2.1e-4 -4.06e-4,3.2e-4 -5.17e-4,5.2e-4 -0.02678,0.0489 -0.05237,0.099 -0.077,0.14934 -0.577987,0.93059 -0.736478,1.96824 0.24753,2.64739 0.817355,0.56408 1.350778,0.32027 1.623674,-0.0429 0.247433,-0.32925 0.489666,-1.06281 0.607198,-1.38131 0.0468,-0.19081 0.07286,-0.31833 0.07286,-0.31833 -0.01731,-0.10921 -0.03118,-0.21725 -0.04186,-0.32505 -0.09396,-0.6472 -0.02075,-1.26688 0.283703,-1.80712 0.352503,-0.0845 0.715956,-0.15967 1.088823,-0.22118 -0.869229,0.81539 -0.593608,2.20042 1.412317,2.54559 1.687883,0.29045 1.332144,-0.72899 1.433504,-1.54306 0.01558,-0.14946 0.0457,-0.29524 0.100252,-0.43822 0.215968,-0.2428 0.455797,-0.36565 0.695048,-0.41238 l 1.609204,1.79731 0.129191,-0.56327 -0.0021,-0.002 0.0093,-0.032 0.05219,-0.22841 c 0.0035,0.004 0.0074,0.008 0.01085,0.0114 l 0.05736,-0.19948 c -0.0071,-0.006 -0.01359,-0.0121 -0.02067,-0.0186 l 0.24288,-1.06247 c 0,0 -1.731401,-1.5706 -4.796607,-1.39061 -0.402504,-0.14389 -0.821796,-0.28196 -1.265039,-0.42116 -0.356361,-0.12422 -0.686357,-0.24871 -1.024227,-0.37776 -1.190685,-0.46425 -2.442771,-0.94038 -3.192053,-0.92552 z m -1.029394,6.03478 -1.754932,1.45934 0.409794,0.23978 c 0.338176,-0.0243 0.680318,-0.25104 0.86558,-0.39119 0.09228,-0.0702 0.148312,-0.12144 0.148312,-0.12144 0.06815,-0.39624 0.178865,-0.79151 0.331246,-1.18649 z"
         transform="matrix(-1.4190148,0,0,1.3933177,155.00667,-107.55749)" /><path
         id="path331"
         style="opacity:0.0569878;fill:#ffffff;fill-opacity:1;stroke-width:0.11161"
         d="m 82.121431,267.35386 c 2.079588,0.12602 6.341688,0.37395 3.961266,1.7086 -1.371298,0.76886 -3.739172,0.82928 -5.939699,0.6437 -0.214607,0.004 -0.425889,0.005 -0.633568,0.004 0.131578,0.07 0.262552,0.1406 0.393047,0.2124 0.376971,0.23046 0.746357,0.46226 1.109477,0.69554 1.741619,0.17274 3.468134,0.30301 5.234268,0.36721 0,0 0.397227,0.12513 0.777294,0.30817 0.369964,0.17775 0.726866,0.41311 0.679766,0.64081 -0.0931,0.45007 -1.723979,0.70274 -1.723979,0.70274 -0.155918,-0.0174 -0.311244,-0.0347 -0.466377,-0.0526 -0.452554,-0.0518 -0.903488,-0.10721 -1.353665,-0.16561 0.29699,0.16919 0.590476,0.33859 0.881422,0.50834 0.482267,0.28029 0.96204,0.56646 1.439461,0.85826 0,0 0.243354,0.1983 0.491308,0.46873 0.133676,0.14605 0.269538,0.31528 0.368848,0.48673 0.02888,0.0499 0.05406,0.10046 0.07553,0.14976 0.129189,0.29766 0.02434,0.34914 -0.214123,0.47881 -0.01102,0.006 -0.02183,0.012 -0.033,0.018 -0.03956,0.0218 -0.07567,0.0438 -0.112194,0.0648 -0.08951,0.0356 -0.175295,0.0702 -0.255921,0.10225 -0.121043,0.0242 -0.282469,0.0268 -0.528706,-0.009 -0.08095,-0.012 -0.167087,-0.0269 -0.257387,-0.0439 -0.03386,-0.006 -0.06828,-0.0131 -0.103395,-0.0202 l -0.833758,-1.22835 c 0,0 -0.663978,-0.87986 -0.863089,-0.87986 -0.199111,0 -0.696632,-1.33564 -0.696632,-1.33564 0,0 3.218697,0.13023 2.521806,-0.35856 -0.696887,-0.48879 -4.745893,-0.39097 -4.745893,-0.39097 l -3.118709,-2.05277 c 0,0 9.357776,0.29352 7.632147,-0.68402 -1.223285,-0.69294 -5.164899,-0.69858 -7.403359,-0.65449 0.660222,-0.11297 1.319114,-0.23624 2.007765,-0.37585 0.08631,-0.0177 0.172687,-0.036 0.259587,-0.054 0,0 0.604614,-0.0621 1.45046,-0.11305 z" /></g><g
       id="g334"
       transform="matrix(2.1986102,0.11158325,-0.2044451,1.1607142,-16.096889,-44.997771)"
       inkscape:label="Esq"><path
         style="opacity:1;fill:#577d07;fill-opacity:1;stroke-width:0.109059"
         d="m 62.27436,272.36841 c -0.192436,-0.41415 -8.401305,-6.64126 -13.646118,0.92043 -1.796604,2.59024 -0.0096,3.80852 1.836714,2.77372 1.844382,-1.0337 4.90439,-3.21555 5.464126,-3.50067 0.559748,-0.28506 4.273386,-2.55125 7.294016,2.56621"
         id="path332"
         sodipodi:nodetypes="csszc"
         inkscape:label="Esq" /><path
         id="path333"
         style="opacity:0.0705563;fill:#000000;fill-opacity:1;stroke-width:0.0893888"
         d="m 57.228346,271.87957 c -0.915783,0.31436 -1.702832,0.84241 -2.293134,1.31237 0.475782,-0.31622 0.835327,-0.54899 0.993979,-0.6298 0.559746,-0.28511 4.273535,-2.55144 7.294163,2.56602 l -0.58169,-1.69234 c -0.03708,-0.0374 -0.04464,-0.0504 -0.08258,-0.0883 -1.921428,-1.92173 -3.804475,-1.99185 -5.330772,-1.46792 z" /><path
         id="path334"
         style="opacity:0.0705563;fill:#ffffff;fill-opacity:1;stroke-width:0.0893888"
         d="m 52.560677,270.02961 c -1.378247,0.52139 -2.733064,1.52981 -3.932588,3.2592 -0.438789,0.63262 -0.66389,1.18364 -0.726497,1.63976 1.467517,-2.52062 5.029981,-6.22824 12.700719,-3.76923 -1.862671,-1.06779 -5.009494,-2.27682 -8.041634,-1.12973 z" /></g><path
       id="path335"
       style="display:inline;opacity:0.0569878;fill:#ffffff;fill-opacity:1;stroke-width:0.079375"
       d="m 70.452547,269.0735 c -3.116195,-0.14032 -3.469071,0.13896 -3.469071,0.13896 l -1.099642,1.71209 1.041797,-1.14308 h 5.16e-4 c 0.137499,0.0264 0.275479,0.0702 0.410828,0.13539 1.401268,-0.58387 3.072115,-0.6065 4.797123,-0.30799 -0.01352,-0.013 -0.02741,-0.0259 -0.04134,-0.0388 0.529104,0.0857 1.044402,0.19022 1.544609,0.30799 0.0144,0.0251 0.0287,0.0501 0.04237,0.0754 1.294091,0.34872 2.582627,0.83624 3.776514,1.36374 -0.0067,-0.0115 -0.01341,-0.0232 -0.02015,-0.0346 0.0197,0.007 0.410246,0.13712 0.429948,0.14366 0.482634,0.18807 0.962696,0.37772 1.440739,0.56792 0.05533,0.0954 0.108913,0.19095 0.160714,0.28629 1.781339,0.91644 3.13801,1.7784 3.634403,2.10375 -0.03181,-0.07 -0.06447,-0.13969 -0.09767,-0.20929 -0.0035,-0.007 -0.0073,-0.0147 -0.01085,-0.0222 l 0.02377,0.015 c 0.459053,0.29384 0.915982,0.59459 -3.353211,-1.64536 -3.45068,-2.19317 -6.095202,-3.30859 -9.211397,-3.4489 z"
       sodipodi:nodetypes="scccccccccccccccccccss" /><g
       id="g338"
       inkscape:label="dir2"
       style="display:inline"><path
         id="path336"
         style="display:inline;opacity:1;fill:#618e06;fill-opacity:1;stroke-width:0.0136979"
         d="m 78.547358,265.02731 c -1.063242,-0.0207 -2.839739,0.64307 -4.529339,1.28992 -0.479442,0.1798 -0.94788,0.35286 -1.453562,0.52594 -0.628968,0.19395 -1.224085,0.38671 -1.795245,0.58719 -4.349572,-0.25078 -6.80619,1.93764 -6.80619,1.93764 l 0.344806,1.4798 c -0.01004,0.009 -0.01997,0.0176 -0.02998,0.0263 l 0.08183,0.27797 c 0.0049,-0.005 0.01005,-0.0108 0.01499,-0.0163 l 0.07433,0.31859 0.01312,0.045 -0.0025,0.002 0.183023,0.78457 2.283097,-2.50423 h 6.24e-4 c 0.339501,0.0651 0.679237,0.23639 0.985699,0.57469 0.07741,0.19922 0.120315,0.40204 0.142421,0.61028 0.143831,1.13426 -0.360646,2.55473 2.034485,2.15004 2.846436,-0.48093 3.237327,-2.41067 2.003878,-3.54676 0.529104,0.0857 1.044554,0.19018 1.544761,0.30795 0.432025,0.75272 0.536226,1.61622 0.402899,2.51798 -0.01515,0.1502 -0.03478,0.30132 -0.05934,0.45349 0,0 0.03728,0.17702 0.103692,0.44287 0.16678,0.44378 0.510281,1.46641 0.861392,1.92516 0.387243,0.506 1.143873,0.84535 2.303711,0.0594 1.396322,-0.94627 1.17185,-2.39197 0.351677,-3.68857 -0.05183,-0.10411 -0.107213,-0.20635 -0.165532,-0.30544 0.0197,0.007 0.410057,0.13712 0.429759,0.14366 0.482634,0.18807 0.963027,0.3776 1.44107,0.5678 0.598151,1.03083 0.990099,2.05998 1.17122,3.0939 0,0 0.07956,0.0715 0.210507,0.16929 0.300522,0.22323 0.89229,0.60384 1.433573,0.54093 0.774465,-0.09 1.146232,-1.03067 1.146232,-1.03067 -0.08266,-0.19869 -0.170692,-0.39665 -0.264227,-0.59279 -0.0035,-0.007 -0.0071,-0.0144 -0.01062,-0.0219 l 0.02374,0.015 c 0.459053,0.29384 0.915897,0.59409 1.369857,0.90074 0.280259,0.0911 0.537956,0.16886 0.774568,0.23486 0.32127,0.0854 0.603796,0.15117 0.852647,0.19803 0.0903,0.017 0.176403,0.0317 0.257356,0.0437 0.57038,0.0837 0.686389,-0.0414 0.896998,-0.15743 0.01117,-0.006 0.02209,-0.0121 0.03311,-0.0181 0.23846,-0.12967 0.343444,-0.18144 0.214255,-0.4791 -0.02147,-0.0493 -0.04733,-0.0994 -0.07621,-0.1493 -0.09931,-0.17145 -0.234868,-0.34056 -0.368544,-0.48661 -0.247954,-0.27043 -0.490976,-0.46911 -0.490976,-0.46911 -0.477421,-0.2918 -0.957551,-0.57796 -1.439818,-0.85825 -0.290946,-0.16975 -0.584393,-0.3393 -0.881383,-0.50849 0.450177,0.0584 0.901065,0.11378 1.353619,0.16554 0.155133,0.0179 0.310694,0.0357 0.466612,0.0531 0,0 1.630936,-0.25266 1.724036,-0.70273 0.0471,-0.2277 -0.31028,-0.46313 -0.680244,-0.64088 -0.380067,-0.18304 -0.777065,-0.30858 -0.777065,-0.30858 -1.766134,-0.0642 -3.492328,-0.19393 -5.233947,-0.36667 -0.36312,-0.23328 -0.733032,-0.46541 -1.110003,-0.69587 -0.130495,-0.0718 -0.261327,-0.14235 -0.392905,-0.21237 0.207679,8.7e-4 0.419414,-2.4e-4 0.634021,-0.004 2.200527,0.18558 4.567876,0.12484 5.939174,-0.64402 2.380422,-1.33465 -1.88132,-1.5824 -3.960908,-1.70842 -0.845846,0.0509 -1.450437,0.11306 -1.450437,0.11306 -0.0869,0.018 -0.173545,0.036 -0.259854,0.0537 -1.324961,0.26862 -2.538856,0.47702 -3.866586,0.66714 -0.391481,-0.12894 -0.831396,-0.24617 -1.299273,-0.34231 2.258499,-0.38184 4.605059,-1.13237 4.234504,-2.30059 -0.113586,-0.35809 -0.44931,-0.50904 -0.932603,-0.51847 z"
         inkscape:label="dir"
         sodipodi:nodetypes="cccccccccccccccccscccccscccccccsccccccscccccccccccsccccccscccccscc" /><path
         id="path337"
         style="opacity:0.0569878;fill:#000000;fill-opacity:1;stroke-width:0.079375"
         d="m 72.729928,266.78578 c -0.05469,0.019 -0.109838,0.0384 -0.165365,0.0574 -0.628968,0.19395 -1.224079,0.38657 -1.795239,0.58705 -0.02934,-0.002 -0.05868,-0.003 -0.08785,-0.005 l -0.0026,0.009 4.570264,0.41186 c -0.0013,-2.7e-4 -0.0023,-7.7e-4 -0.0036,-10e-4 0.467121,-0.079 0.937677,-0.17379 1.387512,-0.28474 z m -4.209563,0.73122 c -1.971042,0.27398 -3.348918,1.0136 -4.04213,1.47072 l 0.283703,1.44073 c 0,0 1.026595,-1.81115 3.758427,-2.91145 z m 9.449036,0.45269 c -0.441753,0.0725 -0.8875,0.14055 -1.346171,0.20671 l 2.973462,1.53427 h 5.17e-4 c 0.179363,2.6e-4 0.361867,-9e-4 0.54622,-0.004 0.195494,0.0165 0.392315,0.0311 0.589628,0.0434 z m 3.266984,2.67116 3.025138,1.7911 h 5.17e-4 c 0.04924,0.006 0.09854,0.0129 0.147795,0.0191 l -2.282548,-1.72754 c -0.296872,-0.0262 -0.593545,-0.0538 -0.890902,-0.0827 z" /><path
         id="path338"
         style="opacity:0.0569878;fill:#000000;fill-opacity:1;stroke-width:0.079375"
         d="m 69.984359,269.38769 c -1.153139,0.0415 -2.106465,0.35782 -2.596741,0.55501 0.181074,0.095 0.357748,0.22983 0.524516,0.41392 0.0559,0.14387 0.09378,0.2894 0.118856,0.4377 l 4.562512,-0.5519 c -0.08952,-0.19268 -0.215128,-0.37769 -0.374654,-0.54777 -0.778913,-0.2579 -1.542606,-0.33185 -2.234489,-0.30696 z m 3.712951,0.5979 c 0.07602,0.14461 0.139879,0.2931 0.19327,0.44493 l 3.863847,1.41335 c -0.04818,-0.0857 -0.09942,-0.17115 -0.152962,-0.2558 -0.02733,-0.0549 -0.05553,-0.1091 -0.08475,-0.16278 z m 5.745903,2.25051 c 0.07234,0.13174 0.141645,0.26309 0.207222,0.3948 v 5.2e-4 l 3.576526,2.0376 c -0.06712,-0.15771 -0.137873,-0.31476 -0.211873,-0.47077 -6.7e-5,-1.4e-4 6.7e-5,-3.7e-4 0,-5.2e-4 z m 3.906221,2.1456 c 0.05657,0.0367 0.113007,0.0737 0.169499,0.11059 l -0.001,-0.0181 z"
         sodipodi:nodetypes="scccccsccccccccccscccccc" /></g><g
       id="g341"
       inkscape:label="caulao"><path
         style="opacity:1;fill:#547a07;fill-opacity:1;stroke-width:0.079375"
         d="m 62.38563,267.76659 3.255681,22.83945 3.745667,-0.45732 -4.416931,-16.80259 z"
         id="path339"
         sodipodi:nodetypes="ccccc" /><path
         id="path340"
         style="opacity:0.0949797;fill:#000000;fill-opacity:1;stroke-width:0.079375"
         d="m 62.37084,267.79369 3.270472,22.76558 0.954098,-0.21395 -3.182835,-21.03308 z"
         sodipodi:nodetypes="ccccc" /><path
         id="path341"
         style="display:inline;opacity:1;fill:#547a07;fill-opacity:1;stroke-width:0.079375"
         inkscape:label="brotinho"
         d="m 67.893499,276.6676 c 0.189652,0.95184 0.291265,1.31479 0.485572,1.94216 0.376123,1.16497 0.439703,2.02686 0.439703,2.02686 l -1.075531,-2.41752 -0.255595,-1.12566 -0.368787,-2.00687 -0.19381,-1.86492 -0.112344,-2.37437 0.510416,-0.17581 0.04687,1.79077 0.148362,1.47594 0.07995,0.84582 0.136768,1.08958 z"
         sodipodi:nodetypes="cccscccccccccc"
         transform="matrix(3.557361,0.39157563,-0.39157563,3.557361,-69.654402,-748.49096)" /></g><g
       id="g345"
       inkscape:label="brotinho"
       transform="matrix(2.6290642,0.74888246,-0.74888246,2.6290642,90.277406,-523.77568)"
       style="display:inline"><path
         style="display:inline;opacity:1;fill:#657006;fill-opacity:1;stroke-width:0.079375"
         d="m 60.316609,235.76322 c 0,0 1.776028,-2.39091 4.186902,-0.27656 1.603989,1.40672 -1.808557,4.77154 -1.808557,4.77154 z"
         id="path342"
         transform="matrix(0.27774201,-0.03057238,0.03057238,0.27774201,42.229104,205.75788)"
         sodipodi:nodetypes="cscc" /><path
         id="path348"
         style="display:inline;opacity:0.145183;fill:#000000;fill-opacity:1;stroke-width:0.079375"
         d="m 63.921684,233.44155 c -0.04006,0.003 -0.07942,0.007 -0.118339,0.0119 l 0.02739,2.89388 z m 0.51108,0.0398 -0.453202,3.03134 0.557588,-3.00447 c -0.03497,-0.0102 -0.06984,-0.019 -0.104386,-0.0269 z m -0.925525,0.0341 c -0.03815,0.011 -0.07571,0.0225 -0.112138,0.0351 0.08258,0.81937 0.278536,2.69751 0.278536,2.69751 z m 1.470194,0.18448 -0.419095,2.18437 0.51263,-2.12649 c -0.03123,-0.0205 -0.06244,-0.0396 -0.09353,-0.0579 z m -1.932181,0.005 c -0.05215,0.0278 -0.100786,0.0559 -0.145728,0.0837 l 0.142627,1.75752 0.0031,0.0103 z m 2.436543,0.38912 -0.171049,1.21181 0.262,-1.11828 c -0.03023,-0.0324 -0.0607,-0.0636 -0.09095,-0.0935 z"
         transform="matrix(0.35181766,-0.10021439,0.10021439,0.35181766,20.728676,193.32063)" /><path
         style="display:inline;opacity:1;fill:#4d7006;fill-opacity:1;stroke-width:0.0750662"
         d="m 63.178924,246.07903 c 0,0 2.275523,-2.03013 2.777508,-5.95899 0.501984,-3.92886 -1.349165,-4.87711 -1.349165,-4.87711 0,0 -3.587017,4.08198 -3.587017,6.44398 0,2.36199 2.158674,4.39212 2.158674,4.39212 z"
         id="path343"
         sodipodi:nodetypes="cscsc"
         transform="matrix(0.27774201,-0.03057238,0.03057238,0.27774201,42.229104,205.75788)" /><path
         style="display:inline;opacity:1;fill:#567e07;fill-opacity:1;stroke-width:0.0667226"
         d="m 61.814719,246.22502 c 0,0 -1.797788,-2.03013 -2.194383,-5.95899 -0.396595,-3.92886 0.680905,-4.80829 0.680905,-4.80829 0,0 3.218949,4.01316 3.218949,6.37516 0,2.36199 -1.705471,4.39212 -1.705471,4.39212 z"
         id="path344"
         sodipodi:nodetypes="cscsc"
         transform="matrix(0.27774201,-0.03057238,0.03057238,0.27774201,42.229104,205.75788)" /><path
         style="opacity:0.0678426;fill:#ffffff;fill-opacity:1;stroke-width:0.0221789"
         d="m 67.643215,269.37376 c -0.21205,-0.26217 -0.280954,-0.25131 -0.280954,-0.25131 l -0.0372,0.0476 c 0,0 -0.567575,-0.49325 -1.107804,0.18269 l -0.04041,-0.0414 c 0,0 -0.263394,0.24952 -0.04996,1.30237 0,0 0.06084,-2.09279 1.58133,-1.13821 z"
         id="path345"
         sodipodi:nodetypes="cccccccc" /><path
         style="display:inline;opacity:0.0909091;fill:#000000;fill-opacity:1;stroke-width:0.079375"
         d="m 59.358242,230.87207 1.744783,2.54056 -1.232177,-2.98951 z"
         id="path347"
         transform="matrix(0.27774201,-0.03057238,0.03057238,0.27774201,42.668649,207.04827)"
         sodipodi:nodetypes="cccc" /></g><rect
       style="display:inline;fill:#ab07ff;fill-opacity:0;stroke-width:0.0836838"
       id="rect345"
       width="132.29167"
       height="285.31024"
       x="3.088379e-08"
       y="0"
       inkscape:label="frame"
       transform="translate(1.0583333,4.7625003)" /></g></svg>
