<?xml version="1.0" encoding="UTF-8" standalone="no"?>
<!-- Created with Inkscape (http://www.inkscape.org/) -->

<svg
   width="500.00003"
   height="1080.3535"
   viewBox="0 0 132.29168 285.84353"
   version="1.1"
   id="svg1"
   inkscape:version="1.4.2 (f4327f4, 2025-05-13)"
   sodipodi:docname="flor 2.svg"
   inkscape:export-batch-path="Planta"
   inkscape:export-batch-name=""
   xml:space="preserve"
   xmlns:inkscape="http://www.inkscape.org/namespaces/inkscape"
   xmlns:sodipodi="http://sodipodi.sourceforge.net/DTD/sodipodi-0.dtd"
   xmlns="http://www.w3.org/2000/svg"
   xmlns:svg="http://www.w3.org/2000/svg"><sodipodi:namedview
     id="namedview1"
     pagecolor="#acb3ef"
     bordercolor="#000000"
     borderopacity="0.25"
     inkscape:showpageshadow="2"
     inkscape:pageopacity="0.0"
     inkscape:pagecheckerboard="0"
     inkscape:deskcolor="#d1d1d1"
     inkscape:document-units="mm"
     inkscape:zoom="2.0000001"
     inkscape:cx="167.24999"
     inkscape:cy="528.74998"
     inkscape:window-width="1920"
     inkscape:window-height="1051"
     inkscape:window-x="1591"
     inkscape:window-y="-9"
     inkscape:window-maximized="1"
     inkscape:current-layer="g472"
     showguides="false"
     showgrid="false"><sodipodi:guide
       position="56.438934,150.4487"
       orientation="0,-1"
       id="guide224"
       inkscape:locked="false" /><inkscape:grid
       id="grid367"
       units="mm"
       originx="-3.0883791e-08"
       originy="0"
       spacingx="1"
       spacingy="1"
       empcolor="#0099e5"
       empopacity="0.30196078"
       color="#0099e5"
       opacity="0.14901961"
       empspacing="5"
       enabled="true"
       visible="false" /></sodipodi:namedview><defs
     id="defs1"><inkscape:path-effect
       effect="envelope"
       id="path-effect513"
       is_visible="true"
       lpeversion="1"
       yy="true"
       xx="false"
       bendpath1="m 18.212967,193.01997 21.182247,3.83532"
       bendpath2="m 39.675847,196.29402 3.274051,15.00833"
       bendpath3="m 11.103598,211.11526 31.939844,0.74836"
       bendpath4="m 18.119423,192.73934 -7.76418,18.00174"
       bendpath1-nodetypes="cc"
       bendpath3-nodetypes="cc"
       bendpath4-nodetypes="cc"
       bendpath2-nodetypes="cc" /><inkscape:path-effect
       effect="tiling"
       id="path-effect512"
       is_visible="true"
       lpeversion="1.3.1"
       unit="px"
       seed="1;697455844"
       lpesatellites=""
       num_rows="4"
       num_cols="4"
       gapx="1.2"
       gapy="1.2"
       offset="-38"
       offset_type="false"
       scale="50"
       rotate="90"
       mirrorrowsx="false"
       mirrorrowsy="false"
       mirrorcolsx="false"
       mirrorcolsy="false"
       mirrortrans="false"
       shrink_interp="false"
       split_items="false"
       link_styles="false"
       interpolate_scalex="false"
       interpolate_scaley="false"
       interpolate_rotatex="false"
       interpolate_rotatey="false"
       random_scale="true"
       random_rotate="true"
       random_gap_y="true"
       random_gap_x="true"
       transformorigin="rotate(-34.438949)" /><inkscape:path-effect
       effect="copy_rotate"
       starting_point="0,0"
       origin="62.35,116.2"
       id="path-effect510"
       is_visible="true"
       lpeversion="1.2"
       lpesatellites="#g483 | #g495 | #g487 | #g499 | #g479 | #g503 | #g475"
       method="normal"
       num_copies="8"
       starting_angle="0"
       rotation_angle="45"
       gap="-0.01"
       copies_to_360="true"
       mirror_copies="false"
       split_items="true"
       link_styles="false" /></defs><g
     inkscape:groupmode="layer"
     id="g361"
     inkscape:label="25"
     style="display:inline"
     transform="translate(-1.0583333,-4.7625003)"><g
       id="g258"
       inkscape:label="caule"
       transform="matrix(1.0391206,-0.41320785,0.43392465,0.99786599,-125.52887,41.28458)"><path
         id="path245"
         style="display:inline;fill:#547a07;fill-opacity:1;stroke-width:0.079375"
         inkscape:label="caule"
         d="m 72.135091,262.93274 c -0.01486,-0.006 -0.03061,-0.0103 -0.04716,-0.0133 -0.06109,-0.011 -0.133687,-4e-5 -0.220503,0.0433 -0.463021,0.23151 -0.562069,4.33279 -0.56207,4.33279 0,0 0.09059,-0.28279 -0.08956,3.58592 -0.1156,2.48257 0.142552,3.38629 -0.155433,7.86422 l 0.854345,0.35378 c 0.148626,-3.56595 0.143287,-6.30013 0.239167,-8.5411 0.180215,-4.2121 0.143497,-5.14775 0.143497,-5.14775 l 0.09927,-1.9848 c 0,0 -0.0386,-0.40333 -0.261563,-0.49309 z" /><path
         id="path246"
         style="display:inline;opacity:0.0759837;fill:#ffffff;fill-opacity:1;stroke-width:0.079375"
         inkscape:label="L1"
         d="m 72.098641,262.92162 c -0.01722,-0.004 -0.035,-0.006 -0.05421,-0.006 l -1.12e-4,5e-4 c -0.05129,-2.9e-4 -0.110132,0.0134 -0.176964,0.0468 -0.26207,0.13104 -0.407466,1.5015 -0.484418,2.66655 0.188947,-0.8478 0.182107,-2.41458 0.687039,-2.51246 l 0.265976,0.0585 c -0.04359,-0.11264 -0.116729,-0.22649 -0.237307,-0.2538 z" /><path
         id="path258"
         style="display:inline;opacity:0.0610583;fill:#ffffff;fill-opacity:1;stroke-width:0.0893887"
         inkscape:label="l2"
         d="m 66.819169,279.83238 0.945398,2.7442 c 0,0 1.297005,2.56331 2.538637,5.06798 l 0.315829,-0.0429 c -1.499424,-3.18215 -2.783548,-5.66627 -3.799864,-7.76931 z"
         transform="matrix(0.78687102,0.41150305,-0.41150305,0.78687102,134.69669,23.714858)" /></g><g
       id="g286"
       inkscape:label="Dir"
       transform="matrix(1.4786673,0.54666199,-0.67451693,1.1983853,156.5368,-83.741229)"><path
         id="path265"
         style="opacity:1;fill:#577d07;fill-opacity:1;stroke-width:0.0893888"
         inkscape:label="Dir"
         d="m 73.375366,264.23452 c -6.783644,-0.3041 -8.014068,4.00208 -10.512792,8.69245 l 0.644661,1.6542 c 0.01274,-0.002 0.02585,-0.003 0.03979,-0.005 0.0063,-0.4122 0.04835,-0.85113 0.139009,-1.31259 0.579479,-2.94941 1.962766,-2.67604 2.573486,-2.82308 0.610706,-0.14707 20.494072,-2.73448 10.391097,-5.79603 -1.221487,-0.23315 -2.30616,-0.36635 -3.275252,-0.40979 z"
         sodipodi:nodetypes="ccccssccc" /><path
         id="path267"
         style="opacity:0.0705563;fill:#ffffff;fill-opacity:1;stroke-width:0.0893888"
         d="m 69.449507,264.77267 c -2.930147,1.01623 -4.165766,3.35365 -5.535889,6.12044 1.582183,-2.55452 4.996808,-6.93406 12.681143,-6.25975 -3.086294,-0.58251 -5.387254,-0.47071 -7.145254,0.13931 z"
         sodipodi:nodetypes="sccs" /><path
         id="path284"
         style="opacity:0.0705563;fill:#000000;fill-opacity:1;stroke-width:0.0893888"
         d="m 64.808927,270.71163 c -0.48986,0.15571 -0.630768,0.53803 -0.772722,0.94795 -0.314568,0.9083 -0.48158,2.55692 -0.48158,2.55692 0,0 0.183081,-1.72518 0.557946,-2.37227 0.329289,-0.56841 0.569012,-0.96926 1.209077,-1.23101 -0.151748,0.0323 -0.349431,0.0468 -0.512725,0.0984 z"
         sodipodi:nodetypes="sscscs" /></g><g
       id="g290"
       inkscape:label="esq2"
       transform="matrix(-0.7047143,0,0,0.71771139,109.23542,77.195236)"
       style="display:inline"><path
         id="path287"
         style="display:inline;opacity:1;fill:#618e06;fill-opacity:1;stroke-width:0.0136979"
         d="m 78.547358,265.02731 c -1.063242,-0.0207 -2.839739,0.64307 -4.529339,1.28992 -0.479442,0.1798 -0.94788,0.35286 -1.453562,0.52594 -0.628968,0.19395 -1.224085,0.38671 -1.795245,0.58719 -4.349572,-0.25078 -6.80619,1.93764 -6.80619,1.93764 l 0.344806,1.4798 c -0.01004,0.009 -0.01997,0.0176 -0.02998,0.0263 l 0.08183,0.27797 c 0.0049,-0.005 0.01005,-0.0108 0.01499,-0.0163 l 0.07433,0.31859 0.01312,0.045 -0.0025,0.002 0.183023,0.78457 2.283097,-2.50423 h 6.24e-4 c 0.339501,0.0651 0.679237,0.23639 0.985699,0.57469 0.07741,0.19922 0.120315,0.40204 0.142421,0.61028 0.143831,1.13426 -0.360646,2.55473 2.034485,2.15004 2.846436,-0.48093 3.237327,-2.41067 2.003878,-3.54676 0.529104,0.0857 1.044554,0.19018 1.544761,0.30795 0.432025,0.75272 0.536226,1.61622 0.402899,2.51798 -0.01515,0.1502 -0.03478,0.30132 -0.05934,0.45349 0,0 0.03728,0.17702 0.103692,0.44287 0.16678,0.44378 0.510281,1.46641 0.861392,1.92516 0.387243,0.506 1.143873,0.84535 2.303711,0.0594 1.396322,-0.94627 1.17185,-2.39197 0.351677,-3.68857 -0.05183,-0.10411 -0.107213,-0.20635 -0.165532,-0.30544 0.0197,0.007 0.410057,0.13712 0.429759,0.14366 0.482634,0.18807 0.963027,0.3776 1.44107,0.5678 0.598151,1.03083 0.990099,2.05998 1.17122,3.0939 0,0 0.07956,0.0715 0.210507,0.16929 0.300522,0.22323 0.89229,0.60384 1.433573,0.54093 0.774465,-0.09 1.146232,-1.03067 1.146232,-1.03067 -0.08266,-0.19869 -0.170692,-0.39665 -0.264227,-0.59279 -0.0035,-0.007 -0.0071,-0.0144 -0.01062,-0.0219 l 0.02374,0.015 c 0.459053,0.29384 0.915897,0.59409 1.369857,0.90074 0.280259,0.0911 0.537956,0.16886 0.774568,0.23486 0.32127,0.0854 0.603796,0.15117 0.852647,0.19803 0.0903,0.017 0.176403,0.0317 0.257356,0.0437 0.57038,0.0837 0.686389,-0.0414 0.896998,-0.15743 0.01117,-0.006 0.02209,-0.0121 0.03311,-0.0181 0.23846,-0.12967 0.343444,-0.18144 0.214255,-0.4791 -0.02147,-0.0493 -0.04733,-0.0994 -0.07621,-0.1493 -0.09931,-0.17145 -0.234868,-0.34056 -0.368544,-0.48661 -0.247954,-0.27043 -0.490976,-0.46911 -0.490976,-0.46911 -0.477421,-0.2918 -0.957551,-0.57796 -1.439818,-0.85825 -0.290946,-0.16975 -0.584393,-0.3393 -0.881383,-0.50849 0.450177,0.0584 0.901065,0.11378 1.353619,0.16554 0.155133,0.0179 0.310694,0.0357 0.466612,0.0531 0,0 1.630936,-0.25266 1.724036,-0.70273 0.0471,-0.2277 -0.31028,-0.46313 -0.680244,-0.64088 -0.380067,-0.18304 -0.777065,-0.30858 -0.777065,-0.30858 -1.766134,-0.0642 -3.492328,-0.19393 -5.233947,-0.36667 -0.36312,-0.23328 -0.733032,-0.46541 -1.110003,-0.69587 -0.130495,-0.0718 -0.261327,-0.14235 -0.392905,-0.21237 0.207679,8.7e-4 0.419414,-2.4e-4 0.634021,-0.004 2.200527,0.18558 4.567876,0.12484 5.939174,-0.64402 2.380422,-1.33465 -1.88132,-1.5824 -3.960908,-1.70842 -0.845846,0.0509 -1.450437,0.11306 -1.450437,0.11306 -0.0869,0.018 -0.173545,0.036 -0.259854,0.0537 -1.324961,0.26862 -2.538856,0.47702 -3.866586,0.66714 -0.391481,-0.12894 -0.831396,-0.24617 -1.299273,-0.34231 2.258499,-0.38184 4.605059,-1.13237 4.234504,-2.30059 -0.113586,-0.35809 -0.44931,-0.50904 -0.932603,-0.51847 z"
         inkscape:label="esq"
         sodipodi:nodetypes="cccccccccccccccccscccccscccccccsccccccscccccccccccsccccccscccccscc" /><path
         id="path288"
         style="display:inline;opacity:0.0569878;fill:#000000;fill-opacity:1;stroke-width:0.079375"
         d="m 53.881978,267.40797 c -0.340583,0.007 -0.577278,0.11507 -0.657324,0.37207 -0.261135,0.83845 1.392717,1.37701 2.984314,1.65106 -0.255999,0.0536 -0.500048,0.11633 -0.725537,0.18501 l 0.0041,0.002 c 0,0 1.157552,1.44487 -0.777214,2.27996 l -0.08423,0.0698 c -1.11e-4,2.1e-4 -4.06e-4,3.2e-4 -5.17e-4,5.2e-4 -0.02678,0.0489 -0.05237,0.099 -0.077,0.14934 -0.577987,0.93059 -0.736478,1.96824 0.24753,2.64739 0.817355,0.56408 1.350778,0.32027 1.623674,-0.0429 0.247433,-0.32925 0.489666,-1.06281 0.607198,-1.38131 0.0468,-0.19081 0.07286,-0.31833 0.07286,-0.31833 -0.01731,-0.10921 -0.03118,-0.21725 -0.04186,-0.32505 -0.09396,-0.6472 -0.02075,-1.26688 0.283703,-1.80712 0.352503,-0.0845 0.715956,-0.15967 1.088823,-0.22118 -0.869229,0.81539 -0.593608,2.20042 1.412317,2.54559 1.687883,0.29045 1.332144,-0.72899 1.433504,-1.54306 0.01558,-0.14946 0.0457,-0.29524 0.100252,-0.43822 0.215968,-0.2428 0.455797,-0.36565 0.695048,-0.41238 l 1.609204,1.79731 0.129191,-0.56327 -0.0021,-0.002 0.0093,-0.032 0.05219,-0.22841 c 0.0035,0.004 0.0074,0.008 0.01085,0.0114 l 0.05736,-0.19948 c -0.0071,-0.006 -0.01359,-0.0121 -0.02067,-0.0186 l 0.24288,-1.06247 c 0,0 -1.731401,-1.5706 -4.796607,-1.39061 -0.402504,-0.14389 -0.821796,-0.28196 -1.265039,-0.42116 -0.356361,-0.12422 -0.686357,-0.24871 -1.024227,-0.37776 -1.190685,-0.46425 -2.442771,-0.94038 -3.192053,-0.92552 z m -1.029394,6.03478 -1.754932,1.45934 0.409794,0.23978 c 0.338176,-0.0243 0.680318,-0.25104 0.86558,-0.39119 0.09228,-0.0702 0.148312,-0.12144 0.148312,-0.12144 0.06815,-0.39624 0.178865,-0.79151 0.331246,-1.18649 z"
         transform="matrix(-1.4190148,0,0,1.3933177,155.00667,-107.55749)" /><path
         id="path290"
         style="opacity:0.0569878;fill:#ffffff;fill-opacity:1;stroke-width:0.11161"
         d="m 82.121431,267.35386 c 2.079588,0.12602 6.341688,0.37395 3.961266,1.7086 -1.371298,0.76886 -3.739172,0.82928 -5.939699,0.6437 -0.214607,0.004 -0.425889,0.005 -0.633568,0.004 0.131578,0.07 0.262552,0.1406 0.393047,0.2124 0.376971,0.23046 0.746357,0.46226 1.109477,0.69554 1.741619,0.17274 3.468134,0.30301 5.234268,0.36721 0,0 0.397227,0.12513 0.777294,0.30817 0.369964,0.17775 0.726866,0.41311 0.679766,0.64081 -0.0931,0.45007 -1.723979,0.70274 -1.723979,0.70274 -0.155918,-0.0174 -0.311244,-0.0347 -0.466377,-0.0526 -0.452554,-0.0518 -0.903488,-0.10721 -1.353665,-0.16561 0.29699,0.16919 0.590476,0.33859 0.881422,0.50834 0.482267,0.28029 0.96204,0.56646 1.439461,0.85826 0,0 0.243354,0.1983 0.491308,0.46873 0.133676,0.14605 0.269538,0.31528 0.368848,0.48673 0.02888,0.0499 0.05406,0.10046 0.07553,0.14976 0.129189,0.29766 0.02434,0.34914 -0.214123,0.47881 -0.01102,0.006 -0.02183,0.012 -0.033,0.018 -0.03956,0.0218 -0.07567,0.0438 -0.112194,0.0648 -0.08951,0.0356 -0.175295,0.0702 -0.255921,0.10225 -0.121043,0.0242 -0.282469,0.0268 -0.528706,-0.009 -0.08095,-0.012 -0.167087,-0.0269 -0.257387,-0.0439 -0.03386,-0.006 -0.06828,-0.0131 -0.103395,-0.0202 l -0.833758,-1.22835 c 0,0 -0.663978,-0.87986 -0.863089,-0.87986 -0.199111,0 -0.696632,-1.33564 -0.696632,-1.33564 0,0 3.218697,0.13023 2.521806,-0.35856 -0.696887,-0.48879 -4.745893,-0.39097 -4.745893,-0.39097 l -3.118709,-2.05277 c 0,0 9.357776,0.29352 7.632147,-0.68402 -1.223285,-0.69294 -5.164899,-0.69858 -7.403359,-0.65449 0.660222,-0.11297 1.319114,-0.23624 2.007765,-0.37585 0.08631,-0.0177 0.172687,-0.036 0.259587,-0.054 0,0 0.604614,-0.0621 1.45046,-0.11305 z" /></g><g
       id="g317"
       transform="matrix(2.1986102,0.11158325,-0.2044451,1.1607142,-16.096889,-44.997771)"
       inkscape:label="Esq"><path
         style="opacity:1;fill:#577d07;fill-opacity:1;stroke-width:0.109059"
         d="m 62.27436,272.36841 c -0.192436,-0.41415 -8.401305,-6.64126 -13.646118,0.92043 -1.796604,2.59024 -0.0096,3.80852 1.836714,2.77372 1.844382,-1.0337 4.90439,-3.21555 5.464126,-3.50067 0.559748,-0.28506 4.273386,-2.55125 7.294016,2.56621"
         id="path315"
         sodipodi:nodetypes="csszc"
         inkscape:label="Esq" /><path
         id="path316"
         style="opacity:0.0705563;fill:#000000;fill-opacity:1;stroke-width:0.0893888"
         d="m 57.228346,271.87957 c -0.915783,0.31436 -1.702832,0.84241 -2.293134,1.31237 0.475782,-0.31622 0.835327,-0.54899 0.993979,-0.6298 0.559746,-0.28511 4.273535,-2.55144 7.294163,2.56602 l -0.58169,-1.69234 c -0.03708,-0.0374 -0.04464,-0.0504 -0.08258,-0.0883 -1.921428,-1.92173 -3.804475,-1.99185 -5.330772,-1.46792 z" /><path
         id="path317"
         style="opacity:0.0705563;fill:#ffffff;fill-opacity:1;stroke-width:0.0893888"
         d="m 52.560677,270.02961 c -1.378247,0.52139 -2.733064,1.52981 -3.932588,3.2592 -0.438789,0.63262 -0.66389,1.18364 -0.726497,1.63976 1.467517,-2.52062 5.029981,-6.22824 12.700719,-3.76923 -1.862671,-1.06779 -5.009494,-2.27682 -8.041634,-1.12973 z" /></g><path
       id="path318"
       style="display:inline;opacity:0.0569878;fill:#ffffff;fill-opacity:1;stroke-width:0.079375"
       d="m 70.452547,269.0735 c -3.116195,-0.14032 -3.469071,0.13896 -3.469071,0.13896 l -1.099642,1.71209 1.041797,-1.14308 h 5.16e-4 c 0.137499,0.0264 0.275479,0.0702 0.410828,0.13539 1.401268,-0.58387 3.072115,-0.6065 4.797123,-0.30799 -0.01352,-0.013 -0.02741,-0.0259 -0.04134,-0.0388 0.529104,0.0857 1.044402,0.19022 1.544609,0.30799 0.0144,0.0251 0.0287,0.0501 0.04237,0.0754 1.294091,0.34872 2.582627,0.83624 3.776514,1.36374 -0.0067,-0.0115 -0.01341,-0.0232 -0.02015,-0.0346 0.0197,0.007 0.410246,0.13712 0.429948,0.14366 0.482634,0.18807 0.962696,0.37772 1.440739,0.56792 0.05533,0.0954 0.108913,0.19095 0.160714,0.28629 1.781339,0.91644 3.13801,1.7784 3.634403,2.10375 -0.03181,-0.07 -0.06447,-0.13969 -0.09767,-0.20929 -0.0035,-0.007 -0.0073,-0.0147 -0.01085,-0.0222 l 0.02377,0.015 c 0.459053,0.29384 0.915982,0.59459 -3.353211,-1.64536 -3.45068,-2.19317 -6.095202,-3.30859 -9.211397,-3.4489 z"
       sodipodi:nodetypes="scccccccccccccccccccss" /><g
       id="g351"
       inkscape:label="dir2"
       style="display:inline"><path
         id="path349"
         style="display:inline;opacity:1;fill:#618e06;fill-opacity:1;stroke-width:0.0136979"
         d="m 78.547358,265.02731 c -1.063242,-0.0207 -2.839739,0.64307 -4.529339,1.28992 -0.479442,0.1798 -0.94788,0.35286 -1.453562,0.52594 -0.628968,0.19395 -1.224085,0.38671 -1.795245,0.58719 -4.349572,-0.25078 -6.80619,1.93764 -6.80619,1.93764 l 0.344806,1.4798 c -0.01004,0.009 -0.01997,0.0176 -0.02998,0.0263 l 0.08183,0.27797 c 0.0049,-0.005 0.01005,-0.0108 0.01499,-0.0163 l 0.07433,0.31859 0.01312,0.045 -0.0025,0.002 0.183023,0.78457 2.283097,-2.50423 h 6.24e-4 c 0.339501,0.0651 0.679237,0.23639 0.985699,0.57469 0.07741,0.19922 0.120315,0.40204 0.142421,0.61028 0.143831,1.13426 -0.360646,2.55473 2.034485,2.15004 2.846436,-0.48093 3.237327,-2.41067 2.003878,-3.54676 0.529104,0.0857 1.044554,0.19018 1.544761,0.30795 0.432025,0.75272 0.536226,1.61622 0.402899,2.51798 -0.01515,0.1502 -0.03478,0.30132 -0.05934,0.45349 0,0 0.03728,0.17702 0.103692,0.44287 0.16678,0.44378 0.510281,1.46641 0.861392,1.92516 0.387243,0.506 1.143873,0.84535 2.303711,0.0594 1.396322,-0.94627 1.17185,-2.39197 0.351677,-3.68857 -0.05183,-0.10411 -0.107213,-0.20635 -0.165532,-0.30544 0.0197,0.007 0.410057,0.13712 0.429759,0.14366 0.482634,0.18807 0.963027,0.3776 1.44107,0.5678 0.598151,1.03083 0.990099,2.05998 1.17122,3.0939 0,0 0.07956,0.0715 0.210507,0.16929 0.300522,0.22323 0.89229,0.60384 1.433573,0.54093 0.774465,-0.09 1.146232,-1.03067 1.146232,-1.03067 -0.08266,-0.19869 -0.170692,-0.39665 -0.264227,-0.59279 -0.0035,-0.007 -0.0071,-0.0144 -0.01062,-0.0219 l 0.02374,0.015 c 0.459053,0.29384 0.915897,0.59409 1.369857,0.90074 0.280259,0.0911 0.537956,0.16886 0.774568,0.23486 0.32127,0.0854 0.603796,0.15117 0.852647,0.19803 0.0903,0.017 0.176403,0.0317 0.257356,0.0437 0.57038,0.0837 0.686389,-0.0414 0.896998,-0.15743 0.01117,-0.006 0.02209,-0.0121 0.03311,-0.0181 0.23846,-0.12967 0.343444,-0.18144 0.214255,-0.4791 -0.02147,-0.0493 -0.04733,-0.0994 -0.07621,-0.1493 -0.09931,-0.17145 -0.234868,-0.34056 -0.368544,-0.48661 -0.247954,-0.27043 -0.490976,-0.46911 -0.490976,-0.46911 -0.477421,-0.2918 -0.957551,-0.57796 -1.439818,-0.85825 -0.290946,-0.16975 -0.584393,-0.3393 -0.881383,-0.50849 0.450177,0.0584 0.901065,0.11378 1.353619,0.16554 0.155133,0.0179 0.310694,0.0357 0.466612,0.0531 0,0 1.630936,-0.25266 1.724036,-0.70273 0.0471,-0.2277 -0.31028,-0.46313 -0.680244,-0.64088 -0.380067,-0.18304 -0.777065,-0.30858 -0.777065,-0.30858 -1.766134,-0.0642 -3.492328,-0.19393 -5.233947,-0.36667 -0.36312,-0.23328 -0.733032,-0.46541 -1.110003,-0.69587 -0.130495,-0.0718 -0.261327,-0.14235 -0.392905,-0.21237 0.207679,8.7e-4 0.419414,-2.4e-4 0.634021,-0.004 2.200527,0.18558 4.567876,0.12484 5.939174,-0.64402 2.380422,-1.33465 -1.88132,-1.5824 -3.960908,-1.70842 -0.845846,0.0509 -1.450437,0.11306 -1.450437,0.11306 -0.0869,0.018 -0.173545,0.036 -0.259854,0.0537 -1.324961,0.26862 -2.538856,0.47702 -3.866586,0.66714 -0.391481,-0.12894 -0.831396,-0.24617 -1.299273,-0.34231 2.258499,-0.38184 4.605059,-1.13237 4.234504,-2.30059 -0.113586,-0.35809 -0.44931,-0.50904 -0.932603,-0.51847 z"
         inkscape:label="dir"
         sodipodi:nodetypes="cccccccccccccccccscccccscccccccsccccccscccccccccccsccccccscccccscc" /><path
         id="path350"
         style="opacity:0.0569878;fill:#000000;fill-opacity:1;stroke-width:0.079375"
         d="m 72.729928,266.78578 c -0.05469,0.019 -0.109838,0.0384 -0.165365,0.0574 -0.628968,0.19395 -1.224079,0.38657 -1.795239,0.58705 -0.02934,-0.002 -0.05868,-0.003 -0.08785,-0.005 l -0.0026,0.009 4.570264,0.41186 c -0.0013,-2.7e-4 -0.0023,-7.7e-4 -0.0036,-10e-4 0.467121,-0.079 0.937677,-0.17379 1.387512,-0.28474 z m -4.209563,0.73122 c -1.971042,0.27398 -3.348918,1.0136 -4.04213,1.47072 l 0.283703,1.44073 c 0,0 1.026595,-1.81115 3.758427,-2.91145 z m 9.449036,0.45269 c -0.441753,0.0725 -0.8875,0.14055 -1.346171,0.20671 l 2.973462,1.53427 h 5.17e-4 c 0.179363,2.6e-4 0.361867,-9e-4 0.54622,-0.004 0.195494,0.0165 0.392315,0.0311 0.589628,0.0434 z m 3.266984,2.67116 3.025138,1.7911 h 5.17e-4 c 0.04924,0.006 0.09854,0.0129 0.147795,0.0191 l -2.282548,-1.72754 c -0.296872,-0.0262 -0.593545,-0.0538 -0.890902,-0.0827 z" /><path
         id="path351"
         style="opacity:0.0569878;fill:#000000;fill-opacity:1;stroke-width:0.079375"
         d="m 69.984359,269.38769 c -1.153139,0.0415 -2.106465,0.35782 -2.596741,0.55501 0.181074,0.095 0.357748,0.22983 0.524516,0.41392 0.0559,0.14387 0.09378,0.2894 0.118856,0.4377 l 4.562512,-0.5519 c -0.08952,-0.19268 -0.215128,-0.37769 -0.374654,-0.54777 -0.778913,-0.2579 -1.542606,-0.33185 -2.234489,-0.30696 z m 3.712951,0.5979 c 0.07602,0.14461 0.139879,0.2931 0.19327,0.44493 l 3.863847,1.41335 c -0.04818,-0.0857 -0.09942,-0.17115 -0.152962,-0.2558 -0.02733,-0.0549 -0.05553,-0.1091 -0.08475,-0.16278 z m 5.745903,2.25051 c 0.07234,0.13174 0.141645,0.26309 0.207222,0.3948 v 5.2e-4 l 3.576526,2.0376 c -0.06712,-0.15771 -0.137873,-0.31476 -0.211873,-0.47077 -6.7e-5,-1.4e-4 6.7e-5,-3.7e-4 0,-5.2e-4 z m 3.906221,2.1456 c 0.05657,0.0367 0.113007,0.0737 0.169499,0.11059 l -0.001,-0.0181 z"
         sodipodi:nodetypes="scccccsccccccccccscccccc" /></g><g
       id="g354"
       inkscape:label="caulao"><path
         style="opacity:1;fill:#547a07;fill-opacity:1;stroke-width:0.079375"
         d="m 62.38563,267.76659 3.255681,22.83945 3.745667,-0.45732 -4.416931,-16.80259 z"
         id="path352"
         sodipodi:nodetypes="ccccc" /><path
         id="path353"
         style="opacity:0.0949797;fill:#000000;fill-opacity:1;stroke-width:0.079375"
         d="m 62.37084,267.79369 3.270472,22.76558 0.954098,-0.21395 -3.182835,-21.03308 z"
         sodipodi:nodetypes="ccccc" /><path
         id="path354"
         style="display:inline;opacity:1;fill:#547a07;fill-opacity:1;stroke-width:0.079375"
         inkscape:label="brotinho"
         d="m 67.893499,276.6676 c 0.189652,0.95184 0.291265,1.31479 0.485572,1.94216 0.376123,1.16497 0.439703,2.02686 0.439703,2.02686 l -1.075531,-2.41752 -0.255595,-1.12566 -0.368787,-2.00687 -0.19381,-1.86492 -0.112344,-2.37437 0.510416,-0.17581 0.04687,1.79077 0.148362,1.47594 0.07995,0.84582 0.136768,1.08958 z"
         sodipodi:nodetypes="cccscccccccccc"
         transform="matrix(3.557361,0.39157563,-0.39157563,3.557361,-69.654402,-748.49096)" /><path
         id="path514"
         style="display:inline;opacity:0.0800542;fill:#000000;fill-opacity:1;stroke-width:0.079375"
         inkscape:label="s"
         d="m 67.323103,270.67142 -0.510425,0.17588 0.112314,2.37436 0.193807,1.86495 0.368778,2.00679 0.06769,0.29819 c 0.133895,-0.0446 0.278704,-0.12784 0.43267,-0.26466 -0.02934,-0.13752 -0.06049,-0.28903 -0.09444,-0.45939 l -0.158437,-0.79402 -0.136783,-1.08955 -0.07988,-0.84581 -0.148378,-1.47598 z"
         transform="matrix(3.557361,0.39157563,-0.39157563,3.557361,-69.654402,-748.49096)" /></g><rect
       style="display:inline;fill:#ab07ff;fill-opacity:0;stroke-width:0.0836838"
       id="rect360"
       width="132.29167"
       height="285.31024"
       x="3.088379e-08"
       y="0"
       inkscape:label="frame"
       transform="translate(1.0583333,4.7625003)" /><path
       style="opacity:1;fill:#547a07;fill-opacity:1;stroke-width:0.079375"
       d="m 61.862149,240.78952 c -0.280633,0 -2.374519,-0.27593 -2.374519,-0.27593 l 1.76648,0.74365 -0.467722,0.70159 1.449937,-0.70159 0.18709,0.8419 0.982215,-0.93544 0.701583,0.93544 -0.09354,-0.74835 1.637025,0.18709 -1.449938,-0.74836 c 0,0 2.096723,-0.63308 1.675773,-0.53953 -0.420949,0.0935 -4.01438,0.53953 -4.01438,0.53953 z"
       id="path361"
       sodipodi:nodetypes="sccccccccccscs" /><g
       id="g509"
       inkscape:label="cosmos"
       style="display:inline"
       transform="translate(35.189582,42.99479)"
       inkscape:path-effect="#path-effect513"><g
         transform="rotate(45,-51.437909,114.70079)"
         id="g475"
         inkscape:label="b4"
         style="display:inline"><path
           style="opacity:1;fill:#e56f13;fill-opacity:1;stroke-width:0.079375"
           id="path472"
           d="m 66.085249,119.34361 c 0,0 -0.501172,-1.05338 -0.491414,-2.4673 0.0098,-1.4248 0.506021,-3.08414 2.340073,-4.32862 0.147238,-0.0999 0.34139,-0.10401 0.428241,-0.0171 0.103399,0.10341 0.207789,0.2059 0.313172,0.30747 0.262505,-0.25143 0.524335,-0.50157 0.785491,-0.7504 0.08959,-0.0854 0.224936,-0.0959 0.260551,-0.0203 0.103705,0.21994 0.209125,0.43923 0.316258,0.65788 0.183624,-0.12452 0.367367,-0.24924 0.551231,-0.37418 0.154273,-0.10483 0.362437,-0.13275 0.45372,-0.054 1.145835,0.98887 0.548112,2.57615 -0.425272,4.04163 -0.976393,1.47002 -2.27376,2.73177 -2.27376,2.73177"
           inkscape:original-d="m 60.887236,112.84479 c 0,0 -4.703419,-6.06078 -0.664311,-9.73237 0.161239,-0.14657 0.435194,-0.14092 0.601336,6.1e-4 l 0.592144,0.50442 0.747766,-1.09495 c 0.08571,-0.12551 0.270834,-0.12551 0.356548,0 l 0.747766,1.09495 0.592144,-0.50442 c 0.166142,-0.14153 0.440097,-0.14718 0.601336,-6.1e-4 4.039108,3.67159 -0.664311,9.73237 -0.664311,9.73237" /><path
           style="opacity:0.0746268;fill:#000000;fill-opacity:1;stroke-width:0.079375"
           id="path473"
           d="m 66.254743,119.32262 c 0,0 0.498838,-3.20539 1.803322,-5.22038 0,0 -1.328229,2.61343 -1.356039,5.17459 -0.149751,0.0162 -0.298845,0.0315 -0.447283,0.0458 z"
           inkscape:original-d="m 61.107836,112.83785 c 0,0 -0.830209,-4.38489 0.04677,-7.34323 0,0 -0.561264,3.83532 0.537882,7.34323 z" /><path
           style="opacity:0.0746268;fill:#000000;fill-opacity:1;stroke-width:0.079375"
           id="path474"
           d="m 68.138451,119.09554 c 0,0 1.667373,-3.3186 1.655729,-5.15044 0,0 -0.394639,2.49779 -2.115438,5.21399 0.15258,-0.0203 0.305816,-0.0414 0.459709,-0.0636 z"
           inkscape:original-d="m 63.536332,112.83785 c 0,0 0.830209,-4.38489 -0.04677,-7.34323 0,0 0.561264,3.83532 -0.537882,7.34323 z" /><path
           style="opacity:0.0746268;fill:#000000;fill-opacity:1;stroke-width:0.079375"
           id="path475"
           d="m 67.073503,119.23981 c 0.502353,-1.38589 0.988956,-2.72215 1.459807,-4.00876 -0.386998,1.27836 -0.787019,2.60414 -1.20006,3.97733 -0.0868,0.0108 -0.17338,0.0213 -0.259747,0.0314 z"
           inkscape:original-d="m 62.176392,112.84479 0.167373,-5.58933 0.167374,5.58933 z" /></g><g
         transform="rotate(135,28.583185,149.0886)"
         id="g479"
         inkscape:label="b3"
         style="display:inline"><path
           style="opacity:1;fill:#e56f13;fill-opacity:1;stroke-width:0.079375"
           id="path476"
           d="m 66.361099,109.1155 c 0,0 -1.098717,-1.52064 -1.983866,-3.3452 -0.873714,-1.801 -1.619922,-4.03498 -0.785279,-5.33821 0.06761,-0.10557 0.26276,-0.0484 0.425985,0.11643 0.193465,0.19538 0.387133,0.39087 0.581003,0.58647 0.06591,-0.29085 0.128419,-0.58494 0.187535,-0.88226 0.02029,-0.10206 0.153733,-0.0667 0.257766,0.0696 0.301748,0.39516 0.602047,0.78948 0.900899,1.18294 0.09196,-0.11804 0.183403,-0.23685 0.274341,-0.35642 0.07645,-0.10051 0.277322,-0.0512 0.446014,0.12134 4.491846,4.59454 1.90691,8.5447 1.90691,8.5447"
           inkscape:original-d="m 60.887236,112.84479 c 0,0 -4.703419,-6.06078 -0.664311,-9.73237 0.161239,-0.14657 0.435194,-0.14092 0.601336,6.1e-4 l 0.592144,0.50442 0.747766,-1.09495 c 0.08571,-0.12551 0.270834,-0.12551 0.356548,0 l 0.747766,1.09495 0.592144,-0.50442 c 0.166142,-0.14153 0.440097,-0.14718 0.601336,-6.1e-4 4.039108,3.67159 -0.664311,9.73237 -0.664311,9.73237" /><path
           style="opacity:0.0746268;fill:#000000;fill-opacity:1;stroke-width:0.079375"
           id="path477"
           d="m 66.52485,109.16197 c 0,0 -1.369794,-3.79167 -1.562643,-6.35216 0,0 0.64408,3.39461 2.001699,6.4911 -0.146884,-0.0465 -0.293236,-0.0928 -0.439056,-0.13894 z"
           inkscape:original-d="m 61.107836,112.83785 c 0,0 -0.830209,-4.38489 0.04677,-7.34323 0,0 -0.561264,3.83532 0.537882,7.34323 z" /><path
           style="opacity:0.0746268;fill:#000000;fill-opacity:1;stroke-width:0.079375"
           id="path478"
           d="m 68.369477,109.74531 c 0,0 -0.139535,-3.43807 -1.694888,-6.44966 0,0 1.512273,3.66769 1.245768,6.30773 0.149175,0.0472 0.298881,0.0945 0.44912,0.14193 z"
           inkscape:original-d="m 63.536332,112.83785 c 0,0 0.830209,-4.38489 -0.04677,-7.34323 0,0 0.561264,3.83532 -0.537882,7.34323 z" /><path
           style="opacity:0.0746268;fill:#000000;fill-opacity:1;stroke-width:0.079375"
           id="path479"
           d="m 67.330832,109.42238 c -0.256944,-1.53043 -0.600729,-3.12221 -1.031356,-4.77537 0.513181,1.67724 0.941747,3.29584 1.285697,4.85581 -0.08495,-0.0269 -0.169735,-0.0537 -0.254341,-0.0804 z"
           inkscape:original-d="m 62.176392,112.84479 0.167373,-5.58933 0.167374,5.58933 z" /></g><g
         transform="rotate(-45,141.7501,197.7203)"
         id="g483"
         inkscape:label="b"
         style="display:inline"><path
           style="opacity:1;fill:#e56f13;fill-opacity:1;stroke-width:0.079375"
           id="path480"
           d="m 55.369802,117.23254 c 0,0 -1.038776,-1.47542 -1.606516,-3.11475 -0.571078,-1.64895 -0.615567,-3.37572 1.287595,-3.9315 0.150343,-0.0439 0.379055,0.0474 0.502409,0.19122 0.146861,0.17119 0.293519,0.34226 0.439975,0.51322 0.24151,-0.15922 0.486415,-0.3152 0.734716,-0.46795 0.08555,-0.0526 0.237618,0.006 0.292626,0.11227 0.160372,0.30914 0.322192,0.61914 0.485459,0.92998 0.177103,-0.0472 0.354714,-0.0936 0.532833,-0.13928 0.150156,-0.0385 0.370724,0.0428 0.482122,0.18437 2.556739,3.24855 -0.869799,6.50737 -0.869799,6.50737"
           inkscape:original-d="m 60.887236,112.84479 c 0,0 -4.703419,-6.06078 -0.664311,-9.73237 0.161239,-0.14657 0.435194,-0.14092 0.601336,6.1e-4 l 0.592144,0.50442 0.747766,-1.09495 c 0.08571,-0.12551 0.270834,-0.12551 0.356548,0 l 0.747766,1.09495 0.592144,-0.50442 c 0.166142,-0.14153 0.440097,-0.14718 0.601336,-6.1e-4 4.039108,3.67159 -0.664311,9.73237 -0.664311,9.73237" /><path
           style="opacity:0.0746268;fill:#000000;fill-opacity:1;stroke-width:0.079375"
           id="path481"
           d="m 55.545113,117.2876 c 0,0 -0.835217,-3.51837 0.07859,-5.23664 0,0 -0.692109,2.38518 0.384869,5.39587 -0.153953,-0.0529 -0.308438,-0.10599 -0.463455,-0.15923 z"
           inkscape:original-d="m 61.107836,112.83785 c 0,0 -0.830209,-4.38489 0.04677,-7.34323 0,0 -0.561264,3.83532 0.537882,7.34323 z" /><path
           style="opacity:0.0746268;fill:#000000;fill-opacity:1;stroke-width:0.079375"
           id="path482"
           d="m 57.449286,117.94279 c 0,0 0.525707,-3.06498 0.06643,-5.18685 0,0 0.167284,2.69113 -0.519825,5.03061 0.151662,0.0522 0.302792,0.10431 0.453391,0.15624 z"
           inkscape:original-d="m 63.536332,112.83785 c 0,0 0.830209,-4.38489 -0.04677,-7.34323 0,0 0.561264,3.83532 -0.537882,7.34323 z" /><path
           style="opacity:0.0746268;fill:#000000;fill-opacity:1;stroke-width:0.079375"
           id="path483"
           d="m 56.390102,117.58313 c -0.05178,-1.38747 -0.01673,-2.71356 0.105173,-3.97829 -0.03221,1.29755 0.0202,2.65374 0.157224,4.06857 -0.08729,-0.03 -0.174757,-0.0601 -0.262397,-0.0903 z"
           inkscape:original-d="m 62.176392,112.84479 0.167373,-5.58933 0.167374,5.58933 z" /></g><g
         transform="rotate(-135,61.729008,163.3325)"
         id="g487"
         inkscape:label="b2"
         style="display:inline"><path
           style="opacity:1;fill:#e56f13;fill-opacity:1;stroke-width:0.079375"
           id="path484"
           d="m 58.012676,108.18706 c 0,0 -0.586122,-1.03593 -0.649611,-2.5277 -0.06318,-1.4845 0.417033,-3.53771 2.713889,-5.55917 0.18245,-0.160577 0.418745,-0.205703 0.522406,-0.109359 0.122991,0.114309 0.24499,0.229539 0.365997,0.345689 0.31781,-0.364803 0.636295,-0.730909 0.955454,-1.098319 0.109946,-0.126571 0.267392,-0.155258 0.303297,-0.05523 0.104329,0.290654 0.206944,0.581951 0.307844,0.87389 0.214268,-0.176868 0.428416,-0.353527 0.642444,-0.529975 0.180573,-0.148868 0.40867,-0.187707 0.497549,-0.07441 1.111655,1.416989 0.205869,3.620809 -0.888627,5.344949 -1.091566,1.71952 -2.426373,3.04602 -2.426373,3.04602"
           inkscape:original-d="m 60.887236,112.84479 c 0,0 -4.703419,-6.06078 -0.664311,-9.73237 0.161239,-0.14657 0.435194,-0.14092 0.601336,6.1e-4 l 0.592144,0.50442 0.747766,-1.09495 c 0.08571,-0.12551 0.270834,-0.12551 0.356548,0 l 0.747766,1.09495 0.592144,-0.50442 c 0.166142,-0.14153 0.440097,-0.14718 0.601336,-6.1e-4 4.039108,3.67159 -0.664311,9.73237 -0.664311,9.73237" /><path
           style="opacity:0.0746268;fill:#000000;fill-opacity:1;stroke-width:0.079375"
           id="path485"
           d="m 58.19558,108.15058 c 0,0 0.425386,-3.38577 2.015669,-6.12507 0,0 -1.515267,3.42594 -1.538379,6.04696 -0.15844,0.0251 -0.317537,0.0511 -0.47729,0.0781 z"
           inkscape:original-d="m 61.107836,112.83785 c 0,0 -0.830209,-4.38489 0.04677,-7.34323 0,0 -0.561264,3.83532 0.537882,7.34323 z" /><path
           style="opacity:0.0746268;fill:#000000;fill-opacity:1;stroke-width:0.079375"
           id="path486"
           d="m 60.152316,107.86299 c 0,0 1.877608,-3.62428 2.015338,-6.17518 0,0 -0.673715,3.30397 -2.480203,6.23554 0.155612,-0.0211 0.310567,-0.0412 0.464865,-0.0604 z"
           inkscape:original-d="m 63.536332,112.83785 c 0,0 0.830209,-4.38489 -0.04677,-7.34323 0,0 0.561264,3.83532 -0.537882,7.34323 z" /><path
           style="opacity:0.0746268;fill:#000000;fill-opacity:1;stroke-width:0.079375"
           id="path487"
           d="m 59.063104,108.01764 c 0.536056,-1.50195 1.087864,-3.05355 1.655423,-4.6548 -0.474955,1.58585 -0.936887,3.12428 -1.385798,4.61529 -0.08966,0.0129 -0.179535,0.026 -0.269625,0.0395 z"
           inkscape:original-d="m 62.176392,112.84479 0.167373,-5.58933 0.167374,5.58933 z" /></g><g
         id="g491"
         inkscape:label="petala orignal"
         transform="translate(-34.387807,80.021094)"
         inkscape:path-effect="#path-effect510"><path
           style="opacity:1;fill:#ec771a;fill-opacity:1;stroke-width:0.079375"
           d="m 60.20348,120.82123 c 0,0 -0.890008,-1.02935 -1.097513,-2.30328 -0.208534,-1.28025 0.27304,-2.77475 2.316231,-3.60152 0.160764,-0.065 0.370781,-0.0237 0.466594,0.0829 0.113897,0.12663 0.229682,0.2529 0.347356,0.37882 0.275436,-0.18174 0.549248,-0.36213 0.821434,-0.54119 0.09369,-0.0616 0.235136,-0.0355 0.273758,0.0498 0.112416,0.24812 0.230948,0.49536 0.355594,0.74172 0.187139,-0.0713 0.373343,-0.14214 0.558612,-0.21253 0.156079,-0.0593 0.368467,-0.0245 0.466853,0.0822 1.234488,1.33837 0.878444,2.6806 0.104062,3.75825 -0.762436,1.06102 -1.952352,1.849 -1.952352,1.849"
           id="path488"
           sodipodi:nodetypes="csscsssscc"
           inkscape:original-d="m 60.887236,112.84479 c 0,0 -4.703419,-6.06078 -0.664311,-9.73237 0.161239,-0.14657 0.435194,-0.14092 0.601336,6.1e-4 l 0.592144,0.50442 0.747766,-1.09495 c 0.08571,-0.12551 0.270834,-0.12551 0.356548,0 l 0.747766,1.09495 0.592144,-0.50442 c 0.166142,-0.14153 0.440097,-0.14718 0.601336,-6.1e-4 4.039108,3.67159 -0.664311,9.73237 -0.664311,9.73237" /><path
           style="opacity:0.0746268;fill:#000000;fill-opacity:1;stroke-width:0.079375"
           d="m 60.405982,120.83859 c 0,0 -0.13434,-2.67612 1.225502,-4.3839 0,0 -1.305443,2.21871 -0.691086,4.44098 z"
           id="path489"
           sodipodi:nodetypes="cccc"
           inkscape:original-d="m 61.107836,112.83785 c 0,0 -0.830209,-4.38489 0.04677,-7.34323 0,0 -0.561264,3.83532 0.537882,7.34323 z" /><path
           style="opacity:0.0746268;fill:#000000;fill-opacity:1;stroke-width:0.079375"
           d="m 62.625812,121.07568 c 0,0 1.103977,-2.50683 0.896862,-4.32326 0,0 -0.128003,2.33591 -1.431279,4.26618 z"
           id="path490"
           sodipodi:nodetypes="cccc"
           inkscape:original-d="m 63.536332,112.83785 c 0,0 0.830209,-4.38489 -0.04677,-7.34323 0,0 0.561264,3.83532 -0.537882,7.34323 z" /><path
           style="opacity:0.0746268;fill:#000000;fill-opacity:1;stroke-width:0.079375"
           d="m 61.381993,120.94706 c 0.247084,-1.10807 0.548251,-2.20892 0.903501,-3.30256 -0.262088,1.10707 -0.461249,2.21881 -0.597484,3.33523 z"
           id="path491"
           sodipodi:nodetypes="cccc"
           inkscape:original-d="m 62.176392,112.84479 0.167373,-5.58933 0.167374,5.58933 z" /></g><g
         transform="rotate(-90,85.166644,173.40445)"
         id="g495"
         inkscape:label="petala"><path
           style="opacity:1;fill:#ec771a;fill-opacity:1;stroke-width:0.079375"
           id="path492"
           d="m 54.958325,111.72944 c 0,0 -0.60771,-1.59611 -0.893851,-3.67819 -0.285185,-2.07512 -0.24689,-4.67395 1.217117,-6.03694 0.116989,-0.10891 0.296482,-0.0391 0.394506,0.139 0.116368,0.21144 0.232263,0.42212 0.347687,0.63205 0.192032,-0.29778 0.385067,-0.59063 0.579107,-0.87857 0.06676,-0.0991 0.188406,-0.0505 0.234056,0.0923 0.132679,0.41519 0.264141,0.82755 0.394386,1.23708 0.143228,-0.10941 0.286793,-0.21676 0.430697,-0.32205 0.121241,-0.0887 0.300515,-0.0186 0.392111,0.1624 1.141491,2.25564 0.770419,4.38038 0.161961,6.04493 -0.606543,1.65931 -1.469473,2.93561 -1.469473,2.93561"
           inkscape:original-d="m 60.887236,112.84479 c 0,0 -4.703419,-6.06078 -0.664311,-9.73237 0.161239,-0.14657 0.435194,-0.14092 0.601336,6.1e-4 l 0.592144,0.50442 0.747766,-1.09495 c 0.08571,-0.12551 0.270834,-0.12551 0.356548,0 l 0.747766,1.09495 0.592144,-0.50442 c 0.166142,-0.14153 0.440097,-0.14718 0.601336,-6.1e-4 4.039108,3.67159 -0.664311,9.73237 -0.664311,9.73237" /><path
           style="opacity:0.0746268;fill:#000000;fill-opacity:1;stroke-width:0.079375"
           id="path493"
           d="m 55.094759,111.74414 c 0,0 -0.205391,-4.41538 0.609558,-7.18221 0,0 -0.646349,3.6695 -0.249673,7.24189 -0.119897,-0.0205 -0.239858,-0.0404 -0.359885,-0.0597 z"
           inkscape:original-d="m 61.107836,112.83785 c 0,0 -0.830209,-4.38489 0.04677,-7.34323 0,0 -0.561264,3.83532 0.537882,7.34323 z" /><path
           style="opacity:0.0746268;fill:#000000;fill-opacity:1;stroke-width:0.079375"
           id="path494"
           d="m 56.587071,112.01721 c 0,0 0.918031,-4.00721 0.621847,-6.94959 0,0 -0.01782,3.71478 -0.9805,6.87779 0.119616,0.0233 0.239167,0.0472 0.358653,0.0718 z"
           inkscape:original-d="m 63.536332,112.83785 c 0,0 0.830209,-4.38489 -0.04677,-7.34323 0,0 0.561264,3.83532 -0.537882,7.34323 z" /><path
           style="opacity:0.0746268;fill:#000000;fill-opacity:1;stroke-width:0.079375"
           id="path495"
           d="m 55.751639,111.86282 c 0.189386,-1.79026 0.380035,-3.57604 0.571947,-5.35736 -0.120813,1.80272 -0.2429,3.60107 -0.366262,5.39505 -0.06854,-0.0128 -0.137102,-0.0253 -0.205685,-0.0377 z"
           inkscape:original-d="m 62.176392,112.84479 0.167373,-5.58933 0.167374,5.58933 z" /></g><g
         transform="rotate(180,45.156097,156.21055)"
         id="g499"
         inkscape:label="petala"><path
           style="opacity:1;fill:#ec771a;fill-opacity:1;stroke-width:0.079375"
           id="path496"
           d="m 62.119617,107.30163 c 0,0 -1.172627,-0.9846 -2.000667,-2.19951 -0.820522,-1.20387 -1.314018,-2.66203 0.770953,-3.70141 0.168509,-0.084 0.484609,-0.0726 0.689998,0.0188 0.243881,0.10855 0.485874,0.21745 0.725978,0.32671 0.251516,-0.21497 0.504656,-0.43128 0.759421,-0.64893 0.08755,-0.0748 0.302106,-0.0699 0.412063,0.0101 0.31952,0.23228 0.632924,0.46545 0.940214,0.6995 0.21441,-0.0976 0.429756,-0.19565 0.646037,-0.29415 0.181964,-0.0829 0.497173,-0.0784 0.689898,0.0181 2.410354,1.20699 2.131892,2.75956 1.35788,3.94177 -0.784569,1.19833 -2.054203,2.03362 -2.054203,2.03362"
           inkscape:original-d="m 60.887236,112.84479 c 0,0 -4.703419,-6.06078 -0.664311,-9.73237 0.161239,-0.14657 0.435194,-0.14092 0.601336,6.1e-4 l 0.592144,0.50442 0.747766,-1.09495 c 0.08571,-0.12551 0.270834,-0.12551 0.356548,0 l 0.747766,1.09495 0.592144,-0.50442 c 0.166142,-0.14153 0.440097,-0.14718 0.601336,-6.1e-4 4.039108,3.67159 -0.664311,9.73237 -0.664311,9.73237" /><path
           style="opacity:0.0746268;fill:#000000;fill-opacity:1;stroke-width:0.079375"
           id="path497"
           d="m 62.342343,107.31298 c 0,0 -0.920394,-2.71982 -0.179711,-4.4317 0,0 -0.273494,2.29037 0.769875,4.47278 z"
           inkscape:original-d="m 61.107836,112.83785 c 0,0 -0.830209,-4.38489 0.04677,-7.34323 0,0 -0.561264,3.83532 0.537882,7.34323 z" /><path
           style="opacity:0.0746268;fill:#000000;fill-opacity:1;stroke-width:0.079375"
           id="path498"
           d="m 64.793736,107.48363 c 0,0 1.072068,-2.62667 -0.031,-4.50804 0,0 0.704088,2.36804 -0.559168,4.46695 z"
           inkscape:original-d="m 63.536332,112.83785 c 0,0 0.830209,-4.38489 -0.04677,-7.34323 0,0 0.561264,3.83532 -0.537882,7.34323 z" /><path
           style="opacity:0.0746268;fill:#000000;fill-opacity:1;stroke-width:0.079375"
           id="path499"
           d="m 63.420801,107.39226 c 0.102741,-1.12124 0.151399,-2.24969 0.145974,-3.38535 0.126892,1.14097 0.190857,2.27726 0.191896,3.40888 z"
           inkscape:original-d="m 62.176392,112.84479 0.167373,-5.58933 0.167374,5.58933 z" /></g><g
         transform="rotate(90,5.1455495,139.01664)"
         id="g503"
         inkscape:label="petala"><path
           style="opacity:1;fill:#ec771a;fill-opacity:1;stroke-width:0.079375"
           id="path500"
           d="m 68.547402,114.0264 c 0,0 -0.55053,-1.47136 -0.739376,-3.27396 -0.189568,-1.80949 -0.0189,-3.91233 1.251978,-5.81764 0.101372,-0.15198 0.250086,-0.17533 0.327942,-0.0595 0.09257,0.13767 0.185612,0.27609 0.279125,0.41528 0.16875,-0.37183 0.336495,-0.74858 0.503236,-1.13024 0.0573,-0.13117 0.158089,-0.15566 0.194363,-0.0459 0.105538,0.31931 0.212294,0.64144 0.320266,0.9664 0.122173,-0.18831 0.244007,-0.37869 0.365503,-0.57113 0.102173,-0.16184 0.252988,-0.20728 0.330542,-0.0853 0.977892,1.53806 0.738947,4.07243 0.210695,6.11748 -0.529983,2.05176 -1.335491,3.53577 -1.335491,3.53577"
           inkscape:original-d="m 60.887236,112.84479 c 0,0 -4.703419,-6.06078 -0.664311,-9.73237 0.161239,-0.14657 0.435194,-0.14092 0.601336,6.1e-4 l 0.592144,0.50442 0.747766,-1.09495 c 0.08571,-0.12551 0.270834,-0.12551 0.356548,0 l 0.747766,1.09495 0.592144,-0.50442 c 0.166142,-0.14153 0.440097,-0.14718 0.601336,-6.1e-4 4.039108,3.67159 -0.664311,9.73237 -0.664311,9.73237" /><path
           style="opacity:0.0746268;fill:#000000;fill-opacity:1;stroke-width:0.079375"
           id="path501"
           d="m 68.677201,114.02707 c 0,0 -0.05719,-4.12837 0.679585,-6.93644 0,0 -0.672514,3.63465 -0.336966,6.95285 -0.114271,-0.005 -0.228478,-0.0103 -0.342619,-0.0164 z"
           inkscape:original-d="m 61.107836,112.83785 c 0,0 -0.830209,-4.38489 0.04677,-7.34323 0,0 -0.561264,3.83532 0.537882,7.34323 z" /><path
           style="opacity:0.0746268;fill:#000000;fill-opacity:1;stroke-width:0.079375"
           id="path502"
           d="m 70.10291,114.0701 c 0,0 0.815209,-4.31913 0.554901,-7.18123 0,0 0.04713,3.73433 -0.898751,7.17692 0.114552,0.002 0.229168,0.004 0.34385,0.004 z"
           inkscape:original-d="m 63.536332,112.83785 c 0,0 0.830209,-4.38489 -0.04677,-7.34323 0,0 0.561264,3.83532 -0.537882,7.34323 z" /><path
           style="opacity:0.0746268;fill:#000000;fill-opacity:1;stroke-width:0.079375"
           id="path503"
           d="m 69.303106,114.06082 c 0.190472,-1.78618 0.379681,-3.57683 0.567626,-5.37195 -0.12497,1.78824 -0.248665,3.58085 -0.371087,5.37783 -0.06553,-0.002 -0.131047,-0.004 -0.196539,-0.006 z"
           inkscape:original-d="m 62.176392,112.84479 0.167373,-5.58933 0.167374,5.58933 z" /></g><g
         id="g506"
         inkscape:label="Meio"
         transform="translate(-34.528124,79.904163)"><path
           style="display:inline;fill:#ec771a;fill-opacity:1;stroke-width:0.079375"
           d="m 60.267228,120.89867 c 1.004552,0.0702 2.00635,0.14117 3.005395,0.21297 0.648901,0.46936 1.327196,0.93319 2.034884,1.39151 -0.214273,0.61465 -0.417838,1.23395 -0.610696,1.8579 -0.688351,0.30293 -1.388561,0.61168 -2.100633,0.92624 -1.053352,-0.0859 -2.10572,-0.17202 -3.157102,-0.25845 -0.550285,-0.24851 -1.090428,-0.49916 -1.620427,-0.75196 -0.05979,-0.47924 -0.105718,-0.95867 -0.137795,-1.43828 0.283017,-0.51796 0.571757,-1.03266 0.866221,-1.5441 0.579379,-0.13429 1.152763,-0.26623 1.720153,-0.39583 z"
           id="path504"
           inkscape:original-d="m 60.936846,112.91093 3.274218,-0.1819 2.315104,2.00091 -0.595312,3.25768 -2.10013,1.81901 -3.125391,-0.0661 -1.686719,-1.02526 -0.380338,-2.28203 0.562239,-2.59623 z" /><path
           style="display:inline;fill:#ec7c23;fill-opacity:1;stroke-width:0.079375"
           d="m 59.530554,121.23029 c -0.509129,0.46704 -1.021947,0.93974 -1.538454,1.41809 0.02897,0.51978 0.07412,1.03938 0.135446,1.55883 0.598214,0.23723 1.206286,0.47226 1.824216,0.70508 0.944471,0.0531 1.888072,0.10651 2.830803,0.16014 0.604216,-0.33672 1.199151,-0.66814 1.784805,-0.99427 0.11719,-0.48734 0.242215,-0.97227 0.375074,-1.4548 -0.683909,-0.43692 -1.340979,-0.87892 -1.97121,-1.32599 -1.138966,-0.0248 -2.285859,-0.0472 -3.44068,-0.0671 z"
           id="path505"
           inkscape:original-d="m 60.225778,113.57239 -1.30638,2.51354 0.396875,2.48047 1.885156,0.92604 2.811198,-0.0661 1.785937,-1.9017 0.347266,-2.53008 -2.232422,-1.90169 z" /><path
           style="display:inline;fill:#ec822e;fill-opacity:1;stroke-width:0.079375"
           d="m 58.772736,123.07689 c 0.04701,0.3427 0.101467,0.68521 0.163376,1.02753 0.713027,0.20127 1.434448,0.40051 2.164264,0.5977 0.544887,-0.0372 1.087132,-0.0736 1.626734,-0.10906 0.318278,-0.16432 0.63402,-0.32726 0.947227,-0.48883 0.103499,-0.43036 0.213248,-0.85895 0.329249,-1.28575 -0.341302,-0.26973 -0.673459,-0.54102 -0.996471,-0.81388 -0.414329,-0.15319 -0.824419,-0.30737 -1.23027,-0.46254 -0.756297,0.0363 -1.518376,0.0745 -2.286234,0.11457 -0.244623,0.47077 -0.483915,0.94419 -0.717875,1.42026 z"
           id="path506"
           inkscape:original-d="m 59.79583,116.66471 0.314193,1.63711 2.215885,0.71106 1.620573,-0.38033 0.942578,-0.94258 0.28112,-2.21589 -1.124479,-1.20716 -1.372526,-0.56224 -2.397787,0.56224 z" /></g><g
         id="g508"
         inkscape:label="polen"
         transform="translate(-34.528124,79.904163)"><path
           style="display:inline;fill:#dca912;fill-opacity:1;stroke-width:0.0946626"
           d="m 60.535044,121.91732 c 0,0 0.616947,-0.88331 1.24857,0.0381 0,0 1.010915,-0.64819 0.997752,0.23998 0,0 1.040929,-0.16497 0.441587,0.47837 0,0 0.862694,0.16847 0.19469,0.58761 0,0 0.656893,0.39036 -0.16337,0.55594 -0.0589,0.0359 0.543684,0.80665 -1.164803,0.55162 0,0 -0.657585,0.57757 -1.227831,-0.004 -0.04893,-0.004 -1.194768,0.164 -1.130686,-0.40065 0,0 -1.203014,-0.0336 -0.184957,-0.62178 0,0 -0.936263,-0.22523 -0.03532,-0.48332 0,0 -0.842126,-0.58948 0.352714,-0.5334 0.03837,-0.003 -0.74391,-0.86682 0.67165,-0.40858 z"
           id="path507"
           sodipodi:nodetypes="ccccccccccccc"
           inkscape:original-d="m 61.42322,114.52359 c 0,0 0.512757,-1.56785 1.321333,-0.13806 0,0 0.99593,-1.24244 1.084676,0.23666 0,0 1.084675,-0.44373 0.512756,0.72969 0,0 0.917043,0.14791 0.246516,0.95649 0,0 0.700109,0.56206 -0.13805,0.95649 -0.05916,0.069 0.581781,1.28189 -1.1537,1.07481 0,0 -0.621223,1.02551 -1.232585,0.14791 -0.0493,0 -1.173421,0.41415 -1.173421,-0.51275 0,0 -1.212865,0.0986 -0.266239,-0.98607 0,0 -0.986068,-0.23666 -0.108467,-0.77899 0,0 -0.966347,-0.8283 0.276098,-0.91705 0.03944,-0.01 -0.936767,-1.29175 0.631083,-0.76913 z" /><path
           style="fill:#715309;fill-opacity:1;stroke-width:0.0878048"
           id="path508"
           transform="matrix(0.40662645,-0.29806829,0.27882915,0.43468358,31.092861,54.699432)"
           inkscape:path-effect="#path-effect512"
           sodipodi:type="arc"
           sodipodi:cx="-14.11324"
           sodipodi:cy="129.90146"
           sodipodi:rx="0.38447267"
           sodipodi:ry="0.31419271"
           d="m -22.903651,139.90659 c 0.05164,0.17581 -0.09783,0.29138 -0.335653,0.25733 -0.237823,-0.034 -0.474708,-0.2051 -0.52699,-0.38159 -0.05228,-0.1765 0.100222,-0.29089 0.338824,-0.25631 0.238602,0.0346 0.47218,0.20476 0.523819,0.38057 z m 0.931623,0.54249 c 0.147694,0.13612 0.168182,0.33011 0.04587,0.43311 -0.122318,0.103 -0.342279,0.0762 -0.491952,-0.0609 -0.149672,-0.1371 -0.170527,-0.33126 -0.04648,-0.43384 0.124051,-0.10259 0.344869,-0.0745 0.492564,0.0616 z m 1.29884,0.92477 c 0.154487,0.16704 0.148943,0.37994 -0.01265,0.47507 -0.161592,0.0951 -0.419796,0.0367 -0.576837,-0.13175 -0.15704,-0.16843 -0.151205,-0.38119 0.01277,-0.47567 0.163974,-0.0945 0.422228,-0.0347 0.576717,0.13235 z m 1.143888,1.49824 c -0.04841,0.13151 -0.268201,0.12818 -0.492643,-0.009 -0.224441,-0.13676 -0.36671,-0.35422 -0.316963,-0.48555 0.04975,-0.13132 0.272006,-0.12648 0.494698,0.01 0.222691,0.13614 0.363322,0.35297 0.314908,0.48447 z m -4.661927,-2.89802 c 0.05755,0.13393 -0.03441,0.23844 -0.206246,0.23301 -0.17183,-0.005 -0.359174,-0.1189 -0.417352,-0.25334 -0.05818,-0.13445 0.03524,-0.23839 0.207815,-0.2326 0.172573,0.006 0.358237,0.11899 0.415783,0.25293 z m 1.295207,1.19465 c -0.109326,0.10274 -0.3743,0.0324 -0.592596,-0.15823 -0.218294,-0.19069 -0.304754,-0.42778 -0.193175,-0.52999 0.11158,-0.10221 0.377481,-0.0305 0.593157,0.15889 0.215674,0.18941 0.30194,0.42659 0.192614,0.52933 z m 1.046743,0.89965 c -0.04978,0.12343 -0.263373,0.11697 -0.478601,-0.0155 -0.215228,-0.13245 -0.348911,-0.33985 -0.297902,-0.4631 0.05101,-0.12326 0.266772,-0.11544 0.480395,0.0164 0.213622,0.13186 0.345887,0.33871 0.296108,0.46215 z m 1.073345,0.59077 c 0.160605,0.0933 0.254138,0.28544 0.209775,0.42951 -0.04436,0.14407 -0.21027,0.18571 -0.372115,0.092 -0.161844,-0.0937 -0.257027,-0.28664 -0.211731,-0.4306 0.0453,-0.14395 0.213466,-0.1842 0.374071,-0.0909 z m -3.324838,-1.31834 c -0.05918,0.15039 -0.319486,0.14507 -0.583665,-0.0134 -0.264179,-0.15845 -0.429806,-0.40881 -0.368887,-0.55896 0.06092,-0.15014 0.32444,-0.14286 0.586342,0.0148 0.2619,0.15765 0.425389,0.40717 0.36621,0.55756 z m 0.98757,0.56081 c 0.116756,0.16906 0.06037,0.34244 -0.126753,0.38665 -0.187128,0.0442 -0.435721,-0.0575 -0.55424,-0.22772 -0.118519,-0.17019 -0.06074,-0.34299 0.128239,-0.38655 0.188976,-0.0436 0.435998,0.0585 0.552754,0.22762 z m 1.290164,0.99256 c 0.09551,0.1946 -0.01672,0.35527 -0.252338,0.35802 -0.235616,0.003 -0.506935,-0.15377 -0.603882,-0.34946 -0.09695,-0.1957 0.01815,-0.35527 0.255411,-0.35724 0.237263,-0.002 0.5053,0.15408 0.600809,0.34868 z m 1.246957,1.09592 c 0.04083,0.18282 -0.126154,0.28326 -0.375188,0.22338 -0.249034,-0.0599 -0.485932,-0.25755 -0.526929,-0.44087 -0.041,-0.18331 0.129572,-0.28232 0.378763,-0.22208 0.249192,0.0602 0.482521,0.25675 0.523354,0.43957 z m -4.80063,-2.35088 c -0.144862,0.0571 -0.402946,-0.0653 -0.575696,-0.274 -0.172749,-0.20865 -0.192969,-0.42292 -0.04599,-0.47933 0.146979,-0.0564 0.403813,0.0665 0.574412,0.27387 0.170599,0.20739 0.192137,0.4224 0.04727,0.47946 z m 1.346693,0.9246 c -0.07663,0.11006 -0.311438,0.0706 -0.525564,-0.0892 -0.214126,-0.15982 -0.324458,-0.37822 -0.246189,-0.48794 0.07827,-0.10972 0.314561,-0.0689 0.526663,0.09 0.212101,0.15894 0.321723,0.37712 0.24509,0.48717 z m 1.281709,1.14446 c -0.101143,0.11881 -0.379157,0.0551 -0.622085,-0.14378 -0.242925,-0.19886 -0.355928,-0.45562 -0.252367,-0.57389 0.103561,-0.11827 0.38299,-0.0529 0.623012,0.14462 0.24002,0.19749 0.352582,0.45423 0.25144,0.57305 z m 0.966382,0.28411 c 0.168918,0.12478 0.238393,0.33527 0.155657,0.47021 -0.08274,0.13494 -0.2872,0.1435 -0.458021,0.0179 -0.170821,-0.12561 -0.241385,-0.33663 -0.15713,-0.47127 0.08426,-0.13463 0.290576,-0.14162 0.459494,-0.0168 z" /></g></g></g></svg>
