<?xml version="1.0" encoding="UTF-8" standalone="no"?>
<!-- Created with Inkscape (http://www.inkscape.org/) -->

<svg
   width="500.00003"
   height="1079.75"
   viewBox="0 0 132.29168 285.68385"
   version="1.1"
   id="svg1"
   inkscape:version="1.4.2 (f4327f4, 2025-05-13)"
   sodipodi:docname="flor 2.svg"
   inkscape:export-batch-path="Planta"
   inkscape:export-batch-name=""
   xmlns:inkscape="http://www.inkscape.org/namespaces/inkscape"
   xmlns:sodipodi="http://sodipodi.sourceforge.net/DTD/sodipodi-0.dtd"
   xmlns="http://www.w3.org/2000/svg"
   xmlns:svg="http://www.w3.org/2000/svg">
  <sodipodi:namedview
     id="namedview1"
     pagecolor="#acb3ef"
     bordercolor="#000000"
     borderopacity="0.25"
     inkscape:showpageshadow="2"
     inkscape:pageopacity="0.0"
     inkscape:pagecheckerboard="0"
     inkscape:deskcolor="#d1d1d1"
     inkscape:document-units="mm"
     inkscape:zoom="0.70710677"
     inkscape:cx="-81.317281"
     inkscape:cy="714.88496"
     inkscape:window-width="1920"
     inkscape:window-height="1051"
     inkscape:window-x="1591"
     inkscape:window-y="-9"
     inkscape:window-maximized="1"
     inkscape:current-layer="layer5"
     showguides="false">
    <sodipodi:guide
       position="56.438934,150.4487"
       orientation="0,-1"
       id="guide224"
       inkscape:locked="false" />
  </sodipodi:namedview>
  <defs
     id="defs1" />
  <g
     inkscape:groupmode="layer"
     id="g63"
     inkscape:label="4"
     style="display:inline">
    <path
       id="path55"
       style="display:inline;fill:#6d8017;fill-opacity:1;stroke:none;stroke-width:0.0870998;stroke-dasharray:none;stroke-opacity:1"
       inkscape:label="Base"
       d="m 71.648774,272.46295 -1.235047,-0.54774 -0.4338,13.66548 0.675931,0.10315 z"
       sodipodi:nodetypes="ccccc" />
    <path
       id="path56"
       style="display:inline;fill:#637807;fill-opacity:1;stroke:none;stroke-width:0.0870998;stroke-dasharray:none;stroke-opacity:1"
       inkscape:label="base2"
       d="m 73.07009,262.83945 c -0.509303,-0.28127 -1.021083,-0.38125 -1.252121,-0.35622 -0.462065,0.05 -2.066732,0.10392 -2.031183,3.22422 0.03554,3.12023 0.665304,6.48972 0.665304,6.48972 l -0.03628,0.0622 1.132956,0.67695 0.805051,-1.68748 c 0,0 2.395841,-5.56548 1.953565,-6.96565 -0.221137,-0.70009 -0.727976,-1.16259 -1.237284,-1.44382 z"
       sodipodi:nodetypes="sssccccsss" />
    <path
       id="path57"
       style="display:inline;opacity:0.136;fill:#000000;fill-opacity:1;stroke:none;stroke-width:0.0870998;stroke-dasharray:none;stroke-opacity:1"
       inkscape:label="S3"
       d="m 70.06135,283.02776 0.603507,-7.95806 -0.279112,-2.09239 z"
       sodipodi:nodetypes="cccc" />
    <path
       id="path58"
       style="display:none;fill:#6a5706;fill-opacity:1;stroke:none;stroke-width:0.0870998;stroke-dasharray:none;stroke-opacity:1"
       inkscape:label="etc"
       d="m 66.527122,265.77278 c -0.256402,0.0341 -0.486534,0.0957 -0.669126,0.16501 0.895113,1.78909 3.487882,7.11307 3.631427,9.02867 0.05049,0.055 0.07769,0.084 0.07769,0.084 l 0.06691,0.7882 0.403744,1.26794 -0.102073,2.26822 0.305385,5.81005 0.615133,0.30248 -0.01097,-6.5821 -0.319842,-3.82645 c -0.615889,-6.72344 -2.977045,-8.80184 -2.977045,-8.80184 z"
       sodipodi:nodetypes="ccccccccccccc" />
    <path
       id="path59"
       style="opacity:0.066;fill:#ffffff;fill-opacity:1;stroke:none;stroke-width:0.0870998;stroke-dasharray:none;stroke-opacity:1"
       d="m 72.870236,262.7384 0.590762,0.9737 c 0,0 1.228884,2.56545 -1.862394,8.56778 l 0.02491,0.49185 0.277148,-0.57783 c 0,0 2.823346,-6.19615 2.40673,-7.91067 -0.196106,-0.80704 -0.865803,-1.27954 -1.437157,-1.54484 z"
       inkscape:label="L1"
       sodipodi:nodetypes="cccccscc" />
    <path
       id="path60"
       style="opacity:0.093;fill:#000000;fill-opacity:1;stroke:none;stroke-width:0.0870998;stroke-dasharray:none;stroke-opacity:1"
       inkscape:label="S1"
       d="m 70.631838,262.92934 c -0.461275,0.40548 -0.863023,1.19958 -0.845032,2.77808 0.0129,1.13313 0.104256,2.29923 0.215251,3.32473 -0.03414,-3.01624 0.382288,-5.12501 0.629785,-6.10281 z" />
    <path
       id="path61"
       style="display:none;opacity:1;fill:#6a5706;fill-opacity:1;stroke:none;stroke-width:0.0870998;stroke-dasharray:none;stroke-opacity:1"
       inkscape:label="etc"
       d="m 65.902794,272.94267 c 0.316348,0.95775 1.097587,2.96025 2.746252,5.48627 0.568267,0.71031 1.090663,1.32016 1.46981,1.75107 -1.048323,-1.65597 -3.119514,-5.5154 -4.020994,-7.6683 -0.07777,0.12238 -0.146801,0.26482 -0.195068,0.43096 z" />
    <path
       id="path62"
       style="opacity:1;fill:#6b8545;fill-opacity:1;stroke:none;stroke-width:0.0870998;stroke-dasharray:none;stroke-opacity:1"
       inkscape:label="Verde"
       d="m 72.217182,262.51823 c -0.153223,-0.0317 -0.283235,-0.0431 -0.375801,-0.0369 -0.0077,-2.6e-4 -0.01621,10e-4 -0.02324,10e-4 -0.162436,0.0176 -0.466145,0.0357 -0.790146,0.18734 -0.395764,2.30021 -0.72131,6.66817 -0.726331,8.62808 0.01965,0.12619 0.03814,0.24118 0.0549,0.34349 0.0324,0.19778 0.05852,0.3484 0.07523,0.44251 0.907683,-1.693 1.579784,-7.5765 1.785541,-9.56641 z"
       sodipodi:nodetypes="sccccscss" />
    <path
       id="path63"
       style="opacity:0.128;fill:#000000;fill-opacity:1;stroke:none;stroke-width:0.0870998;stroke-dasharray:none;stroke-opacity:1"
       inkscape:label="S2"
       d="m 70.356407,271.64214 c -0.05917,-2.35054 0.884701,-8.71951 0.884701,-8.71951 l 0.600269,-0.44131 c -0.0077,-2.5e-4 -0.01621,0.001 -0.02324,0.001 -0.162436,0.0176 -0.466145,0.0357 -0.790147,0.18734 -0.395765,2.30021 -0.721309,6.66817 -0.72633,8.62807 0.01965,0.1262 0.03814,0.24117 0.05491,0.3435 z" />
    <rect
       style="display:inline;fill:#ab07ff;fill-opacity:0;stroke-width:0.0836838"
       id="rect4"
       width="132.29167"
       height="285.31024"
       x="3.088379e-08"
       y="0"
       inkscape:label="frame" />
  </g>
</svg>
