<?xml version="1.0" encoding="UTF-8" standalone="no"?>
<!-- Created with Inkscape (http://www.inkscape.org/) -->

<svg
   width="500.00003"
   height="1079.75"
   viewBox="0 0 132.29168 285.68385"
   version="1.1"
   id="svg1"
   inkscape:version="1.4.2 (f4327f4, 2025-05-13)"
   sodipodi:docname="flor 2.svg"
   inkscape:export-batch-path="Planta"
   inkscape:export-batch-name=""
   xmlns:inkscape="http://www.inkscape.org/namespaces/inkscape"
   xmlns:sodipodi="http://sodipodi.sourceforge.net/DTD/sodipodi-0.dtd"
   xmlns="http://www.w3.org/2000/svg"
   xmlns:svg="http://www.w3.org/2000/svg">
  <sodipodi:namedview
     id="namedview1"
     pagecolor="#acb3ef"
     bordercolor="#000000"
     borderopacity="0.25"
     inkscape:showpageshadow="2"
     inkscape:pageopacity="0.0"
     inkscape:pagecheckerboard="0"
     inkscape:deskcolor="#d1d1d1"
     inkscape:document-units="mm"
     inkscape:zoom="0.70710677"
     inkscape:cx="-81.317281"
     inkscape:cy="714.88496"
     inkscape:window-width="1920"
     inkscape:window-height="1051"
     inkscape:window-x="1591"
     inkscape:window-y="-9"
     inkscape:window-maximized="1"
     inkscape:current-layer="layer5"
     showguides="false">
    <sodipodi:guide
       position="56.438934,150.4487"
       orientation="0,-1"
       id="guide224"
       inkscape:locked="false" />
  </sodipodi:namedview>
  <defs
     id="defs1" />
  <g
     inkscape:groupmode="layer"
     id="g72"
     inkscape:label="5"
     style="display:inline">
    <path
       id="path64"
       style="display:inline;fill:#6d8017;fill-opacity:1;stroke:none;stroke-width:0.100041;stroke-dasharray:none;stroke-opacity:1"
       inkscape:label="Base"
       d="m 71.245657,270.49856 -1.418554,-0.62913 -0.498255,15.69593 0.776363,0.11848 z"
       sodipodi:nodetypes="ccccc" />
    <path
       id="path65"
       style="display:inline;fill:#637807;fill-opacity:1;stroke:none;stroke-width:0.100041;stroke-dasharray:none;stroke-opacity:1"
       inkscape:label="base2"
       d="m 72.878155,259.44517 c -0.584976,-0.32306 -1.172798,-0.43789 -1.438164,-0.40914 -0.53072,0.0574 -2.373812,0.11936 -2.332981,3.70328 0.04082,3.58384 0.764156,7.45398 0.764156,7.45398 l -0.04167,0.0714 1.301293,0.77753 0.924668,-1.93821 c 0,0 2.751821,-6.39241 2.24383,-8.00062 -0.253994,-0.80411 -0.83614,-1.33533 -1.421123,-1.65835 z"
       sodipodi:nodetypes="sssccccsss" />
    <path
       id="path66"
       style="display:inline;opacity:0.136;fill:#000000;fill-opacity:1;stroke:none;stroke-width:0.100041;stroke-dasharray:none;stroke-opacity:1"
       inkscape:label="S3"
       d="m 69.422369,282.63311 0.693178,-9.14049 -0.320583,-2.40328 z"
       sodipodi:nodetypes="cccc" />
    <path
       id="path67"
       style="display:none;fill:#6a5706;fill-opacity:1;stroke:none;stroke-width:0.100041;stroke-dasharray:none;stroke-opacity:1"
       inkscape:label="etc"
       d="m 65.363017,262.81434 c -0.294499,0.0392 -0.558825,0.10992 -0.768547,0.18953 1.028111,2.05492 4.006121,8.16995 4.170994,10.37017 0.05799,0.0632 0.08923,0.0965 0.08923,0.0965 l 0.07685,0.90531 0.463733,1.45633 -0.117239,2.60524 0.35076,6.67332 0.706531,0.34743 -0.0126,-7.56009 -0.367365,-4.39499 c -0.707399,-7.72243 -3.419382,-10.10964 -3.419382,-10.10964 z"
       sodipodi:nodetypes="ccccccccccccc" />
    <path
       id="path68"
       style="opacity:0.066;fill:#ffffff;fill-opacity:1;stroke:none;stroke-width:0.100041;stroke-dasharray:none;stroke-opacity:1"
       d="m 72.648606,259.32911 0.678539,1.11837 c 0,0 1.411475,2.94663 -2.139113,9.84081 l 0.02861,0.56493 0.318328,-0.66369 c 0,0 3.242846,-7.11679 2.764328,-9.08606 -0.225244,-0.92695 -0.994447,-1.46965 -1.650694,-1.77437 z"
       inkscape:label="L1"
       sodipodi:nodetypes="cccccscc" />
    <path
       id="path69"
       style="opacity:0.093;fill:#000000;fill-opacity:1;stroke:none;stroke-width:0.100041;stroke-dasharray:none;stroke-opacity:1"
       inkscape:label="S1"
       d="m 70.077622,259.54842 c -0.529813,0.46573 -0.991253,1.37782 -0.970589,3.19085 0.01482,1.3015 0.119746,2.64086 0.247233,3.81873 -0.03921,-3.4644 0.43909,-5.8865 0.72336,-7.00958 z" />
    <path
       id="path70"
       style="display:none;opacity:1;fill:#6a5706;fill-opacity:1;stroke:none;stroke-width:0.100041;stroke-dasharray:none;stroke-opacity:1"
       inkscape:label="etc"
       d="m 64.645924,271.04956 c 0.363352,1.10005 1.26067,3.40009 3.154297,6.30143 0.652702,0.81585 1.252717,1.51631 1.688199,2.01125 -1.204086,-1.90202 -3.58302,-6.33489 -4.618444,-8.80768 -0.08932,0.14057 -0.168613,0.30417 -0.224052,0.495 z" />
    <path
       id="path71"
       style="opacity:1;fill:#6b8545;fill-opacity:1;stroke:none;stroke-width:0.100041;stroke-dasharray:none;stroke-opacity:1"
       inkscape:label="Verde"
       d="m 71.89852,259.07623 c 0.01137,-0.0663 -0.661351,-1.17783 -1.365879,0.17394 -0.454568,2.64198 -0.828484,7.65894 -0.834251,9.91006 0.02257,0.14494 0.04381,0.27701 0.06306,0.39453 0.03721,0.22716 0.04707,0.59826 0.06626,0.70635 l 0.237037,0.14914 c 0.499199,0.3141 1.468636,-9.21001 1.833951,-11.33505 z"
       sodipodi:nodetypes="sccscsss" />
    <path
       id="path72"
       style="opacity:0.128;fill:#000000;fill-opacity:1;stroke:none;stroke-width:0.100041;stroke-dasharray:none;stroke-opacity:1"
       inkscape:label="S2"
       d="m 69.761266,269.55579 c -0.05808,-2.30717 0.963245,-9.73074 0.899142,-10.20558 l 0.375546,-0.45752 0.753253,0.0203 c -0.324459,-0.41663 -0.539047,-0.31783 -0.547122,-0.31783 -0.203359,-0.0134 -0.414532,0.11823 -0.70945,0.65503 -0.454569,2.64198 -0.828483,7.65894 -0.83425,9.91005 0.02257,0.14495 0.04381,0.277 0.06307,0.39453 z"
       sodipodi:nodetypes="ccccccccc" />
    <rect
       style="display:inline;fill:#ab07ff;fill-opacity:0;stroke-width:0.0836838"
       id="rect5"
       width="132.29167"
       height="285.31024"
       x="3.088379e-08"
       y="0"
       inkscape:label="frame" />
  </g>
</svg>
