<?xml version="1.0" encoding="UTF-8" standalone="no"?>
<!-- Created with Inkscape (http://www.inkscape.org/) -->

<svg
   width="839.42712"
   height="552.9071"
   viewBox="0 0 839.42712 552.9071"
   version="1.1"
   id="svg1"
   xml:space="preserve"
   xmlns:xlink="http://www.w3.org/1999/xlink"
   xmlns="http://www.w3.org/2000/svg"
   xmlns:svg="http://www.w3.org/2000/svg"><defs
     id="defs1"><linearGradient
       id="linearGradient179"><stop
         style="stop-color:#ffffff;stop-opacity:1;"
         offset="0"
         id="stop179" /><stop
         style="stop-color:#ffffff;stop-opacity:0;"
         offset="1"
         id="stop180" /></linearGradient><linearGradient
       id="linearGradient177"><stop
         style="stop-color:#ffffff;stop-opacity:1;"
         offset="0"
         id="stop177" /><stop
         style="stop-color:#ffffff;stop-opacity:0;"
         offset="1"
         id="stop178" /></linearGradient><linearGradient
       id="linearGradient174"><stop
         style="stop-color:#ffffff;stop-opacity:1;"
         offset="0"
         id="stop174" /><stop
         style="stop-color:#ffffff;stop-opacity:0.52156863;"
         offset="0.13586099"
         id="stop181" /><stop
         style="stop-color:#ffffff;stop-opacity:0;"
         offset="1"
         id="stop175" /></linearGradient><clipPath
       clipPathUnits="userSpaceOnUse"
       id="clipPath173"><use
         x="0"
         y="0"
         xlink:href="#g172"
         id="use173" /></clipPath><linearGradient
       xlink:href="#linearGradient174"
       id="linearGradient176"
       gradientUnits="userSpaceOnUse"
       x1="662.55609"
       y1="-237.33864"
       x2="1391.0347"
       y2="-237.33864" /><linearGradient
       xlink:href="#linearGradient177"
       id="linearGradient178"
       x1="681.69507"
       y1="-141.51392"
       x2="1354.8607"
       y2="-141.51392"
       gradientUnits="userSpaceOnUse" /><linearGradient
       xlink:href="#linearGradient179"
       id="linearGradient180"
       x1="628.03296"
       y1="-6.0404205"
       x2="1329.4829"
       y2="-6.0404205"
       gradientUnits="userSpaceOnUse" /></defs><g
     id="g113"
     style="display:inline"
     transform="translate(-540.28645,-65.085664)"><rect
       style="display:none;fill:none;fill-opacity:1;stroke:#ffffff;stroke-width:20.3;stroke-dasharray:none;stroke-opacity:1"
       id="rect78"
       width="500"
       height="500"
       x="710"
       y="84.64193" /><path
       id="path78"
       style="baseline-shift:baseline;display:none;overflow:visible;opacity:1;vector-effect:none;fill:#ffffff;enable-background:accumulate;stop-color:#000000;stop-opacity:1"
       d="m 1220.1504,594.79102 -20.3008,-20.29883 H 720.15039 l -20.30078,20.29883 z" /><path
       id="path79"
       style="baseline-shift:baseline;display:none;overflow:visible;opacity:1;vector-effect:none;fill:#ffffff;enable-background:accumulate;stop-color:#000000;stop-opacity:1"
       d="m 1199.8496,574.49023 v 0.002 l 20.3008,20.29883 V 74.492188 l -20.3008,20.298828 z" /><path
       id="path80"
       style="baseline-shift:baseline;display:none;overflow:visible;opacity:1;vector-effect:none;fill:#ffffff;enable-background:accumulate;stop-color:#000000;stop-opacity:1"
       d="M 699.84961,74.492188 V 594.79102 l 20.30078,-20.29883 V 94.791016 Z" /><path
       id="path81"
       style="baseline-shift:baseline;display:none;overflow:visible;opacity:1;vector-effect:none;fill:#ffffff;enable-background:accumulate;stop-color:#000000;stop-opacity:1"
       d="m 699.84961,74.492188 20.30078,20.298828 h 479.69921 l 20.3008,-20.298828 z" /><g
       id="g92"><path
         id="path82"
         style="baseline-shift:baseline;display:inline;overflow:visible;opacity:1;vector-effect:none;fill:#ffffff;enable-background:accumulate;stop-color:#000000;stop-opacity:1"
         d="M 699.84961,74.492188 V 594.79102 H 1220.1504 V 74.492188 Z m 20.30078,20.298828 h 479.69921 v 479.699214 0.002 H 720.15039 Z" /><g
         id="g91"
         style="display:inline"><path
           id="path83"
           style="baseline-shift:baseline;display:inline;overflow:visible;opacity:0.209;vector-effect:none;fill:#000000;fill-opacity:1;enable-background:accumulate;stop-color:#000000;stop-opacity:1"
           d="m 720.15039,94.763997 -2.81067,-2.679679 0.20044,484.653192 2.61023,-2.65939 z" /><path
           id="path84"
           style="baseline-shift:baseline;display:inline;overflow:visible;opacity:0.085;vector-effect:none;fill:#000000;fill-opacity:1;enable-background:accumulate;stop-color:#000000;stop-opacity:1"
           d="m 720.15039,574.07812 -2.875,2.77344 485.07931,1.103 -2.6082,-3.46237 H 720.15039 Z" /><path
           id="path85"
           style="baseline-shift:baseline;display:inline;overflow:visible;opacity:0.143;vector-effect:none;fill:#000000;fill-opacity:1;enable-background:accumulate;stop-color:#000000;stop-opacity:1"
           d="m 1199.7871,574.49219 1.0586,1.5664 2.1818,-484.91659 -3.2291,3.703562 0.051,0.701313 v 478.943355 0.002 z" /><path
           id="path86"
           style="baseline-shift:baseline;display:inline;overflow:visible;opacity:0.198;vector-effect:none;fill:#000000;fill-opacity:1;enable-background:accumulate;stop-color:#000000;stop-opacity:1"
           d="m 1216.3086,79.14371 -0.6147,512.63444 4.4565,2.99904 V 74.368648 Z" /><path
           id="path87"
           style="baseline-shift:baseline;display:inline;overflow:visible;opacity:0.128;vector-effect:none;fill:#000000;fill-opacity:1;enable-background:accumulate;stop-color:#000000;stop-opacity:1"
           d="m 702.05859,77.367573 -2.20898,-2.856693 v 520.11141 l 5.54952,-3.65964 c 0.80641,169.50016 -3.34054,-513.595077 -3.34054,-513.595077 z" /><path
           id="path88"
           style="baseline-shift:baseline;display:inline;overflow:visible;opacity:0.198;vector-effect:none;fill:#000000;fill-opacity:1;enable-background:accumulate;stop-color:#000000;stop-opacity:1"
           d="m 1215.7073,591.77689 -2.2573,0.31545 -507.62344,-2.89876 -5.97695,5.13894 v 0.4585 h 520.30079 z" /><path
           id="path89"
           style="baseline-shift:baseline;display:inline;overflow:visible;opacity:0.233;vector-effect:none;fill:#000000;fill-opacity:1;enable-background:accumulate;stop-color:#000000;stop-opacity:1"
           d="m 718.5723,93.262622 1.41399,1.528394 H 1199.882 l 3.0168,-2.966294 z" /><path
           id="path90"
           style="baseline-shift:baseline;display:inline;overflow:visible;opacity:0.047;vector-effect:none;fill:#000000;fill-opacity:1;enable-background:accumulate;stop-color:#000000;stop-opacity:1"
           d="m 699.84961,77.263672 5.73526,0.780963 514.56553,0.917787 V 74.492188 H 699.84961 Z" /><path
           id="path91"
           style="baseline-shift:baseline;display:none;overflow:visible;opacity:1;vector-effect:none;fill:#ffffff;enable-background:accumulate;stop-color:#000000;stop-opacity:1"
           d="m 702.05859,79.083984 c 0.62351,116.673286 2.37184,447.049486 2.51953,508.498046 l 3.22852,3.92969 505.35356,1.16016 5.2382,-5.24024 -2.0898,-504.804687 -510.82032,-0.71875 z m 20.95313,11.890625 459.92578,2.458985 10.8594,1.357422 h 6.0527 v 0.447265 l 3.3145,-0.339843 -2.3184,481.160152 -1.0586,-1.5664 h -3.1797 l 0.1934,4.47656 -478.81838,-2.11328 -1.66406,1.43164 1.50195,-483.419922 c 0,0 1.72417,0.173974 2.33008,0.224609 v -0.300781 h 0.89453 z" /></g></g><g
       id="g102"><path
         style="display:inline;fill:none;stroke:#ffffff;stroke-width:10;stroke-dasharray:none;stroke-opacity:1"
         id="path92"
         width="239.84961"
         height="479.70117"
         x="720.15039"
         y="94.791023"
         d="M 716.60464,99.61575 V 569.64162 C 660.13705,581.64916 603.66946,593.6567 547.20187,605.66425 V 71.416277 c 56.46759,9.399824 112.93518,18.799649 169.40277,28.199473 z" /><g
         id="g95"
         style="display:inline"><path
           style="display:inline;fill:#ffffff;fill-opacity:1;stroke:none;stroke-width:10;stroke-dasharray:none;stroke-opacity:1"
           id="path93"
           width="218.83008"
           height="37.23"
           x="730.66016"
           y="105.30078"
           d="M 712.90314,104.02889 C 658.90322,95.258246 604.90329,86.487597 550.90337,77.716949 v 42.326831 c 53.99992,7.14445 107.99985,14.28891 161.99977,21.43336 z m 0,38.45459 C 658.90322,135.38272 604.90329,128.28197 550.90337,121.18121 v 42.32683 c 53.99992,5.47457 107.99985,10.94913 161.99977,16.42369 z m 0,38.45458 C 658.90322,175.5072 604.90329,170.07634 550.90337,164.64548 v 42.32683 c 53.99992,3.80467 107.99985,7.60933 161.99977,11.414 z m 0,38.45459 c -53.99992,-3.76097 -107.99985,-7.52194 -161.99977,-11.2829 v 42.32683 c 53.99992,2.13477 107.99985,4.26954 161.99977,6.40432 z m 0,38.45458 c -53.99992,-2.09107 -107.99985,-4.18215 -161.99977,-6.27322 v 42.32683 c 53.99992,0.46488 107.99985,0.92976 161.99977,1.39464 z m 0,38.45459 c -53.99992,-0.42118 -107.99985,-0.84236 -161.99977,-1.26354 v 42.32683 c 53.99992,-1.20502 107.99985,-2.41003 161.99977,-3.61504 z m 0,38.45458 c -53.99992,1.24871 -107.99985,2.49743 -161.99977,3.74614 v 42.32683 c 53.99992,-2.87491 107.99985,-5.74981 161.99977,-8.62472 z m 0,38.45458 c -53.99992,2.91861 -107.99985,5.83722 -161.99977,8.75583 v 42.32683 c 53.99992,-4.5448 107.99985,-9.08961 161.99977,-13.63441 z m 0,38.45459 c -53.99992,4.5885 -107.99985,9.177 -161.99977,13.7655 v 42.32683 c 53.99992,-6.21469 107.99985,-12.42939 161.99977,-18.64408 z m 0,38.45458 c -53.99992,6.2584 -107.99985,12.51679 -161.99977,18.77519 v 42.32683 c 53.99992,-7.88459 107.99985,-15.76918 161.99977,-23.65377 z m 0,38.45459 c -53.99992,7.92829 -107.99985,15.85658 -161.99977,23.78486 v 42.32683 c 53.99992,-9.55448 107.99985,-19.10896 161.99977,-28.66344 z m 0,38.45458 c -53.99992,9.59818 -107.99985,19.19637 -161.99977,28.79455 v 42.32683 c 53.99992,-11.22438 107.99985,-22.44875 161.99977,-33.67313 z" /><path
           id="path94"
           style="opacity:0.233;mix-blend-mode:normal;fill:#000000;fill-opacity:1;stroke:none;stroke-width:10;stroke-dasharray:none;stroke-opacity:1"
           d="m 550.90337,111.17091 c 0.57885,1.7459 1.1577,3.48974 1.73655,5.23152 52.28701,6.45415 104.57402,12.97623 156.86103,19.56622 1.13406,-0.91504 2.26813,-1.82716 3.40219,-2.73636 v 8.24533 C 658.90322,134.33318 604.9033,127.18875 550.90337,120.04431 Z m 0,43.46427 c 0.57885,1.728 1.1577,3.45393 1.73655,5.17782 52.28701,4.83722 104.57402,9.74237 156.86103,14.71545 1.13406,-0.95011 2.26813,-1.8973 3.40219,-2.84157 v 8.24532 C 658.90322,174.45766 604.9033,168.98312 550.90337,163.50858 Z m 0,43.46426 c 0.57885,1.7101 1.1577,3.41814 1.73655,5.12412 52.28701,3.2203 104.57402,6.50853 156.86103,9.86468 1.13406,-0.98518 2.26813,-1.96744 3.40219,-2.94678 v 8.24532 C 658.90322,214.58214 604.9033,210.77749 550.90337,206.97284 Z m 0,43.46427 c 0.57885,1.6922 1.1577,3.38233 1.73655,5.07041 52.28701,1.60338 104.57402,3.27469 156.86103,5.01392 1.13406,-1.02025 2.26813,-2.03758 3.40219,-3.052 v 8.24533 c -53.99992,-2.13475 -107.99984,-4.26951 -161.99977,-6.40426 z m 0,43.46426 c 0.57885,1.6743 1.1577,3.34654 1.73655,5.01672 52.28701,-0.0135 104.57402,0.0408 156.86103,0.16314 1.13406,-1.05532 2.26813,-2.10772 3.40219,-3.1572 v 8.24532 c -53.99992,-0.46486 -107.99984,-0.92972 -161.99977,-1.39458 z m 0,43.46427 c 0.57885,1.6564 1.1577,3.31073 1.73655,4.96301 52.28701,-1.63046 104.57402,-3.19301 156.86103,-4.68763 1.13406,-1.09039 2.26813,-2.17786 3.40219,-3.26241 v 8.24533 c -53.99992,1.20503 -107.99984,2.41007 -161.99977,3.6151 z m 0,43.46427 c 0.57885,1.63849 1.1577,3.27493 1.73655,4.90931 52.28701,-3.24739 104.57402,-6.42686 156.86103,-9.5384 1.13406,-1.12546 2.26813,-2.248 3.40219,-3.36762 v 8.24532 c -53.99992,2.87493 -107.99984,5.74986 -161.99977,8.62479 z m 0,43.46426 c 0.57885,1.6206 1.1577,3.23913 1.73655,4.85561 52.28701,-4.86431 104.57402,-9.6607 156.86103,-14.38917 1.13406,-1.16053 2.26813,-2.31814 3.40219,-3.47283 v 8.24533 c -53.99992,4.54482 -107.99984,9.08964 -161.99977,13.63446 z m 0,43.46427 c 0.57885,1.60269 1.1577,3.20333 1.73655,4.80191 52.28701,-6.48124 104.57402,-12.89456 156.86103,-19.23995 1.13406,-1.19559 2.26813,-2.38827 3.40219,-3.57803 v 8.24532 c -53.99992,6.21472 -107.99984,12.42943 -161.99977,18.64415 z m 0,43.46426 c 0.57885,1.5848 1.1577,3.16753 1.73655,4.74821 52.28701,-8.09816 104.57402,-16.1284 156.86103,-24.09071 1.13406,-1.23067 2.26813,-2.45842 3.40219,-3.68325 v 8.24532 c -53.99992,7.88461 -107.99984,15.76922 -161.99977,23.65383 z m 0,43.46427 c 0.57885,1.56689 1.1577,3.13173 1.73655,4.69451 52.28701,-9.71509 104.57402,-19.36225 156.86103,-28.94149 1.13406,-1.26574 2.26813,-2.52855 3.40219,-3.78846 v 8.24533 c -53.99992,9.5545 -107.99984,19.109 -161.99977,28.66351 z m 0,43.46426 c 0.57885,1.549 1.1577,3.09593 1.73655,4.64081 52.28701,-11.33201 104.57402,-22.59609 156.86103,-33.79225 1.13406,-1.30081 2.26813,-2.5987 3.40219,-3.89367 v 8.24532 c -53.99992,11.2244 -107.99984,22.4488 -161.99977,33.67319 z" /><path
           id="path95"
           style="opacity:0.035;mix-blend-mode:normal;fill:#000000;fill-opacity:1;stroke:none;stroke-width:10;stroke-dasharray:none;stroke-opacity:1"
           d="m 712.90314,104.02889 v 8.68816 C 660.86771,104.0813 608.83228,95.376795 556.79684,86.603528 c -1.96449,2.396353 -3.92898,4.804092 -5.89347,7.223218 V 77.716948 c 53.99993,8.770648 107.99985,17.541297 161.99977,26.311942 z m 0,38.45459 v 8.68815 c -52.03543,-7.0266 -104.07086,-14.12196 -156.1063,-21.28609 -1.96449,2.45711 -3.92898,4.9256 -5.89347,7.40547 v -16.1098 c 53.99993,7.10076 107.99985,14.20151 161.99977,21.30227 z m 0,38.45458 v 8.68816 c -52.03543,-5.41746 -104.07086,-10.90368 -156.1063,-16.45866 -1.96449,2.51785 -3.92898,5.04709 -5.89347,7.58772 v -16.1098 c 53.99993,5.43086 107.99985,10.86172 161.99977,16.29258 z m 0,38.45459 v 8.68815 c -52.03543,-3.80831 -104.07086,-7.68539 -156.1063,-11.63122 -1.96449,2.5786 -3.92898,5.16859 -5.89347,7.76996 v -16.1098 c 53.99993,3.76097 107.99985,7.52194 161.99977,11.28291 z m 0,38.45458 v 8.68816 c -52.03543,-2.19918 -104.07086,-4.46711 -156.1063,-6.8038 -1.96449,2.63935 -3.92898,5.29009 -5.89347,7.95222 v -16.1098 c 53.99993,2.09107 107.99985,4.18215 161.99977,6.27322 z m 0,38.45458 v 8.68816 c -52.03543,-0.59003 -104.07086,-1.24882 -156.1063,-1.97636 -1.96449,2.7001 -3.92898,5.41159 -5.89347,8.13446 v -16.10979 c 53.99993,0.42118 107.99985,0.84236 161.99977,1.26353 z m 0,38.45459 v 8.68815 c -52.03543,1.01912 -104.07086,1.96948 -156.1063,2.85107 -1.96449,2.76085 -3.92898,5.53309 -5.89347,8.31672 v -16.1098 c 53.99993,-1.24871 107.99985,-2.49743 161.99977,-3.74614 z m 0,38.45458 v 8.68816 c -52.03543,2.62826 -104.07086,5.18776 -156.1063,7.6785 -1.96449,2.8216 -3.92898,5.65459 -5.89347,8.49896 v -16.10979 c 53.99993,-2.91861 107.99985,-5.83722 161.99977,-8.75583 z m 0,38.45459 v 8.68815 c -52.03543,4.23741 -104.07086,8.40605 -156.1063,12.50593 -1.96449,2.88236 -3.92898,5.77609 -5.89347,8.68122 v -16.1098 c 53.99993,-4.5885 107.99985,-9.177 161.99977,-13.7655 z m 0,38.45458 v 8.68816 c -52.03543,5.84654 -104.07086,11.62433 -156.1063,17.33336 -1.96449,2.9431 -3.92898,5.89759 -5.89347,8.86347 v -16.1098 c 53.99993,-6.2584 107.99985,-12.51679 161.99977,-18.77519 z m 0,38.45459 v 8.68815 c -52.03543,7.45569 -104.07086,14.84262 -156.1063,22.1608 -1.96449,3.00385 -3.92898,6.01909 -5.89347,9.04571 v -16.1098 c 53.99993,-7.92829 107.99985,-15.85657 161.99977,-23.78486 z m 0,38.45458 v 8.68816 c -52.03543,9.06483 -104.07086,18.06091 -156.1063,26.98822 -1.96449,3.0646 -3.92898,6.14059 -5.89347,9.22797 v -16.1098 c 53.99993,-9.59818 107.99985,-19.19637 161.99977,-28.79455 z" /></g><g
         id="g101"
         style="display:inline"><path
           id="path96"
           style="baseline-shift:baseline;display:none;overflow:visible;opacity:1;vector-effect:none;fill:#ffffff;enable-background:accumulate;stop-color:#000000;stop-opacity:1"
           d="m 544.22477,65.278342 c 58.18772,10.599125 116.37545,21.114136 174.56317,31.545032 0.50366,158.735686 1.00731,317.277686 1.51097,475.625996 -58.58776,12.46986 -117.17552,24.91714 -175.76327,37.34183 -0.10363,-181.46433 -0.20725,-362.96861 -0.31087,-544.512858 z m 5.40042,11.228643 c 0.42606,0.410293 0.85212,0.820276 1.27818,1.22995 v 0.73055 c -0.41738,-0.583468 -0.83476,-1.167395 -1.25215,-1.751782 0.0627,174.025857 0.12532,348.028467 0.18797,522.007817 0.35473,-0.0923 0.70946,-0.18464 1.06418,-0.27694 v 0.74609 c 0.13061,-0.0272 0.26123,-0.0545 0.39184,-0.0817 -0.007,0.21906 -0.0145,0.43812 -0.0217,0.65719 54.22066,-10.93828 108.44133,-21.92255 162.66199,-32.95282 -0.10073,-154.37746 -0.20146,-308.79247 -0.3022,-463.24503 -0.24339,0.22869 -0.48678,0.45754 -0.73018,0.68654 v -0.22789 c 0.20966,-0.25146 0.41931,-0.50278 0.62897,-0.75396 C 658.89646,94.353598 604.26083,85.43094 549.62519,76.506985 Z" /><path
           id="path97"
           style="baseline-shift:baseline;display:inline;overflow:visible;opacity:0.128;vector-effect:none;fill:#000000;fill-opacity:1;enable-background:accumulate;stop-color:#000000;stop-opacity:1"
           d="m 550.90337,598.44654 c -0.35472,0.0923 -0.70945,0.18462 -1.06418,0.27695 -0.0627,-173.97936 -0.12531,-347.98196 -0.18797,-522.007821 0.41739,0.584387 0.83477,1.168314 1.25215,1.751781 z" /><path
           id="path98"
           style="baseline-shift:baseline;display:inline;overflow:visible;opacity:0.295;vector-effect:none;fill:#000000;fill-opacity:1;enable-background:accumulate;stop-color:#000000;stop-opacity:1"
           d="m 712.90314,104.25678 c 0.24339,-0.229 0.48679,-0.45785 0.73018,-0.68654 0.10073,154.45256 0.20147,308.86757 0.3022,463.24503 -54.22067,11.03027 -108.44133,22.01454 -162.662,32.95281 0.007,-0.21906 0.0145,-0.43813 0.0217,-0.65718 53.86931,-11.23717 107.73862,-22.47433 161.60793,-33.71149 z" /><path
           id="path99"
           style="baseline-shift:baseline;display:inline;overflow:visible;opacity:0.415;vector-effect:none;fill:#000000;fill-opacity:1;enable-background:accumulate;stop-color:#000000;stop-opacity:1"
           d="m 549.62519,76.506985 c 54.63564,8.923944 109.27128,17.846592 163.90692,26.767945 -0.20966,0.25118 -0.41931,0.5025 -0.62897,0.75396 C 658.90322,95.258245 604.9033,86.487596 550.90337,77.716948 v 0.02001 c -0.42606,-0.409681 -0.85212,-0.819672 -1.27818,-1.229973 z" /><path
           id="path100"
           style="baseline-shift:baseline;display:inline;overflow:visible;opacity:0.058;vector-effect:none;fill:#000000;fill-opacity:1;enable-background:accumulate;stop-color:#000000;stop-opacity:1"
           d="m 544.22477,65.278342 c 0.10362,181.544248 0.20724,363.048528 0.31087,544.512858 58.58775,-12.42469 117.17551,-24.87197 175.76327,-37.34183 10e-4,0.46837 0.003,0.93675 0.004,1.40512 -58.93432,12.77043 -117.86865,25.54087 -176.80297,38.3113 V 65.145934 c 0.24146,0.04414 0.48293,0.08827 0.72439,0.132408 z" /><path
           id="path101"
           style="baseline-shift:baseline;display:inline;overflow:visible;opacity:0.109;vector-effect:none;fill:#000000;fill-opacity:1;enable-background:accumulate;stop-color:#000000;stop-opacity:1"
           d="M 720.30613,95.232546 V 573.85389 c -0.32594,-0.24541 -0.65188,-0.49107 -0.97783,-0.73698 -0.18012,-158.69518 -0.36024,-317.45969 -0.54036,-476.293536 -58.19019,-10.12156 -116.38039,-20.283547 -174.57058,-30.48596 -0.23899,-0.417059 -0.47799,-0.834309 -0.71698,-1.25175 58.93525,10.048961 117.8705,20.097921 176.80575,30.146882 z" /></g></g><g
       id="g136"><g
         id="g170"
         style="display:inline"><g
           id="g173"
           clip-path="url(#clipPath173)"><g
             id="g172"><path
               id="rect169"
               style="display:inline;opacity:0.403;fill:#56b7d8;stroke-width:49.7336"
               d="m 729,104 h 463.5168 V 566.52213 H 729 Z" /></g><g
             id="g174"
             style="opacity:0.101"><path
               id="rect170"
               style="display:inline;fill:url(#linearGradient176);stroke-width:25"
               transform="rotate(30)"
               d="m 662.55609,-297.44272 h 728.47861 v 120.20816 H 662.55609 Z" /><path
               id="rect171"
               style="display:inline;fill:url(#linearGradient178);stroke-width:25"
               transform="rotate(30)"
               d="m 681.69507,-159.8987 h 673.16563 v 36.76956 H 681.69507 Z" /><path
               id="rect172"
               style="display:inline;fill:url(#linearGradient180);stroke-width:25"
               transform="rotate(30)"
               d="M 628.03296,-37.153118 H 1329.4829 V 25.072277 H 628.03296 Z" /></g></g></g><path
         id="path132"
         d="M 728.16016,102.80078 V 566.48242 H 1191.8398 V 102.80078 Z"
         style="display:inline;fill:none;stroke:#ffffff;stroke-width:15;stroke-dasharray:none;stroke-opacity:1" /><path
         style="display:inline;fill:#000000;fill-opacity:1;stroke:#ffffff;stroke-width:25;stroke-dasharray:none;stroke-opacity:1"
         d="m 959.99998,102.80078 c -1,6 0,463.68164 0,463.68164"
         id="path147" /><path
         style="display:inline;fill:#000000;fill-opacity:1;stroke:#ffffff;stroke-width:25;stroke-dasharray:none;stroke-opacity:1"
         d="M 728.16016,334.6416 H 1191.8398"
         id="path148" /><g
         id="g169"
         style="display:inline"><path
           id="path155"
           style="baseline-shift:baseline;display:none;overflow:visible;opacity:1;vector-effect:none;fill:#ffffff;enable-background:accumulate;stop-color:#000000;stop-opacity:1"
           d="M 1199.3398,285.5332 V 97.642578 L 723.10547,98.552734 721.52539,572.24414 1198.5,571.5 Z M 735.66016,110.30078 h 211.6582 c -0.0407,3.60171 -0.0755,8.33624 -0.10547,14.08203 -0.0685,13.12268 -0.11129,31.50215 -0.13477,53.38672 -0.0429,40.02773 -0.0208,91.7699 0.0313,144.37109 H 735.66016 Z m 236.66015,0 H 1184.3398 V 322.14062 H 972.10938 c -10e-4,-1.38085 -0.003,-2.76114 -0.004,-4.14062 H 967 l -2,-207 7.27344,4.0918 c 0.0146,-1.78692 0.0307,-3.38797 0.0469,-4.79102 z M 735.66016,347.14062 h 211.47656 c 0.1081,94.14563 0.29256,185.52993 0.34766,211.8418 H 735.66016 Z m 236.47656,0 h 212.20308 v 211.8418 H 972.48438 c -0.055,-26.23551 -0.23949,-117.65578 -0.34766,-211.8418 z" /><path
           id="path169"
           style="baseline-shift:baseline;display:inline;overflow:visible;opacity:0.163;vector-effect:none;fill:#000000;fill-opacity:1;enable-background:accumulate;stop-color:#000000;stop-opacity:1"
           d="M 1199.3398,285.5332 1198.5,571.5 l -476.97461,0.74414 -0.006,1.73828 h 477.82031 z" /><path
           id="path168"
           style="baseline-shift:baseline;display:inline;overflow:visible;opacity:0.054;vector-effect:none;fill:#000000;fill-opacity:1;enable-background:accumulate;stop-color:#000000;stop-opacity:1"
           d="M 720.66016,95.300781 V 573.98242 h 0.85937 l 1.58594,-475.429686 476.23433,-0.910156 v -2.341797 z" /><g
           id="g155"
           transform="translate(2)"><path
             id="path145"
             style="baseline-shift:baseline;display:inline;overflow:visible;opacity:0.124;vector-effect:none;fill:#000000;fill-opacity:1;enable-background:accumulate;stop-color:#000000;stop-opacity:1"
             d="m 731.6773,108.125 2.02344,2.17578 h 211.58022 l 3.90414,-3.67578 z" /><path
             id="path137"
             style="baseline-shift:baseline;display:inline;overflow:visible;opacity:0.205;vector-effect:none;fill:#000000;fill-opacity:1;enable-background:accumulate;stop-color:#000000;stop-opacity:1"
             d="m 945.07965,322.10937 3.39655,1.22266 0.7206,-216.7793 -3.91584,3.74805 z" /><path
             id="path138"
             style="baseline-shift:baseline;display:inline;overflow:visible;opacity:0.124;vector-effect:none;fill:#000000;fill-opacity:1;enable-background:accumulate;stop-color:#000000;stop-opacity:1"
             d="m 733.67646,322.14021 -5.5163,4.66157 220.22414,-3.52834 -3.30465,-1.16407 z" /><path
             id="path149"
             style="baseline-shift:baseline;display:inline;overflow:visible;opacity:0.047;vector-effect:none;fill:#000000;fill-opacity:1;enable-background:accumulate;stop-color:#000000;stop-opacity:1"
             d="m 733.70074,110.4043 -2.08594,-2.2793 -3.45267,218.71383 5.51433,-4.69862 c -0.0491,-51.16905 -0.21269,-105.39425 -0.17099,-144.34529 0.0234,-21.86683 0.0666,-40.22798 0.13477,-53.2832 0.0185,-3.54372 0.0383,-11.3851 0.0606,-14.10742 z" /></g><g
           transform="translate(239.23664)"
           id="g159"><path
             style="baseline-shift:baseline;display:inline;overflow:visible;opacity:0.124;vector-effect:none;fill:#000000;fill-opacity:1;enable-background:accumulate;stop-color:#000000;stop-opacity:1"
             id="path156"
             d="m 731.6773,108.125 2.02344,2.17578 h 211.58022 l 3.90414,-3.67578 z" /><path
             style="baseline-shift:baseline;display:inline;overflow:visible;opacity:0.205;vector-effect:none;fill:#000000;fill-opacity:1;enable-background:accumulate;stop-color:#000000;stop-opacity:1"
             id="path157"
             d="m 945.07965,322.10937 3.39655,1.22266 0.7206,-216.7793 -3.91584,3.74805 z" /><path
             style="baseline-shift:baseline;display:inline;overflow:visible;opacity:0.124;vector-effect:none;fill:#000000;fill-opacity:1;enable-background:accumulate;stop-color:#000000;stop-opacity:1"
             id="path158"
             d="m 733.67646,322.14021 -5.5163,4.66157 220.22414,-3.52834 -3.30465,-1.16407 z" /><path
             style="baseline-shift:baseline;display:inline;overflow:visible;opacity:0.047;vector-effect:none;fill:#000000;fill-opacity:1;enable-background:accumulate;stop-color:#000000;stop-opacity:1"
             id="path159"
             d="m 733.70074,110.4043 -2.08594,-2.2793 -3.45267,218.71383 5.51433,-4.69862 c -0.0491,-51.16905 -0.21269,-105.39425 -0.17099,-144.34529 0.0234,-21.86683 0.0666,-40.22798 0.13477,-53.2832 0.0185,-3.54372 0.0383,-11.3851 0.0606,-14.10742 z" /></g><g
           transform="translate(2,236.5861)"
           id="g163"><path
             style="baseline-shift:baseline;display:inline;overflow:visible;opacity:0.124;vector-effect:none;fill:#000000;fill-opacity:1;enable-background:accumulate;stop-color:#000000;stop-opacity:1"
             id="path160"
             d="m 731.6773,108.125 2.02344,2.17578 h 211.58022 l 3.90414,-3.67578 z" /><path
             style="baseline-shift:baseline;display:inline;overflow:visible;opacity:0.205;vector-effect:none;fill:#000000;fill-opacity:1;enable-background:accumulate;stop-color:#000000;stop-opacity:1"
             id="path161"
             d="m 945.07965,322.10937 3.39655,1.22266 0.7206,-216.7793 -3.91584,3.74805 z" /><path
             style="baseline-shift:baseline;display:inline;overflow:visible;opacity:0.124;vector-effect:none;fill:#000000;fill-opacity:1;enable-background:accumulate;stop-color:#000000;stop-opacity:1"
             id="path162"
             d="m 733.67646,322.14021 -5.5163,4.66157 220.22414,-3.52834 -3.30465,-1.16407 z" /><path
             style="baseline-shift:baseline;display:inline;overflow:visible;opacity:0.047;vector-effect:none;fill:#000000;fill-opacity:1;enable-background:accumulate;stop-color:#000000;stop-opacity:1"
             id="path163"
             d="m 733.70074,110.4043 -2.08594,-2.2793 -3.45267,218.71383 5.51433,-4.69862 c -0.0491,-51.16905 -0.21269,-105.39425 -0.17099,-144.34529 0.0234,-21.86683 0.0666,-40.22798 0.13477,-53.2832 0.0185,-3.54372 0.0383,-11.3851 0.0606,-14.10742 z" /></g><g
           transform="translate(239.23664,236.5861)"
           id="g167"><path
             style="baseline-shift:baseline;display:inline;overflow:visible;opacity:0.124;vector-effect:none;fill:#000000;fill-opacity:1;enable-background:accumulate;stop-color:#000000;stop-opacity:1"
             id="path164"
             d="m 731.6773,108.125 2.02344,2.17578 h 211.58022 l 3.90414,-3.67578 z" /><path
             style="baseline-shift:baseline;display:inline;overflow:visible;opacity:0.205;vector-effect:none;fill:#000000;fill-opacity:1;enable-background:accumulate;stop-color:#000000;stop-opacity:1"
             id="path165"
             d="m 945.07965,322.10937 3.39655,1.22266 0.7206,-216.7793 -3.91584,3.74805 z" /><path
             style="baseline-shift:baseline;display:inline;overflow:visible;opacity:0.124;vector-effect:none;fill:#000000;fill-opacity:1;enable-background:accumulate;stop-color:#000000;stop-opacity:1"
             id="path166"
             d="m 733.67646,322.14021 -5.5163,4.66157 220.22414,-3.52834 -3.30465,-1.16407 z" /><path
             style="baseline-shift:baseline;display:inline;overflow:visible;opacity:0.047;vector-effect:none;fill:#000000;fill-opacity:1;enable-background:accumulate;stop-color:#000000;stop-opacity:1"
             id="path167"
             d="m 733.70074,110.4043 -2.08594,-2.2793 -3.45267,218.71383 5.51433,-4.69862 c -0.0491,-51.16905 -0.21269,-105.39425 -0.17099,-144.34529 0.0234,-21.86683 0.0666,-40.22798 0.13477,-53.2832 0.0185,-3.54372 0.0383,-11.3851 0.0606,-14.10742 z" /></g></g></g><path
       style="fill:#dcdcdc;fill-opacity:1"
       d="M 542.21875,65.53125 542,65.5 540.28645,65.381489 V 611.35938 l 1.32862,0.2044 0.60368,0.26435 z m 835.56255,0 L 1378,65.5 l 1.7136,-0.118511 V 611.35938 l -1.3287,0.2044 -0.6036,0.26435 z"
       id="path5" /><g
       id="g33"
       transform="matrix(-1,0,0,1,1920,0)"><path
         id="path6"
         d="M 716.60464,99.61575 V 569.64162 C 660.13705,581.64916 603.66946,593.6567 547.20187,605.66425 V 71.416277 c 56.46759,9.399824 112.93518,18.799649 169.40277,28.199473 z"
         style="display:inline;fill:none;stroke:#ffffff;stroke-width:10;stroke-dasharray:none;stroke-opacity:1" /><g
         id="g24"
         style="display:inline"><path
           id="path7"
           d="M 712.90314,104.02889 C 658.90322,95.258246 604.90329,86.487597 550.90337,77.716949 v 42.326831 c 53.99992,7.14445 107.99985,14.28891 161.99977,21.43336 z m 0,38.45459 C 658.90322,135.38272 604.90329,128.28197 550.90337,121.18121 v 42.32683 c 53.99992,5.47457 107.99985,10.94913 161.99977,16.42369 z m 0,38.45458 C 658.90322,175.5072 604.90329,170.07634 550.90337,164.64548 v 42.32683 c 53.99992,3.80467 107.99985,7.60933 161.99977,11.414 z m 0,38.45459 c -53.99992,-3.76097 -107.99985,-7.52194 -161.99977,-11.2829 v 42.32683 c 53.99992,2.13477 107.99985,4.26954 161.99977,6.40432 z m 0,38.45458 c -53.99992,-2.09107 -107.99985,-4.18215 -161.99977,-6.27322 v 42.32683 c 53.99992,0.46488 107.99985,0.92976 161.99977,1.39464 z m 0,38.45459 c -53.99992,-0.42118 -107.99985,-0.84236 -161.99977,-1.26354 v 42.32683 c 53.99992,-1.20502 107.99985,-2.41003 161.99977,-3.61504 z m 0,38.45458 c -53.99992,1.24871 -107.99985,2.49743 -161.99977,3.74614 v 42.32683 c 53.99992,-2.87491 107.99985,-5.74981 161.99977,-8.62472 z m 0,38.45458 c -53.99992,2.91861 -107.99985,5.83722 -161.99977,8.75583 v 42.32683 c 53.99992,-4.5448 107.99985,-9.08961 161.99977,-13.63441 z m 0,38.45459 c -53.99992,4.5885 -107.99985,9.177 -161.99977,13.7655 v 42.32683 c 53.99992,-6.21469 107.99985,-12.42939 161.99977,-18.64408 z m 0,38.45458 c -53.99992,6.2584 -107.99985,12.51679 -161.99977,18.77519 v 42.32683 c 53.99992,-7.88459 107.99985,-15.76918 161.99977,-23.65377 z m 0,38.45459 c -53.99992,7.92829 -107.99985,15.85658 -161.99977,23.78486 v 42.32683 c 53.99992,-9.55448 107.99985,-19.10896 161.99977,-28.66344 z m 0,38.45458 c -53.99992,9.59818 -107.99985,19.19637 -161.99977,28.79455 v 42.32683 c 53.99992,-11.22438 107.99985,-22.44875 161.99977,-33.67313 z"
           style="display:inline;fill:#ffffff;fill-opacity:1;stroke:none;stroke-width:10;stroke-dasharray:none;stroke-opacity:1" /><path
           id="path23"
           d="m 550.90337,111.17091 c 0.57885,1.7459 1.1577,3.48974 1.73655,5.23152 52.28701,6.45415 104.57402,12.97623 156.86103,19.56622 1.13406,-0.91504 2.26813,-1.82716 3.40219,-2.73636 v 8.24533 C 658.90322,134.33318 604.9033,127.18875 550.90337,120.04431 Z m 0,43.46427 c 0.57885,1.728 1.1577,3.45393 1.73655,5.17782 52.28701,4.83722 104.57402,9.74237 156.86103,14.71545 1.13406,-0.95011 2.26813,-1.8973 3.40219,-2.84157 v 8.24532 C 658.90322,174.45766 604.9033,168.98312 550.90337,163.50858 Z m 0,43.46426 c 0.57885,1.7101 1.1577,3.41814 1.73655,5.12412 52.28701,3.2203 104.57402,6.50853 156.86103,9.86468 1.13406,-0.98518 2.26813,-1.96744 3.40219,-2.94678 v 8.24532 C 658.90322,214.58214 604.9033,210.77749 550.90337,206.97284 Z m 0,43.46427 c 0.57885,1.6922 1.1577,3.38233 1.73655,5.07041 52.28701,1.60338 104.57402,3.27469 156.86103,5.01392 1.13406,-1.02025 2.26813,-2.03758 3.40219,-3.052 v 8.24533 c -53.99992,-2.13475 -107.99984,-4.26951 -161.99977,-6.40426 z m 0,43.46426 c 0.57885,1.6743 1.1577,3.34654 1.73655,5.01672 52.28701,-0.0135 104.57402,0.0408 156.86103,0.16314 1.13406,-1.05532 2.26813,-2.10772 3.40219,-3.1572 v 8.24532 c -53.99992,-0.46486 -107.99984,-0.92972 -161.99977,-1.39458 z m 0,43.46427 c 0.57885,1.6564 1.1577,3.31073 1.73655,4.96301 52.28701,-1.63046 104.57402,-3.19301 156.86103,-4.68763 1.13406,-1.09039 2.26813,-2.17786 3.40219,-3.26241 v 8.24533 c -53.99992,1.20503 -107.99984,2.41007 -161.99977,3.6151 z m 0,43.46427 c 0.57885,1.63849 1.1577,3.27493 1.73655,4.90931 52.28701,-3.24739 104.57402,-6.42686 156.86103,-9.5384 1.13406,-1.12546 2.26813,-2.248 3.40219,-3.36762 v 8.24532 c -53.99992,2.87493 -107.99984,5.74986 -161.99977,8.62479 z m 0,43.46426 c 0.57885,1.6206 1.1577,3.23913 1.73655,4.85561 52.28701,-4.86431 104.57402,-9.6607 156.86103,-14.38917 1.13406,-1.16053 2.26813,-2.31814 3.40219,-3.47283 v 8.24533 c -53.99992,4.54482 -107.99984,9.08964 -161.99977,13.63446 z m 0,43.46427 c 0.57885,1.60269 1.1577,3.20333 1.73655,4.80191 52.28701,-6.48124 104.57402,-12.89456 156.86103,-19.23995 1.13406,-1.19559 2.26813,-2.38827 3.40219,-3.57803 v 8.24532 c -53.99992,6.21472 -107.99984,12.42943 -161.99977,18.64415 z m 0,43.46426 c 0.57885,1.5848 1.1577,3.16753 1.73655,4.74821 52.28701,-8.09816 104.57402,-16.1284 156.86103,-24.09071 1.13406,-1.23067 2.26813,-2.45842 3.40219,-3.68325 v 8.24532 c -53.99992,7.88461 -107.99984,15.76922 -161.99977,23.65383 z m 0,43.46427 c 0.57885,1.56689 1.1577,3.13173 1.73655,4.69451 52.28701,-9.71509 104.57402,-19.36225 156.86103,-28.94149 1.13406,-1.26574 2.26813,-2.52855 3.40219,-3.78846 v 8.24533 c -53.99992,9.5545 -107.99984,19.109 -161.99977,28.66351 z m 0,43.46426 c 0.57885,1.549 1.1577,3.09593 1.73655,4.64081 52.28701,-11.33201 104.57402,-22.59609 156.86103,-33.79225 1.13406,-1.30081 2.26813,-2.5987 3.40219,-3.89367 v 8.24532 c -53.99992,11.2244 -107.99984,22.4488 -161.99977,33.67319 z"
           style="opacity:0.233;mix-blend-mode:normal;fill:#000000;fill-opacity:1;stroke:none;stroke-width:10;stroke-dasharray:none;stroke-opacity:1" /><path
           id="path24"
           d="m 712.90314,104.02889 v 8.68816 C 660.86771,104.0813 608.83228,95.376795 556.79684,86.603528 c -1.96449,2.396353 -3.92898,4.804092 -5.89347,7.223218 V 77.716948 c 53.99993,8.770648 107.99985,17.541297 161.99977,26.311942 z m 0,38.45459 v 8.68815 c -52.03543,-7.0266 -104.07086,-14.12196 -156.1063,-21.28609 -1.96449,2.45711 -3.92898,4.9256 -5.89347,7.40547 v -16.1098 c 53.99993,7.10076 107.99985,14.20151 161.99977,21.30227 z m 0,38.45458 v 8.68816 c -52.03543,-5.41746 -104.07086,-10.90368 -156.1063,-16.45866 -1.96449,2.51785 -3.92898,5.04709 -5.89347,7.58772 v -16.1098 c 53.99993,5.43086 107.99985,10.86172 161.99977,16.29258 z m 0,38.45459 v 8.68815 c -52.03543,-3.80831 -104.07086,-7.68539 -156.1063,-11.63122 -1.96449,2.5786 -3.92898,5.16859 -5.89347,7.76996 v -16.1098 c 53.99993,3.76097 107.99985,7.52194 161.99977,11.28291 z m 0,38.45458 v 8.68816 c -52.03543,-2.19918 -104.07086,-4.46711 -156.1063,-6.8038 -1.96449,2.63935 -3.92898,5.29009 -5.89347,7.95222 v -16.1098 c 53.99993,2.09107 107.99985,4.18215 161.99977,6.27322 z m 0,38.45458 v 8.68816 c -52.03543,-0.59003 -104.07086,-1.24882 -156.1063,-1.97636 -1.96449,2.7001 -3.92898,5.41159 -5.89347,8.13446 v -16.10979 c 53.99993,0.42118 107.99985,0.84236 161.99977,1.26353 z m 0,38.45459 v 8.68815 c -52.03543,1.01912 -104.07086,1.96948 -156.1063,2.85107 -1.96449,2.76085 -3.92898,5.53309 -5.89347,8.31672 v -16.1098 c 53.99993,-1.24871 107.99985,-2.49743 161.99977,-3.74614 z m 0,38.45458 v 8.68816 c -52.03543,2.62826 -104.07086,5.18776 -156.1063,7.6785 -1.96449,2.8216 -3.92898,5.65459 -5.89347,8.49896 v -16.10979 c 53.99993,-2.91861 107.99985,-5.83722 161.99977,-8.75583 z m 0,38.45459 v 8.68815 c -52.03543,4.23741 -104.07086,8.40605 -156.1063,12.50593 -1.96449,2.88236 -3.92898,5.77609 -5.89347,8.68122 v -16.1098 c 53.99993,-4.5885 107.99985,-9.177 161.99977,-13.7655 z m 0,38.45458 v 8.68816 c -52.03543,5.84654 -104.07086,11.62433 -156.1063,17.33336 -1.96449,2.9431 -3.92898,5.89759 -5.89347,8.86347 v -16.1098 c 53.99993,-6.2584 107.99985,-12.51679 161.99977,-18.77519 z m 0,38.45459 v 8.68815 c -52.03543,7.45569 -104.07086,14.84262 -156.1063,22.1608 -1.96449,3.00385 -3.92898,6.01909 -5.89347,9.04571 v -16.1098 c 53.99993,-7.92829 107.99985,-15.85657 161.99977,-23.78486 z m 0,38.45458 v 8.68816 c -52.03543,9.06483 -104.07086,18.06091 -156.1063,26.98822 -1.96449,3.0646 -3.92898,6.14059 -5.89347,9.22797 v -16.1098 c 53.99993,-9.59818 107.99985,-19.19637 161.99977,-28.79455 z"
           style="opacity:0.035;mix-blend-mode:normal;fill:#000000;fill-opacity:1;stroke:none;stroke-width:10;stroke-dasharray:none;stroke-opacity:1" /></g><g
         id="g32"
         style="display:inline"><path
           id="path25"
           d="m 544.22477,65.278342 c 58.18772,10.599125 116.37545,21.114136 174.56317,31.545032 0.50366,158.735686 1.00731,317.277686 1.51097,475.625996 -58.58776,12.46986 -117.17552,24.91714 -175.76327,37.34183 -0.10363,-181.46433 -0.20725,-362.96861 -0.31087,-544.512858 z m 5.40042,11.228643 c 0.42606,0.410293 0.85212,0.820276 1.27818,1.22995 v 0.73055 c -0.41738,-0.583468 -0.83476,-1.167395 -1.25215,-1.751782 0.0627,174.025857 0.12532,348.028467 0.18797,522.007817 0.35473,-0.0923 0.70946,-0.18464 1.06418,-0.27694 v 0.74609 c 0.13061,-0.0272 0.26123,-0.0545 0.39184,-0.0817 -0.007,0.21906 -0.0145,0.43812 -0.0217,0.65719 54.22066,-10.93828 108.44133,-21.92255 162.66199,-32.95282 -0.10073,-154.37746 -0.20146,-308.79247 -0.3022,-463.24503 -0.24339,0.22869 -0.48678,0.45754 -0.73018,0.68654 v -0.22789 c 0.20966,-0.25146 0.41931,-0.50278 0.62897,-0.75396 C 658.89646,94.353598 604.26083,85.43094 549.62519,76.506985 Z"
           style="baseline-shift:baseline;display:none;overflow:visible;opacity:1;vector-effect:none;fill:#ffffff;enable-background:accumulate;stop-color:#000000;stop-opacity:1" /><path
           id="path28"
           d="m 550.90337,598.44654 c -0.35472,0.0923 -0.70945,0.18462 -1.06418,0.27695 -0.0627,-173.97936 -0.12531,-347.98196 -0.18797,-522.007821 0.41739,0.584387 0.83477,1.168314 1.25215,1.751781 z"
           style="baseline-shift:baseline;display:inline;overflow:visible;opacity:0.128;vector-effect:none;fill:#000000;fill-opacity:1;enable-background:accumulate;stop-color:#000000;stop-opacity:1" /><path
           id="path29"
           d="m 712.90314,104.25678 c 0.24339,-0.229 0.48679,-0.45785 0.73018,-0.68654 0.10073,154.45256 0.20147,308.86757 0.3022,463.24503 -54.22067,11.03027 -108.44133,22.01454 -162.662,32.95281 0.007,-0.21906 0.0145,-0.43813 0.0217,-0.65718 53.86931,-11.23717 107.73862,-22.47433 161.60793,-33.71149 z"
           style="baseline-shift:baseline;display:inline;overflow:visible;opacity:0.295;vector-effect:none;fill:#000000;fill-opacity:1;enable-background:accumulate;stop-color:#000000;stop-opacity:1" /><path
           id="path30"
           d="m 549.62519,76.506985 c 54.63564,8.923944 109.27128,17.846592 163.90692,26.767945 -0.20966,0.25118 -0.41931,0.5025 -0.62897,0.75396 C 658.90322,95.258245 604.9033,86.487596 550.90337,77.716948 v 0.02001 c -0.42606,-0.409681 -0.85212,-0.819672 -1.27818,-1.229972 z"
           style="baseline-shift:baseline;display:inline;overflow:visible;opacity:0.415;vector-effect:none;fill:#000000;fill-opacity:1;enable-background:accumulate;stop-color:#000000;stop-opacity:1" /><path
           id="path31"
           d="m 544.22477,65.278342 c 0.10362,181.544248 0.20724,363.048528 0.31087,544.512858 58.58775,-12.42469 117.17551,-24.87197 175.76327,-37.34183 0.001,0.46837 0.003,0.93675 0.004,1.40512 -58.93432,12.77043 -117.86865,25.54087 -176.80297,38.3113 V 65.145934 c 0.24146,0.04414 0.48293,0.08827 0.72439,0.132408 z"
           style="baseline-shift:baseline;display:inline;overflow:visible;opacity:0.058;vector-effect:none;fill:#000000;fill-opacity:1;enable-background:accumulate;stop-color:#000000;stop-opacity:1" /><path
           id="path32"
           d="M 720.30613,95.232546 V 573.85389 c -0.32594,-0.24541 -0.65188,-0.49107 -0.97783,-0.73698 -0.18012,-158.69518 -0.36024,-317.45969 -0.54036,-476.293536 -58.19019,-10.12156 -116.38039,-20.283547 -174.57058,-30.48596 -0.23899,-0.417059 -0.47799,-0.834309 -0.71698,-1.25175 58.93525,10.048961 117.8705,20.097921 176.80575,30.146882 z"
           style="baseline-shift:baseline;display:inline;overflow:visible;opacity:0.109;vector-effect:none;fill:#000000;fill-opacity:1;enable-background:accumulate;stop-color:#000000;stop-opacity:1" /></g></g></g></svg>
